  0
SECTION
  2
HEADER
  9
$ACADVER
  1
AC1015
  9
$ACADMAINTVER
 70
6
  9
$DWGCODEPAGE
  3
ANSI_1252
  9
$INSBASE
 10
0.0
 20
0.0
 30
0.0
  9
$EXTMIN
 10
1e+20
 20
1e+20
 30
1e+20
  9
$EXTMAX
 10
-1e+20
 20
-1e+20
 30
-1e+20
  9
$LIMMIN
 10
0.0
 20
0.0
  9
$LIMMAX
 10
420.0
 20
297.0
  9
$ORTHOMODE
 70
0
  9
$REGENMODE
 70
1
  9
$FILLMODE
 70
1
  9
$QTEXTMODE
 70
0
  9
$MIRRTEXT
 70
1
  9
$LTSCALE
 40
1.0
  9
$ATTMODE
 70
1
  9
$TEXTSIZE
 40
2.5
  9
$TRACEWID
 40
1.0
  9
$TEXTSTYLE
  7
Standard
  9
$CLAYER
  8
0
  9
$CELTYPE
  6
ByLayer
  9
$CECOLOR
 62
256
  9
$CELTSCALE
 40
1.0
  9
$DISPSILH
 70
0
  9
$DIMSCALE
 40
1.0
  9
$DIMASZ
 40
2.5
  9
$DIMEXO
 40
0.625
  9
$DIMDLI
 40
3.75
  9
$DIMRND
 40
0.0
  9
$DIMDLE
 40
0.0
  9
$DIMEXE
 40
1.25
  9
$DIMTP
 40
0.0
  9
$DIMTM
 40
0.0
  9
$DIMTXT
 40
2.5
  9
$DIMCEN
 40
2.5
  9
$DIMTSZ
 40
0.0
  9
$DIMTOL
 70
0
  9
$DIMLIM
 70
0
  9
$DIMTIH
 70
0
  9
$DIMTOH
 70
0
  9
$DIMSE1
 70
0
  9
$DIMSE2
 70
0
  9
$DIMTAD
 70
1
  9
$DIMZIN
 70
8
  9
$DIMBLK
  1

  9
$DIMASO
 70
1
  9
$DIMSHO
 70
1
  9
$DIMPOST
  1

  9
$DIMAPOST
  1

  9
$DIMALT
 70
0
  9
$DIMALTD
 70
3
  9
$DIMALTF
 40
0.03937007874
  9
$DIMLFAC
 40
1.0
  9
$DIMTOFL
 70
1
  9
$DIMTVP
 40
0.0
  9
$DIMTIX
 70
0
  9
$DIMSOXD
 70
0
  9
$DIMSAH
 70
0
  9
$DIMBLK1
  1

  9
$DIMBLK2
  1

  9
$DIMSTYLE
  2
ISO-25
  9
$DIMCLRD
 70
0
  9
$DIMCLRE
 70
0
  9
$DIMCLRT
 70
0
  9
$DIMTFAC
 40
1.0
  9
$DIMGAP
 40
0.625
  9
$DIMJUST
 70
0
  9
$DIMSD1
 70
0
  9
$DIMSD2
 70
0
  9
$DIMTOLJ
 70
0
  9
$DIMTZIN
 70
8
  9
$DIMALTZ
 70
0
  9
$DIMALTTZ
 70
0
  9
$DIMUPT
 70
0
  9
$DIMDEC
 70
2
  9
$DIMTDEC
 70
2
  9
$DIMALTU
 70
2
  9
$DIMALTTD
 70
3
  9
$DIMTXSTY
  7
Standard
  9
$DIMAUNIT
 70
0
  9
$DIMADEC
 70
0
  9
$DIMALTRND
 40
0.0
  9
$DIMAZIN
 70
0
  9
$DIMDSEP
 70
44
  9
$DIMATFIT
 70
3
  9
$DIMFRAC
 70
0
  9
$DIMLDRBLK
  1

  9
$DIMLUNIT
 70
2
  9
$DIMLWD
 70
-2
  9
$DIMLWE
 70
-2
  9
$DIMTMOVE
 70
0
  9
$LUNITS
 70
2
  9
$LUPREC
 70
4
  9
$SKETCHINC
 40
1.0
  9
$FILLETRAD
 40
10.0
  9
$AUNITS
 70
0
  9
$AUPREC
 70
2
  9
$MENU
  1
.
  9
$ELEVATION
 40
0.0
  9
$PELEVATION
 40
0.0
  9
$THICKNESS
 40
0.0
  9
$LIMCHECK
 70
0
  9
$CHAMFERA
 40
0.0
  9
$CHAMFERB
 40
0.0
  9
$CHAMFERC
 40
0.0
  9
$CHAMFERD
 40
0.0
  9
$SKPOLY
 70
0
  9
$TDCREATE
 40
2461266.440972222
  9
$TDUCREATE
 40
2458532.153996898
  9
$TDUPDATE
 40
2461266.440972222
  9
$TDUUPDATE
 40
2458532.1544311
  9
$TDINDWG
 40
0.0
  9
$TDUSRTIMER
 40
0.0
  9
$USRTIMER
 70
1
  9
$ANGBASE
 50
0.0
  9
$ANGDIR
 70
0
  9
$PDMODE
 70
0
  9
$PDSIZE
 40
0.0
  9
$PLINEWID
 40
0.0
  9
$SPLFRAME
 70
0
  9
$SPLINETYPE
 70
6
  9
$SPLINESEGS
 70
8
  9
$HANDSEED
  5
3C
  9
$SURFTAB1
 70
6
  9
$SURFTAB2
 70
6
  9
$SURFTYPE
 70
6
  9
$SURFU
 70
6
  9
$SURFV
 70
6
  9
$UCSBASE
  2

  9
$UCSNAME
  2

  9
$UCSORG
 10
0.0
 20
0.0
 30
0.0
  9
$UCSXDIR
 10
1.0
 20
0.0
 30
0.0
  9
$UCSYDIR
 10
0.0
 20
1.0
 30
0.0
  9
$UCSORTHOREF
  2

  9
$UCSORTHOVIEW
 70
0
  9
$UCSORGTOP
 10
0.0
 20
0.0
 30
0.0
  9
$UCSORGBOTTOM
 10
0.0
 20
0.0
 30
0.0
  9
$UCSORGLEFT
 10
0.0
 20
0.0
 30
0.0
  9
$UCSORGRIGHT
 10
0.0
 20
0.0
 30
0.0
  9
$UCSORGFRONT
 10
0.0
 20
0.0
 30
0.0
  9
$UCSORGBACK
 10
0.0
 20
0.0
 30
0.0
  9
$PUCSBASE
  2

  9
$PUCSNAME
  2

  9
$PUCSORG
 10
0.0
 20
0.0
 30
0.0
  9
$PUCSXDIR
 10
1.0
 20
0.0
 30
0.0
  9
$PUCSYDIR
 10
0.0
 20
1.0
 30
0.0
  9
$PUCSORTHOREF
  2

  9
$PUCSORTHOVIEW
 70
0
  9
$PUCSORGTOP
 10
0.0
 20
0.0
 30
0.0
  9
$PUCSORGBOTTOM
 10
0.0
 20
0.0
 30
0.0
  9
$PUCSORGLEFT
 10
0.0
 20
0.0
 30
0.0
  9
$PUCSORGRIGHT
 10
0.0
 20
0.0
 30
0.0
  9
$PUCSORGFRONT
 10
0.0
 20
0.0
 30
0.0
  9
$PUCSORGBACK
 10
0.0
 20
0.0
 30
0.0
  9
$USERI1
 70
0
  9
$USERI2
 70
0
  9
$USERI3
 70
0
  9
$USERI4
 70
0
  9
$USERI5
 70
0
  9
$USERR1
 40
0.0
  9
$USERR2
 40
0.0
  9
$USERR3
 40
0.0
  9
$USERR4
 40
0.0
  9
$USERR5
 40
0.0
  9
$WORLDVIEW
 70
1
  9
$SHADEDGE
 70
3
  9
$SHADEDIF
 70
70
  9
$TILEMODE
 70
1
  9
$MAXACTVP
 70
64
  9
$PINSBASE
 10
0.0
 20
0.0
 30
0.0
  9
$PLIMCHECK
 70
0
  9
$PEXTMIN
 10
1e+20
 20
1e+20
 30
1e+20
  9
$PEXTMAX
 10
-1e+20
 20
-1e+20
 30
-1e+20
  9
$PLIMMIN
 10
0.0
 20
0.0
  9
$PLIMMAX
 10
420.0
 20
297.0
  9
$UNITMODE
 70
0
  9
$VISRETAIN
 70
1
  9
$PLINEGEN
 70
0
  9
$PSLTSCALE
 70
1
  9
$TREEDEPTH
 70
3020
  9
$CMLSTYLE
  2
Standard
  9
$CMLJUST
 70
0
  9
$CMLSCALE
 40
20.0
  9
$PROXYGRAPHICS
 70
1
  9
$MEASUREMENT
 70
1
  9
$CELWEIGHT
370
-1
  9
$ENDCAPS
280
0
  9
$JOINSTYLE
280
0
  9
$LWDISPLAY
290
0
  9
$INSUNITS
 70
6
  9
$HYPERLINKBASE
  1

  9
$STYLESHEET
  1

  9
$XEDIT
290
1
  9
$CEPSNTYPE
380
0
  9
$PSTYLEMODE
290
1
  9
$FINGERPRINTGUID
  2
{DE2A8244-1D7F-460A-9575-2BABCC3FDBF4}
  9
$VERSIONGUID
  2
{80B05A8E-55F9-4CC7-8B43-B99AAF083F27}
  9
$EXTNAMES
290
1
  9
$PSVPSCALE
 40
0.0
  9
$OLESTARTUP
290
0
  0
ENDSEC
  0
SECTION
  2
CLASSES
  0
CLASS
  1
ACDBDICTIONARYWDFLT
  2
AcDbDictionaryWithDefault
  3
ObjectDBX Classes
 90
0
280
0
281
0
  0
CLASS
  1
SUN
  2
AcDbSun
  3
SCENEOE
 90
1153
280
0
281
0
  0
CLASS
  1
VISUALSTYLE
  2
AcDbVisualStyle
  3
ObjectDBX Classes
 90
4095
280
0
281
0
  0
CLASS
  1
MATERIAL
  2
AcDbMaterial
  3
ObjectDBX Classes
 90
1153
280
0
281
0
  0
CLASS
  1
SCALE
  2
AcDbScale
  3
ObjectDBX Classes
 90
1153
280
0
281
0
  0
CLASS
  1
TABLESTYLE
  2
AcDbTableStyle
  3
ObjectDBX Classes
 90
4095
280
0
281
0
  0
CLASS
  1
MLEADERSTYLE
  2
AcDbMLeaderStyle
  3
ACDB_MLEADERSTYLE_CLASS
 90
4095
280
0
281
0
  0
CLASS
  1
DICTIONARYVAR
  2
AcDbDictionaryVar
  3
ObjectDBX Classes
 90
0
280
0
281
0
  0
CLASS
  1
CELLSTYLEMAP
  2
AcDbCellStyleMap
  3
ObjectDBX Classes
 90
1152
280
0
281
0
  0
CLASS
  1
MENTALRAYRENDERSETTINGS
  2
AcDbMentalRayRenderSettings
  3
SCENEOE
 90
1024
280
0
281
0
  0
CLASS
  1
ACDBDETAILVIEWSTYLE
  2
AcDbDetailViewStyle
  3
ObjectDBX Classes
 90
1025
280
0
281
0
  0
CLASS
  1
ACDBSECTIONVIEWSTYLE
  2
AcDbSectionViewStyle
  3
ObjectDBX Classes
 90
1025
280
0
281
0
  0
CLASS
  1
RASTERVARIABLES
  2
AcDbRasterVariables
  3
ISM
 90
0
280
0
281
0
  0
CLASS
  1
ACDBPLACEHOLDER
  2
AcDbPlaceHolder
  3
ObjectDBX Classes
 90
0
280
0
281
0
  0
CLASS
  1
LAYOUT
  2
AcDbLayout
  3
ObjectDBX Classes
 90
0
280
0
281
0
  0
ENDSEC
  0
SECTION
  2
TABLES
  0
TABLE
  2
VPORT
  5
8
330
0
100
AcDbSymbolTable
 70
1
  0
VPORT
  5
23
330
8
100
AcDbSymbolTableRecord
100
AcDbViewportTableRecord
  2
*Active
 70
0
 10
0.0
 20
0.0
 11
1.0
 21
1.0
 12
0.0
 22
0.0
 13
0.0
 23
0.0
 14
0.5
 24
0.5
 15
0.5
 25
0.5
 16
0.0
 26
0.0
 36
1.0
 17
0.0
 27
0.0
 37
0.0
 40
1000.0
 41
1.34
 42
50.0
 43
0.0
 44
0.0
 50
0.0
 51
0.0
 71
0
 72
1000
 73
1
 74
3
 75
0
 76
0
 77
0
 78
0
281
0
 65
0
146
0.0
  0
ENDTAB
  0
TABLE
  2
LTYPE
  5
2
330
0
100
AcDbSymbolTable
 70
3
  0
LTYPE
  5
24
330
2
100
AcDbSymbolTableRecord
100
AcDbLinetypeTableRecord
  2
ByBlock
 70
0
  3

 72
65
 73
0
 40
0.0
  0
LTYPE
  5
25
330
2
100
AcDbSymbolTableRecord
100
AcDbLinetypeTableRecord
  2
ByLayer
 70
0
  3

 72
65
 73
0
 40
0.0
  0
LTYPE
  5
26
330
2
100
AcDbSymbolTableRecord
100
AcDbLinetypeTableRecord
  2
Continuous
 70
0
  3

 72
65
 73
0
 40
0.0
  0
ENDTAB
  0
TABLE
  2
LAYER
  5
1
330
0
100
AcDbSymbolTable
 70
2
  0
LAYER
  5
27
330
1
100
AcDbSymbolTableRecord
100
AcDbLayerTableRecord
  2
0
 70
0
 62
7
  6
Continuous
370
-3
390
13
  0
LAYER
  5
28
330
1
100
AcDbSymbolTableRecord
100
AcDbLayerTableRecord
  2
Defpoints
 70
0
 62
7
  6
Continuous
290
0
370
-3
390
13
  0
ENDTAB
  0
TABLE
  2
STYLE
  5
5
330
0
100
AcDbSymbolTable
 70
1
  0
STYLE
  5
29
330
5
100
AcDbSymbolTableRecord
100
AcDbTextStyleTableRecord
  2
Standard
 70
0
 40
0.0
 41
1.0
 50
0.0
 71
0
 42
2.5
  3
txt
  4

  0
ENDTAB
  0
TABLE
  2
VIEW
  5
7
330
0
100
AcDbSymbolTable
 70
0
  0
ENDTAB
  0
TABLE
  2
UCS
  5
6
330
0
100
AcDbSymbolTable
 70
0
  0
ENDTAB
  0
TABLE
  2
APPID
  5
3
330
0
100
AcDbSymbolTable
 70
3
  0
APPID
  5
2A
330
3
100
AcDbSymbolTableRecord
100
AcDbRegAppTableRecord
  2
ACAD
 70
0
  0
APPID
  5
39
330
3
100
AcDbSymbolTableRecord
100
AcDbRegAppTableRecord
  2
HATCHBACKGROUNDCOLOR
 70
0
  0
APPID
  5
3A
330
3
100
AcDbSymbolTableRecord
100
AcDbRegAppTableRecord
  2
EZDXF
 70
0
  0
ENDTAB
  0
TABLE
  2
DIMSTYLE
  5
4
330
0
100
AcDbSymbolTable
 70
1
100
AcDbDimStyleTable
  0
DIMSTYLE
105
2B
330
4
100
AcDbSymbolTableRecord
100
AcDbDimStyleTableRecord
  2
Standard
 70
0
  3

  4

 40
1.0
 41
2.5
 42
0.625
 43
3.75
 44
1.25
 45
0.0
 46
0.0
 47
0.0
 48
0.0
140
2.5
141
2.5
142
0.0
143
0.03937007874
144
1.0
145
0.0
146
1.0
147
0.625
148
0.0
 71
0
 72
0
 73
0
 74
0
 75
0
 76
0
 77
1
 78
8
 79
3
170
0
171
3
172
1
173
0
174
0
175
0
176
0
177
0
178
0
179
2
271
2
272
2
273
2
274
3
275
0
276
0
277
2
278
44
279
0
280
0
281
0
282
0
283
0
284
8
285
0
286
0
288
0
289
3
371
-2
372
-2
  0
ENDTAB
  0
TABLE
  2
BLOCK_RECORD
  5
9
330
0
100
AcDbSymbolTable
 70
2
  0
BLOCK_RECORD
  5
17
330
9
100
AcDbSymbolTableRecord
100
AcDbBlockTableRecord
  2
*Model_Space
340
1A
  0
BLOCK_RECORD
  5
1B
330
9
100
AcDbSymbolTableRecord
100
AcDbBlockTableRecord
  2
*Paper_Space
340
1E
  0
ENDTAB
  0
ENDSEC
  0
SECTION
  2
BLOCKS
  0
BLOCK
  5
18
330
17
100
AcDbEntity
  8
0
100
AcDbBlockBegin
  2
*Model_Space
 70
0
 10
0.0
 20
0.0
 30
0.0
  3
*Model_Space
  1

  0
ENDBLK
  5
19
330
17
100
AcDbEntity
  8
0
100
AcDbBlockEnd
  0
BLOCK
  5
1C
330
1B
100
AcDbEntity
  8
0
100
AcDbBlockBegin
  2
*Paper_Space
 70
0
 10
0.0
 20
0.0
 30
0.0
  3
*Paper_Space
  1

  0
ENDBLK
  5
1D
330
1B
100
AcDbEntity
  8
0
100
AcDbBlockEnd
  0
ENDSEC
  0
SECTION
  2
ENTITIES
  0
POINT
  5
2F
330
17
100
AcDbEntity
  8
0
100
AcDbPoint
 10
0.0
 20
0.0
 30
0.0
  0
LWPOLYLINE
  5
30
330
17
100
AcDbEntity
  8
0
100
AcDbPolyline
 90
600
 70
0
 10
0.0
 20
20.0
 10
0.27208654621568984
 20
19.994328205392623
 10
0.5432692454542097
 20
19.977387523016958
 10
0.8126689633224877
 20
19.949399057171682
 10
1.0794541475107686
 20
19.91072162221707
 10
1.3428602669528762
 20
19.861838223625902
 10
1.6022046896935533
 20
19.80333898720742
 10
1.8568964314651748
 20
19.735902009712614
 10
2.1064407713124527
 20
19.660273586104925
 10
2.3504392064761
 20
19.577249070574233
 10
2.5885855498306007
 20
19.48765531437489
 10
2.820659142064696
 20
19.392335265732967
 10
3.0465161731663115
 20
19.292134977424322
 10
3.2660800200646185
 20
19.18789298819852
 10
3.4793313533081722
 20
19.080431844786133
 10
3.686298586019867
 20
18.970551412846508
 10
3.8870490642797693
 20
18.8590235766119
 10
4.081681249386482
 20
18.746587931103058
 10
4.270318028552311
 20
18.633948109984498
 10
4.453101212901478
 20
18.521768451411177
 10
4.630187236272437
 20
18.41067077274043
 10
4.8017440483934415
 20
18.30123109616623
 10
4.96794919325253
 20
18.193976238209228
 10
5.12898906923803
 20
18.089380246128485
 10
5.285059373224483
 20
17.987860734553934
 10
5.436366727798314
 20
17.889775246798113
 10
5.583131471327967
 20
17.79541783691456
 10
5.725591547707971
 20
17.705016137647966
 10
5.86400736158597
 20
17.618729239541636
 10
5.998667364707172
 20
17.536646747358617
 10
6.129894014467653
 20
17.458789388078262
 10
6.258049609391494
 20
17.385111505167558
 10
6.383541379318696
 20
17.315505673979843
 10
6.506825119558279
 20
17.249809507611403
 10
6.628406640588805
 20
17.187814498465062
 10
6.748840386592368
 20
17.129276481466253
 10
6.8687247721133
 20
17.07392704977001
 10
6.988694088735914
 20
17.021485052658832
 10
7.109407207960249
 20
16.97166720701537
 10
7.231533693541525
 20
16.92419689200903
 10
7.355738265638084
 20
16.87881037782662
 10
7.4826647655099725
 20
16.83526003722029
 10
7.612920812813165
 20
16.793314449566047
 10
7.747064223021589
 20
16.752755663701702
 10
7.885591991525633
 20
16.713374175344025
 10
8.028932310416296
 20
16.674962354966908
 10
8.177439729468952
 20
16.63730711853167
 10
8.33139326183097
 20
16.60018257927849
 10
8.490997005215533
 20
16.56334328538086
 10
8.656382715458026
 20
16.52651847435559
 10
8.827613725235365
 20
16.489407596581835
 10
9.004689627438527
 20
16.451677203745348
 10
9.18755121556095
 20
16.41295917873168
 10
9.376085268943331
 20
16.37285020642423
 10
9.570128870158308
 20
16.33091234761876
 10
9.769473033088259
 20
16.286674574286124
 10
9.973865497538542
 20
16.239635145651864
 10
10.183012608930474
 20
16.189264743192716
 10
10.39658025287781
 20
16.1350103318439
 10
10.614193859759554
 20
16.07629976862631
 10
10.83543754038148
 20
16.012547233191757
 10
11.059852467136556
 20
15.94315960184545
 10
11.286934681368898
 20
15.867543920829835
 10
11.516132590295936
 20
15.785116147902098
 10
11.746844515512931
 20
15.695311313824064
 10
11.978416764114234
 20
15.59759519686488
 10
12.210142800312513
 20
15.491477494479172
 10
12.44126418004251
 20
15.376526311883438
 10
12.670973946589761
 20
15.252383570562847
 10
12.898423141608653
 20
15.118780686682987
 10
13.122730935872324
 20
14.975553611437384
 10
13.342998612804747
 20
14.82265610920643
 10
13.558327252494934
 20
14.660170031177241
 10
13.767838501154657
 20
14.488311375603946
 10
13.970697337485483
 20
14.30743114649259
 10
14.16613535027425
 20
14.11801043090705
 10
14.353472808911501
 20
13.920649667958156
 10
14.53213780496219
 20
13.716052695316574
 10
14.701680987697252
 20
13.505006723263596
 10
14.861784873969796
 20
13.28835979683146
 10
15.01226729964559
 20
13.066997490462077
 10
15.153079187250881
 20
12.84182051492295
 10
15.284297327757944
 20
12.613724635063342
 10
15.406113238170176
 20
12.383583872128767
 10
15.518819328747645
 20
12.152237485915323
 10
15.62279360497417
 20
11.920480783498844
 10
15.718483981267838
 20
11.689059442226474
 10
15.806393051785289
 20
11.458666794032307
 10
15.887063903114225
 20
11.229943396752033
 10
15.961067307367314
 20
11.003478197043817
 10
16.02899042963493
 20
10.779810640122937
 10
16.091427033286276
 20
10.559433173968532
 10
16.1489690709819
 20
10.34279370463416
 10
16.20219950197932
 20
10.130297666603244
 10
16.2516861675376
 20
9.922309467090761
 10
16.297976575573244
 20
9.719153141612923
 10
16.34159348385151
 20
9.52111212076883
 10
16.383031220184098
 20
9.328428059073186
 10
16.42275273205127
 20
9.14129872184976
 10
16.46118741131024
 20
8.95987497239643
 10
16.498729786785585
 20
8.784256955307022
 10
16.535739212504478
 20
8.614489638010667
 10
16.572540695034153
 20
8.45055795360933
 10
16.609426991816648
 20
8.292381882184714
 10
16.64666206570005
 20
8.139811907596721
 10
16.684485893235
 20
7.992625378606094
 10
16.723120494875047
 20
7.850524366816915
 10
16.762776891306967
 20
7.713135625155563
 10
16.803662509830133
 20
7.580013185488295
 10
16.845988397303273
 20
7.45064397595254
 10
16.88997547903479
 20
7.324456586288572
 10
16.935859074072113
 20
7.200832983139984
 10
16.983890964493355
 20
7.079122620330112
 10
17.03433852622435
 20
6.958658062349382
 10
17.087480740172925
 20
6.838771007824503
 10
17.14360126650235
 20
6.718807515545983
 10
17.20297911612559
 20
6.598141321642719
 10
17.26587772640331
 20
6.476184378565061
 10
17.33253339467182
 20
6.352394096755989
 10
17.403144025514198
 20
6.226277160227921
 10
17.477859019667864
 20
6.097390148352252
 10
17.55677091298115
 20
5.965337474319171
 10
17.639909113258657
 20
5.829767317866684
 10
17.727235829218554
 20
5.690366284635633
 10
17.81864407482436
 20
5.546853486137461
 10
17.91395748305553
 20
5.3989746331803845
 10
18.0129315792862
 20
5.246496603850603
 10
18.115256138143828
 20
5.0892028120750155
 10
18.220558265413416
 20
4.926889583496871
 10
18.328405893414946
 20
4.759363652323837
 10
18.438311441455035
 20
4.586440829097947
 10
18.549735463119625
 20
4.407945852860548
 10
18.66209017383399
 20
4.223713426522638
 10
18.77474282301637
 20
4.033590434184324
 10
18.88701894525916
 20
3.8374393455869242
 10
18.998205595238844
 20
3.6351428173276643
 10
19.10755474212816
 20
3.426609494230598
 10
19.214287070204712
 20
3.2117809887174356
 10
19.31759649933972
 20
2.990639963135918
 10
19.416655794500848
 20
2.763219153467154
 10
19.51062366537378
 20
2.5296110498394
 10
19.598653749848857
 20
2.2899777929729943
 10
19.679905810548853
 20
2.044560667898841
 10
19.753559335622686
 20
1.793688399715427
 10
19.81882951486178
 20
1.5377833146685411
 10
19.87498526501851
 20
1.2773643656178115
 10
19.921368629198597
 20
1.0130460771148662
 10
19.957414521884775
 20
0.74553267440119
 10
19.98266949930332
 20
0.475607031039904
 10
19.996808076408076
 20
0.2041145746663328
 10
19.999645146128756
 20
-0.06805713624064923
 10
19.991143310326628
 20
-0.3400019054536489
 10
19.971414384715615
 20
-0.6108197889516127
 10
19.940714923190622
 20
-0.8796415136538377
 10
19.899436218130177
 20
-1.1456506231154147
 10
19.848089762445525
 20
-1.4081018614063692
 10
19.78728951817634
 20
-1.6663347991012165
 10
19.71773247992178
 20
-1.919782278290179
 10
19.64017895354266
 20
-2.1679738030727544
 10
19.555433736731253
 20
-2.4105344454229654
 10
19.46432905648113
 20
-2.647180127022045
 10
19.367709760059213
 20
-2.877710267401149
 10
19.266420928438748
 20
-3.101998779667516
 10
19.161297820692308
 20
-3.3199842866808726
 10
19.053157879171035
 20
-3.5316602666475045
 10
18.942794425749007
 20
-3.737065656360102
 10
18.83097164568705
 20
-3.9362762711487993
 10
18.71842047014918
 20
-4.129397260086863
 10
18.60583501387646
 20
-4.316556710271526
 10
18.493869286961434
 20
-4.497900444910147
 10
18.38313396931367
 20
-4.673588021653471
 10
18.274193107672275
 20
-4.843789922783716
 10
18.1675606656807
 20
-5.0086859290609285
 10
18.06369692759605
 20
-5.168464675552427
 10
17.963004826621543
 20
-5.323324392000465
 10
17.86582634024592
 20
-5.4734748238905695
 10
17.77243916635043
 20
-5.619140305631485
 10
17.683053961434084
 20
-5.760563907678091
 10
17.59781247873107
 20
-5.898012501024386
 10
17.516786978057155
 20
-6.0317824755054055
 10
17.43998127679102
 20
-6.1622057193338025
 10
17.367333757755876
 20
-6.289655330948696
 10
17.298722533604074
 20
-6.414550413976655
 10
17.23397278588659
 20
-6.537359232246829
 10
17.17286606124516
 20
-6.6586000066591104
 10
17.115151044665648
 20
-6.77883874533357
 10
17.060555083257427
 20
-6.898683722881742
 10
17.008795554353405
 20
-7.018776549498613
 10
16.959590105285955
 20
-7.139780154313471
 10
16.912664866842473
 20
-7.2623643867552214
 10
16.867759956481798
 20
-7.387190243492653
 10
16.824631906944624
 20
-7.51489389664733
 10
16.783053022170737
 20
-7.646071699273573
 10
16.742808007557436
 20
-7.781267181282231
 10
16.703688486697395
 20
-7.920960762126047
 10
16.6654861661024
 20
-8.065562556443492
 10
16.627985436140076
 20
-8.215408300476374
 10
16.590956118991855
 20
-8.370758133756834
 10
16.554146927239117
 20
-8.531797764329953
 10
16.5172800185406
 20
-8.698641435510337
 10
16.480046856766847
 20
-8.871336087936934
 10
16.442105441741834
 20
-9.049866151282284
 10
16.403078860882935
 20
-9.234158480561211
 10
16.362555049359546
 20
-9.424087049957295
 10
16.32008761717387
 20
-9.619477115362699
 10
16.275197604659425
 20
-9.82010864491943
 10
16.227376054178944
 20
-10.025718890377236
 10
16.176087327672686
 20
-10.23600403151554
 10
16.120773150599124
 20
-10.450619875070338
 10
16.060857417066607
 20
-10.669181634443376
 10
15.99575184323872
 20
-10.891262863680648
 10
15.92486260062178
 20
-11.11639367530682
 10
15.847598090651715
 20
-11.34405844178652
 10
15.763378028539055
 20
-11.57369326725086
 10
15.671643977617476
 20
-11.804683618158432
 10
15.57187140508829
 20
-12.036362611493956
 10
15.463583207466797
 20
-12.268010562570192
 10
15.34636447580491
 20
-12.498856469566043
 10
15.219878042916651
 20
-12.728082130524395
 10
15.08388009696678
 20
-12.954829520507822
 10
14.938234893396007
 20
-13.178211876969664
 10
14.782927400064606
 20
-13.397328639851942
 10
14.618072625589699
 20
-13.61128398355512
 10
14.443920458941271
 20
-13.819208205204802
 10
14.260855117488742
 20
-14.020280770627895
 10
14.069388751050564
 20
-14.213753455659445
 10
13.870149326603181
 20
-14.398971840453214
 10
13.663863529485987
 20
-14.575393473284912
 10
13.45133595174929
 20
-14.742601323753494
 10
13.233426197230377
 20
-14.90031164437558
 10
13.011025654534194
 20
-15.048375962100096
 10
12.785035565356527
 20
-15.186777516716976
 10
12.55634769056795
 20
-15.315622952006429
 10
12.325828429649766
 20
-15.435130382547705
 10
12.094306770997958
 20
-15.545615083587352
 10
11.86256602001507
 20
-15.647474003040145
 10
11.631338920957702
 20
-15.741170120289437
 10
11.40130557855536
 20
-15.827217432771867
 10
11.173093491431011
 20
-15.906167090882112
 10
10.947279009061475
 20
-15.978594963939639
 10
10.724389587770684
 20
-16.045090728292536
 10
10.504906319950257
 20
-16.10624843216306
 10
10.289266320663634
 20
-16.162658409098288
 10
10.077864660736166
 20
-16.214900375216487
 10
9.87105562643075
 20
-16.263537544645224
 10
9.669153160053717
 20
-16.309111622405585
 10
9.47243039504682
 20
-16.352138575553727
 10
9.281118247974476
 20
-16.393105134313178
 10
9.095403074604517
 20
-16.43246602919882
 10
8.915423444781554
 20
-16.47064202237165
 10
8.74126614720221
 20
-16.508018836160975
 10
8.572961605003545
 20
-16.54494711254855
 10
8.410478967723783
 20
-16.581743547057798
 10
8.253721241653384
 20
-16.61869332084438
 10
8.10252091999107
 20
-16.65605389826042
 10
7.9566366610954224
 20
-16.694060158900704
 10
7.815751616035893
 20
-16.732930694015142
 10
7.679474000870733
 20
-16.772874927011387
 10
7.547340421830303
 20
-16.814100537542796
 10
7.4188222793584675
 20
-16.85682051015606
 10
7.293335303344723
 20
-16.901259030022743
 10
7.170251932992456
 20
-16.947655446417066
 10
7.048915899209529
 20
-16.99626564284393
 10
6.928658058561855
 20
-17.047360391136845
 10
6.808812329215267
 20
-17.10122059676303
 10
6.68873053689053
 20
-17.15812970987555
 10
6.567795106676757
 20
-17.21836391406159
 10
6.445428811231769
 20
-17.282180949539306
 10
6.321101152906902
 20
-17.349808538508956
 10
6.194331346500928
 20
-17.42143334759946
 10
6.064688213836608
 20
-17.49719126712412
 10
5.93178755329312
 20
-17.57715955225484
 10
5.795287685651269
 20
-17.66135110823888
 10
5.654883906673012
 20
-17.749710956104195
 10
5.510302519712878
 20
-17.842114718647192
 10
5.361295009952881
 20
-17.938368833821112
 10
5.207632787003242
 20
-18.03821213419121
 10
5.049102790042813
 20
-18.141318417216365
 10
4.885504136271406
 20
-18.24729965745718
 10
4.716645907662875
 20
-18.355709563832683
 10
4.542346114465186
 20
-18.466047250690604
 10
4.362431843470054
 20
-18.577760862369576
 10
4.176740588783626
 20
-18.690251062505702
 10
3.985122765168949
 20
-18.80287436998108
 10
3.787445410779807
 20
-18.914946393459243
 10
3.5835970886991433
 20
-19.025745086901768
 10
3.373493986428853
 20
-19.134514219674315
 10
3.157087180802936
 20
-19.240467325277873
 10
2.934370974988749
 20
-19.342792457724663
 10
2.7053921186669796
 20
-19.440658135447528
 10
2.4702595905714837
 20
-19.533220876380284
 10
2.229154459392797
 20
-19.6196347078746
 10
1.9823391589894304
 20
-19.69906295354156
 10
1.7301653424658934
 20
-19.77069244099738
 10
1.473079353359794
 20
-19.833750033888943
 10
1.2116243142019008
 20
-19.887521078206778
 10
0.9464379247641308
 20
-19.931368997510774
 10
0.6782453121674306
 20
-19.964754927070906
 10
0.4078466830839452
 20
-19.987256011822197
 10
0.13610005778803108
 20
-19.99858087818169
 10
-0.1361000577880244
 20
-19.99858087818169
 10
-0.4078466830839385
 20
-19.987256011822197
 10
-0.6782453121674239
 20
-19.964754927070906
 10
-0.9464379247641241
 20
-19.931368997510774
 10
-1.2116243142018948
 20
-19.887521078206778
 10
-1.4730793533597872
 20
-19.833750033888947
 10
-1.730165342465876
 20
-19.770692440997383
 10
-1.9823391589894137
 20
-19.699062953541567
 10
-2.229154459392781
 20
-19.619634707874603
 10
-2.4702595905714775
 20
-19.533220876380284
 10
-2.705392118666974
 20
-19.440658135447528
 10
-2.9343709749887443
 20
-19.342792457724666
 10
-3.1570871808029315
 20
-19.240467325277876
 10
-3.3734939864288482
 20
-19.134514219674323
 10
-3.5835970886991384
 20
-19.02574508690177
 10
-3.7874454107798026
 20
-18.914946393459243
 10
-3.985122765168945
 20
-18.802874369981083
 10
-4.1767405887836215
 20
-18.690251062505702
 10
-4.362431843470049
 20
-18.577760862369576
 10
-4.5423461144651816
 20
-18.466047250690607
 10
-4.716645907662872
 20
-18.35570956383269
 10
-4.885504136271394
 20
-18.247299657457184
 10
-5.049102790042802
 20
-18.14131841721637
 10
-5.207632787003231
 20
-18.038212134191216
 10
-5.361295009952878
 20
-17.938368833821116
 10
-5.510302519712874
 20
-17.842114718647192
 10
-5.654883906673008
 20
-17.749710956104195
 10
-5.795287685651266
 20
-17.661351108238883
 10
-5.931787553293116
 20
-17.57715955225484
 10
-6.064688213836606
 20
-17.49719126712412
 10
-6.194331346500926
 20
-17.42143334759946
 10
-6.321101152906898
 20
-17.34980853850896
 10
-6.445428811231764
 20
-17.282180949539306
 10
-6.567795106676753
 20
-17.21836391406159
 10
-6.688730536890526
 20
-17.158129709875553
 10
-6.808812329215264
 20
-17.101220596763035
 10
-6.928658058561846
 20
-17.04736039113685
 10
-7.048915899209521
 20
-16.996265642843934
 10
-7.170251932992446
 20
-16.94765544641707
 10
-7.29333530334472
 20
-16.901259030022743
 10
-7.418822279358464
 20
-16.856820510156062
 10
-7.547340421830301
 20
-16.814100537542796
 10
-7.679474000870729
 20
-16.772874927011387
 10
-7.8157516160358895
 20
-16.732930694015142
 10
-7.956636661095418
 20
-16.694060158900704
 10
-8.102520919991065
 20
-16.65605389826042
 10
-8.25372124165338
 20
-16.61869332084438
 10
-8.410478967723778
 20
-16.581743547057798
 10
-8.57296160500354
 20
-16.54494711254855
 10
-8.741266147202206
 20
-16.50801883616097
 10
-8.91542344478155
 20
-16.47064202237165
 10
-9.095403074604505
 20
-16.432466029198828
 10
-9.281118247974463
 20
-16.39310513431318
 10
-9.472430395046809
 20
-16.35213857555373
 10
-9.669153160053712
 20
-16.309111622405585
 10
-9.871055626430746
 20
-16.263537544645228
 10
-10.077864660736163
 20
-16.21490037521649
 10
-10.289266320663629
 20
-16.162658409098288
 10
-10.504906319950251
 20
-16.106248432163063
 10
-10.724389587770677
 20
-16.04509072829254
 10
-10.947279009061468
 20
-15.978594963939639
 10
-11.173093491431004
 20
-15.90616709088211
 10
-11.401305578555355
 20
-15.827217432771867
 10
-11.631338920957695
 20
-15.741170120289436
 10
-11.86256602001506
 20
-15.647474003040147
 10
-12.094306770997953
 20
-15.545615083587354
 10
-12.32582842964975
 20
-15.435130382547714
 10
-12.556347690567934
 20
-15.315622952006436
 10
-12.78503556535651
 20
-15.186777516716983
 10
-13.011025654534189
 20
-15.0483759621001
 10
-13.23342619723037
 20
-14.900311644375586
 10
-13.451335951749282
 20
-14.742601323753492
 10
-13.663863529485983
 20
-14.575393473284915
 10
-13.870149326603178
 20
-14.398971840453218
 10
-14.069388751050559
 20
-14.213753455659448
 10
-14.260855117488736
 20
-14.0202807706279
 10
-14.44392045894127
 20
-13.81920820520481
 10
-14.618072625589695
 20
-13.611283983555126
 10
-14.782927400064606
 20
-13.397328639851949
 10
-14.938234893396004
 20
-13.17821187696967
 10
-15.083880096966775
 20
-12.954829520507829
 10
-15.219878042916642
 20
-12.728082130524408
 10
-15.346364475804906
 20
-12.49885646956605
 10
-15.463583207466794
 20
-12.268010562570197
 10
-15.571871405088286
 20
-12.03636261149396
 10
-15.671643977617475
 20
-11.804683618158434
 10
-15.763378028539055
 20
-11.573693267250867
 10
-15.847598090651712
 20
-11.344058441786526
 10
-15.924862600621779
 20
-11.116393675306824
 10
-15.995751843238716
 20
-10.891262863680652
 10
-16.06085741706661
 20
-10.66918163444338
 10
-16.120773150599124
 20
-10.450619875070347
 10
-16.176087327672683
 20
-10.236004031515543
 10
-16.227376054178947
 20
-10.025718890377242
 10
-16.275197604659425
 20
-9.820108644919436
 10
-16.32008761717387
 20
-9.619477115362704
 10
-16.362555049359543
 20
-9.424087049957308
 10
-16.403078860882932
 20
-9.234158480561225
 10
-16.44210544174183
 20
-9.049866151282295
 10
-16.480046856766847
 20
-8.871336087936946
 10
-16.517280018540596
 20
-8.69864143551035
 10
-16.554146927239113
 20
-8.531797764329964
 10
-16.590956118991855
 20
-8.370758133756844
 10
-16.627985436140072
 20
-8.215408300476383
 10
-16.665486166102397
 20
-8.065562556443501
 10
-16.703688486697395
 20
-7.920960762126056
 10
-16.742808007557436
 20
-7.7812671812822405
 10
-16.783053022170737
 20
-7.6460716992735716
 10
-16.824631906944624
 20
-7.514893896647327
 10
-16.867759956481798
 20
-7.387190243492654
 10
-16.912664866842473
 20
-7.2623643867552214
 10
-16.959590105285955
 20
-7.139780154313471
 10
-17.008795554353405
 20
-7.018776549498613
 10
-17.060555083257427
 20
-6.898683722881742
 10
-17.115151044665648
 20
-6.77883874533357
 10
-17.17286606124516
 20
-6.658600006659114
 10
-17.23397278588659
 20
-6.537359232246833
 10
-17.298722533604074
 20
-6.414550413976658
 10
-17.367333757755873
 20
-6.289655330948698
 10
-17.439981276791016
 20
-6.162205719333807
 10
-17.516786978057148
 20
-6.031782475505409
 10
-17.597812478731065
 20
-5.898012501024389
 10
-17.683053961434084
 20
-5.760563907678094
 10
-17.772439166350424
 20
-5.6191403056314915
 10
-17.865826340245913
 20
-5.473474823890577
 10
-17.963004826621535
 20
-5.323324392000471
 10
-18.063696927596045
 20
-5.168464675552432
 10
-18.167560665680696
 20
-5.008685929060936
 10
-18.27419310767227
 20
-4.8437899227837224
 10
-18.38313396931366
 20
-4.673588021653479
 10
-18.493869286961427
 20
-4.497900444910158
 10
-18.60583501387645
 20
-4.316556710271539
 10
-18.718420470149177
 20
-4.129397260086876
 10
-18.830971645687043
 20
-3.9362762711488113
 10
-18.942794425749
 20
-3.737065656360115
 10
-19.053157879171025
 20
-3.5316602666475183
 10
-19.161297820692297
 20
-3.319984286680887
 10
-19.266420928438748
 20
-3.1019987796675106
 10
-19.367709760059213
 20
-2.8777102674011497
 10
-19.46432905648113
 20
-2.647180127022046
 10
-19.555433736731253
 20
-2.410534445422966
 10
-19.64017895354266
 20
-2.1679738030727553
 10
-19.71773247992178
 20
-1.9197822782901794
 10
-19.78728951817634
 20
-1.6663347991012167
 10
-19.848089762445525
 20
-1.4081018614063694
 10
-19.899436218130177
 20
-1.1456506231154209
 10
-19.94071492319062
 20
-0.8796415136538434
 10
-19.971414384715615
 20
-0.6108197889516185
 10
-19.991143310326628
 20
-0.34000190545365555
 10
-19.999645146128756
 20
-0.06805713624065635
 10
-19.996808076408076
 20
0.204114574666327
 10
-19.98266949930332
 20
0.4756070310398969
 10
-19.957414521884775
 20
0.7455326744011836
 10
-19.921368629198597
 20
1.013046077114854
 10
-19.87498526501851
 20
1.2773643656177993
 10
-19.818829514861783
 20
1.5377833146685298
 10
-19.75355933562269
 20
1.7936883997154163
 10
-19.679905810548856
 20
2.0445606678988293
 10
-19.59865374984886
 20
2.2899777929729845
 10
-19.510623665373785
 20
2.529611049839389
 10
-19.41665579450085
 20
2.7632191534671398
 10
-19.31759649933973
 20
2.990639963135903
 10
-19.214287070204715
 20
3.211780988717421
 10
-19.10755474212817
 20
3.4266094942305836
 10
-18.998205595238854
 20
3.6351428173276514
 10
-18.887018945259168
 20
3.8374393455869114
 10
-18.77474282301638
 20
4.033590434184312
 10
-18.66209017383399
 20
4.223713426522643
 10
-18.549735463119625
 20
4.407945852860549
 10
-18.438311441455035
 20
4.5864408290979455
 10
-18.328405893414946
 20
4.759363652323836
 10
-18.220558265413416
 20
4.926889583496871
 10
-18.115256138143828
 20
5.089202812075015
 10
-18.0129315792862
 20
5.246496603850602
 10
-17.91395748305553
 20
5.398974633180384
 10
-17.818644074824363
 20
5.54685348613746
 10
-17.727235829218557
 20
5.6903662846356315
 10
-17.63990911325866
 20
5.829767317866678
 10
-17.556770912981154
 20
5.96533747431917
 10
-17.477859019667864
 20
6.097390148352248
 10
-17.403144025514198
 20
6.2262771602279186
 10
-17.332533394671824
 20
6.352394096755986
 10
-17.26587772640331
 20
6.476184378565058
 10
-17.202979116125594
 20
6.5981413216427125
 10
-17.143601266502355
 20
6.718807515545977
 10
-17.08748074017293
 20
6.838771007824497
 10
-17.034338526224353
 20
6.958658062349377
 10
-16.983890964493355
 20
7.079122620330107
 10
-16.935859074072113
 20
7.200832983139979
 10
-16.88997547903479
 20
7.324456586288566
 10
-16.845988397303277
 20
7.4506439759525325
 10
-16.803662509830136
 20
7.580013185488287
 10
-16.76277689130697
 20
7.713135625155555
 10
-16.72312049487505
 20
7.850524366816907
 10
-16.684485893235003
 20
7.992625378606086
 10
-16.64666206570005
 20
8.13981190759671
 10
-16.60942699181665
 20
8.292381882184701
 10
-16.57254069503415
 20
8.450557953609332
 10
-16.535739212504478
 20
8.614489638010667
 10
-16.498729786785585
 20
8.784256955307022
 10
-16.461187411310238
 20
8.959874972396427
 10
-16.42275273205127
 20
9.141298721849758
 10
-16.383031220184098
 20
9.328428059073184
 10
-16.341593483851508
 20
9.521112120768832
 10
-16.297976575573244
 20
9.719153141612917
 10
-16.2516861675376
 20
9.92230946709076
 10
-16.20219950197932
 20
10.13029766660324
 10
-16.1489690709819
 20
10.342793704634154
 10
-16.09142703328628
 20
10.559433173968527
 10
-16.02899042963493
 20
10.779810640122934
 10
-15.961067307367315
 20
11.00347819704381
 10
-15.887063903114228
 20
11.229943396752025
 10
-15.806393051785294
 20
11.458666794032304
 10
-15.71848398126784
 20
11.689059442226464
 10
-15.622793604974172
 20
11.920480783498833
 10
-15.518819328747648
 20
12.152237485915311
 10
-15.406113238170182
 20
12.383583872128755
 10
-15.284297327757947
 20
12.613724635063331
 10
-15.153079187250887
 20
12.841820514922938
 10
-15.012267299645597
 20
13.066997490462064
 10
-14.861784873969802
 20
13.288359796831447
 10
-14.701680987697259
 20
13.505006723263582
 10
-14.5321378049622
 20
13.71605269531656
 10
-14.353472808911512
 20
13.920649667958141
 10
-14.166135350274262
 20
14.118010430907038
 10
-13.970697337485499
 20
14.307431146492581
 10
-13.767838501154671
 20
14.488311375603931
 10
-13.55832725249495
 20
14.660170031177227
 10
-13.342998612804745
 20
14.82265610920643
 10
-13.122730935872324
 20
14.975553611437384
 10
-12.898423141608653
 20
15.118780686682987
 10
-12.670973946589761
 20
15.252383570562847
 10
-12.44126418004251
 20
15.376526311883438
 10
-12.210142800312513
 20
15.491477494479172
 10
-11.978416764114238
 20
15.59759519686488
 10
-11.746844515512938
 20
15.695311313824066
 10
-11.516132590295937
 20
15.785116147902096
 10
-11.286934681368903
 20
15.867543920829833
 10
-11.059852467136563
 20
15.943159601845448
 10
-10.835437540381484
 20
16.012547233191754
 10
-10.614193859759558
 20
16.07629976862631
 10
-10.396580252877817
 20
16.1350103318439
 10
-10.183012608930483
 20
16.189264743192716
 10
-9.973865497538547
 20
16.23963514565186
 10
-9.769473033088264
 20
16.286674574286124
 10
-9.570128870158317
 20
16.330912347618757
 10
-9.37608526894334
 20
16.37285020642423
 10
-9.187551215560957
 20
16.412959178731676
 10
-9.004689627438538
 20
16.451677203745344
 10
-8.827613725235373
 20
16.48940759658183
 10
-8.656382715458031
 20
16.526518474355587
 10
-8.490997005215542
 20
16.563343285380856
 10
-8.331393261830979
 20
16.60018257927849
 10
-8.177439729468961
 20
16.637307118531666
 10
-8.028932310416305
 20
16.674962354966908
 10
-7.885591991525643
 20
16.713374175344022
 10
-7.747064223021599
 20
16.7527556637017
 10
-7.612920812813177
 20
16.793314449566044
 10
-7.4826647655099725
 20
16.83526003722029
 10
-7.355738265638083
 20
16.87881037782662
 10
-7.231533693541525
 20
16.92419689200903
 10
-7.109407207960248
 20
16.971667207015365
 10
-6.988694088735914
 20
17.021485052658832
 10
-6.8687247721133
 20
17.07392704977001
 10
-6.748840386592368
 20
17.129276481466253
 10
-6.628406640588807
 20
17.187814498465062
 10
-6.506825119558281
 20
17.249809507611403
 10
-6.3835413793186975
 20
17.315505673979843
 10
-6.258049609391498
 20
17.385111505167554
 10
-6.129894014467656
 20
17.458789388078262
 10
-5.998667364707176
 20
17.536646747358617
 10
-5.864007361585973
 20
17.61872923954163
 10
-5.725591547707976
 20
17.705016137647966
 10
-5.583131471327972
 20
17.795417836914556
 10
-5.436366727798319
 20
17.889775246798106
 10
-5.285059373224489
 20
17.98786073455393
 10
-5.128989069238038
 20
18.089380246128485
 10
-4.967949193252538
 20
18.193976238209224
 10
-4.80174404839345
 20
18.301231096166227
 10
-4.630187236272446
 20
18.410670772740424
 10
-4.453101212901488
 20
18.521768451411173
 10
-4.270318028552321
 20
18.633948109984495
 10
-4.081681249386493
 20
18.74658793110305
 10
-3.887049064279781
 20
18.859023576611893
 10
-3.6862985860198814
 20
18.9705514128465
 10
-3.479331353308186
 20
19.080431844786123
 10
-3.266080020064634
 20
19.187892988198513
 10
-3.0465161731663266
 20
19.292134977424315
 10
-2.8206591420646934
 20
19.392335265732967
 10
-2.5885855498306007
 20
19.48765531437489
 10
-2.350439206476099
 20
19.577249070574233
 10
-2.1064407713124527
 20
19.660273586104925
 10
-1.8568964314651757
 20
19.735902009712614
 10
-1.6022046896935547
 20
19.80333898720742
 10
-1.3428602669528777
 20
19.861838223625902
 10
-1.0794541475107722
 20
19.91072162221707
 10
-0.8126689633224918
 20
19.949399057171682
 10
-0.5432692454542151
 20
19.977387523016958
 10
-0.27208654621569484
 20
19.994328205392623
 10
-6.6749440359896635e-15
 20
20.0
  0
CIRCLE
  5
31
330
17
100
AcDbEntity
  8
0
100
AcDbCircle
 10
0.0
 20
0.0
 30
0.0
 40
18.08
  0
CIRCLE
  5
32
330
17
100
AcDbEntity
  8
0
100
AcDbCircle
 10
0.0
 20
0.0
 30
0.0
 40
16.32
  0
POINT
  5
33
330
17
100
AcDbEntity
  8
0
100
AcDbPoint
 10
0.0
 20
0.8
 30
0.0
  0
LWPOLYLINE
  5
34
330
17
100
AcDbEntity
  8
0
100
AcDbPolyline
 90
2
 70
0
 10
0.0
 20
0.0
 10
0.0
 20
0.8
  0
LWPOLYLINE
  5
35
330
17
100
AcDbEntity
  8
0
100
AcDbPolyline
 90
2
 70
0
 10
-6.0
 20
0.0
 10
6.0
 20
0.0
  0
LWPOLYLINE
  5
36
330
17
100
AcDbEntity
  8
0
100
AcDbPolyline
 90
2
 70
0
 10
-3.0
 20
0.8
 10
3.0
 20
0.8
  0
CIRCLE
  5
37
330
17
100
AcDbEntity
  8
0
100
AcDbCircle
 10
0.0
 20
0.8
 30
0.0
 40
15.2
  0
CIRCLE
  5
38
330
17
100
AcDbEntity
  8
0
100
AcDbCircle
 10
0.0
 20
0.0
 30
0.0
 40
25.0
  0
ENDSEC
  0
SECTION
  2
OBJECTS
  0
DICTIONARY
  5
A
330
0
100
AcDbDictionary
281
1
  3
ACAD_COLOR
350
B
  3
ACAD_GROUP
350
C
  3
ACAD_LAYOUT
350
D
  3
ACAD_MATERIAL
350
E
  3
ACAD_MLEADERSTYLE
350
F
  3
ACAD_MLINESTYLE
350
10
  3
ACAD_PLOTSETTINGS
350
11
  3
ACAD_PLOTSTYLENAME
350
12
  3
ACAD_SCALELIST
350
14
  3
ACAD_TABLESTYLE
350
15
  3
ACAD_VISUALSTYLE
350
16
  3
EZDXF_META
350
2D
  0
DICTIONARY
  5
B
330
A
100
AcDbDictionary
281
1
  0
DICTIONARY
  5
C
330
A
100
AcDbDictionary
281
1
  0
DICTIONARY
  5
D
330
A
100
AcDbDictionary
281
1
  3
Model
350
1A
  3
Layout1
350
1E
  0
DICTIONARY
  5
E
330
A
100
AcDbDictionary
281
1
  3
ByBlock
350
1F
  3
ByLayer
350
20
  3
Global
350
21
  0
DICTIONARY
  5
F
330
A
100
AcDbDictionary
281
1
  3
Standard
350
2C
  0
DICTIONARY
  5
10
330
A
100
AcDbDictionary
281
1
  3
Standard
350
22
  0
DICTIONARY
  5
11
330
A
100
AcDbDictionary
281
1
  0
ACDBDICTIONARYWDFLT
  5
12
330
A
100
AcDbDictionary
281
1
  3
Normal
350
13
100
AcDbDictionaryWithDefault
340
13
  0
ACDBPLACEHOLDER
  5
13
330
12
  0
DICTIONARY
  5
14
330
A
100
AcDbDictionary
281
1
  0
DICTIONARY
  5
15
330
A
100
AcDbDictionary
281
1
  0
DICTIONARY
  5
16
330
A
100
AcDbDictionary
281
1
  0
LAYOUT
  5
1A
330
D
100
AcDbPlotSettings
  1

  4
A3
  6

 40
7.5
 41
20.0
 42
7.5
 43
20.0
 44
420.0
 45
297.0
 46
0.0
 47
0.0
 48
0.0
 49
0.0
140
0.0
141
0.0
142
1.0
143
1.0
 70
1024
 72
1
 73
0
 74
5
  7

 75
16
 76
0
 77
2
 78
300
147
1.0
148
0.0
149
0.0
100
AcDbLayout
  1
Model
 70
1
 71
0
 10
0.0
 20
0.0
 11
420.0
 21
297.0
 12
0.0
 22
0.0
 32
0.0
 14
1e+20
 24
1e+20
 34
1e+20
 15
-1e+20
 25
-1e+20
 35
-1e+20
146
0.0
 13
0.0
 23
0.0
 33
0.0
 16
1.0
 26
0.0
 36
0.0
 17
0.0
 27
1.0
 37
0.0
 76
1
330
17
  0
LAYOUT
  5
1E
330
D
100
AcDbPlotSettings
  1

  4
A3
  6

 40
7.5
 41
20.0
 42
7.5
 43
20.0
 44
420.0
 45
297.0
 46
0.0
 47
0.0
 48
0.0
 49
0.0
140
0.0
141
0.0
142
1.0
143
1.0
 70
0
 72
1
 73
0
 74
5
  7

 75
16
 76
0
 77
2
 78
300
147
1.0
148
0.0
149
0.0
100
AcDbLayout
  1
Layout1
 70
1
 71
1
 10
0.0
 20
0.0
 11
420.0
 21
297.0
 12
0.0
 22
0.0
 32
0.0
 14
1e+20
 24
1e+20
 34
1e+20
 15
-1e+20
 25
-1e+20
 35
-1e+20
146
0.0
 13
0.0
 23
0.0
 33
0.0
 16
1.0
 26
0.0
 36
0.0
 17
0.0
 27
1.0
 37
0.0
 76
1
330
1B
  0
MATERIAL
  5
1F
102
{ACAD_REACTORS
330
E
102
}
330
E
100
AcDbMaterial
  1
ByBlock
  2

 70
0
 40
1.0
 71
1
 41
1.0
 91
-1023410177
 42
1.0
 72
1
  3

 73
1
 74
1
 75
1
 44
0.5
 73
0
 45
1.0
 46
1.0
 77
1
  4

 78
1
 79
1
170
1
 48
1.0
171
1
  6

172
1
173
1
174
1
140
1.0
141
1.0
175
1
  7

176
1
177
1
178
1
143
1.0
179
1
  8

270
1
271
1
272
1
145
1.0
146
1.0
273
1
  9

274
1
275
1
276
1
 42
1.0
 72
1
  3

 73
1
 74
1
 75
1
 94
63
  0
MATERIAL
  5
20
102
{ACAD_REACTORS
330
E
102
}
330
E
100
AcDbMaterial
  1
ByLayer
  2

 70
0
 40
1.0
 71
1
 41
1.0
 91
-1023410177
 42
1.0
 72
1
  3

 73
1
 74
1
 75
1
 44
0.5
 73
0
 45
1.0
 46
1.0
 77
1
  4

 78
1
 79
1
170
1
 48
1.0
171
1
  6

172
1
173
1
174
1
140
1.0
141
1.0
175
1
  7

176
1
177
1
178
1
143
1.0
179
1
  8

270
1
271
1
272
1
145
1.0
146
1.0
273
1
  9

274
1
275
1
276
1
 42
1.0
 72
1
  3

 73
1
 74
1
 75
1
 94
63
  0
MATERIAL
  5
21
102
{ACAD_REACTORS
330
E
102
}
330
E
100
AcDbMaterial
  1
Global
  2

 70
0
 40
1.0
 71
1
 41
1.0
 91
-1023410177
 42
1.0
 72
1
  3

 73
1
 74
1
 75
1
 44
0.5
 73
0
 45
1.0
 46
1.0
 77
1
  4

 78
1
 79
1
170
1
 48
1.0
171
1
  6

172
1
173
1
174
1
140
1.0
141
1.0
175
1
  7

176
1
177
1
178
1
143
1.0
179
1
  8

270
1
271
1
272
1
145
1.0
146
1.0
273
1
  9

274
1
275
1
276
1
 42
1.0
 72
1
  3

 73
1
 74
1
 75
1
 94
63
  0
MLINESTYLE
  5
22
102
{ACAD_REACTORS
330
10
102
}
330
10
100
AcDbMlineStyle
  2
Standard
 70
0
  3

 62
256
 51
90.0
 52
90.0
 71
2
 49
0.5
 62
256
  6
BYLAYER
 49
-0.5
 62
256
  6
BYLAYER
  0
MLEADERSTYLE
  5
2C
102
{ACAD_REACTORS
330
F
102
}
330
F
100
AcDbMLeaderStyle
179
2
170
2
171
1
172
0
 90
2
 40
0.0
 41
0.0
173
1
 91
-1056964608
 92
-2
290
1
 42
2.0
291
1
 43
8.0
  3
Standard
 44
4.0
300

342
29
174
1
175
1
176
0
178
1
 93
-1056964608
 45
4.0
292
0
297
0
 46
4.0
 94
-1056964608
 47
1.0
 49
1.0
140
1.0
294
1
141
0.0
177
0
142
1.0
295
0
296
0
143
3.75
271
0
272
9
273
9
  0
DICTIONARY
  5
2D
330
A
100
AcDbDictionary
280
1
281
1
  3
CREATED_BY_EZDXF
350
2E
  3
WRITTEN_BY_EZDXF
350
3B
  0
DICTIONARYVAR
  5
2E
330
2D
100
DictionaryVariables
280
0
  1
1.4.4 @ 2026-08-13T07:35:00.511927+00:00
  0
DICTIONARYVAR
  5
3B
330
2D
100
DictionaryVariables
280
0
  1
1.4.4 @ 2026-08-13T07:35:00.515930+00:00
  0
ENDSEC
  0
EOF
