  0
SECTION
  2
HEADER
  9
$ACADVER
  1
AC1015
  9
$ACADMAINTVER
 70
6
  9
$DWGCODEPAGE
  3
ANSI_1252
  9
$INSBASE
 10
0.0
 20
0.0
 30
0.0
  9
$EXTMIN
 10
1e+20
 20
1e+20
 30
1e+20
  9
$EXTMAX
 10
-1e+20
 20
-1e+20
 30
-1e+20
  9
$LIMMIN
 10
0.0
 20
0.0
  9
$LIMMAX
 10
420.0
 20
297.0
  9
$ORTHOMODE
 70
0
  9
$REGENMODE
 70
1
  9
$FILLMODE
 70
1
  9
$QTEXTMODE
 70
0
  9
$MIRRTEXT
 70
1
  9
$LTSCALE
 40
1.0
  9
$ATTMODE
 70
1
  9
$TEXTSIZE
 40
2.5
  9
$TRACEWID
 40
1.0
  9
$TEXTSTYLE
  7
Standard
  9
$CLAYER
  8
0
  9
$CELTYPE
  6
ByLayer
  9
$CECOLOR
 62
256
  9
$CELTSCALE
 40
1.0
  9
$DISPSILH
 70
0
  9
$DIMSCALE
 40
1.0
  9
$DIMASZ
 40
2.5
  9
$DIMEXO
 40
0.625
  9
$DIMDLI
 40
3.75
  9
$DIMRND
 40
0.0
  9
$DIMDLE
 40
0.0
  9
$DIMEXE
 40
1.25
  9
$DIMTP
 40
0.0
  9
$DIMTM
 40
0.0
  9
$DIMTXT
 40
2.5
  9
$DIMCEN
 40
2.5
  9
$DIMTSZ
 40
0.0
  9
$DIMTOL
 70
0
  9
$DIMLIM
 70
0
  9
$DIMTIH
 70
0
  9
$DIMTOH
 70
0
  9
$DIMSE1
 70
0
  9
$DIMSE2
 70
0
  9
$DIMTAD
 70
1
  9
$DIMZIN
 70
8
  9
$DIMBLK
  1

  9
$DIMASO
 70
1
  9
$DIMSHO
 70
1
  9
$DIMPOST
  1

  9
$DIMAPOST
  1

  9
$DIMALT
 70
0
  9
$DIMALTD
 70
3
  9
$DIMALTF
 40
0.03937007874
  9
$DIMLFAC
 40
1.0
  9
$DIMTOFL
 70
1
  9
$DIMTVP
 40
0.0
  9
$DIMTIX
 70
0
  9
$DIMSOXD
 70
0
  9
$DIMSAH
 70
0
  9
$DIMBLK1
  1

  9
$DIMBLK2
  1

  9
$DIMSTYLE
  2
ISO-25
  9
$DIMCLRD
 70
0
  9
$DIMCLRE
 70
0
  9
$DIMCLRT
 70
0
  9
$DIMTFAC
 40
1.0
  9
$DIMGAP
 40
0.625
  9
$DIMJUST
 70
0
  9
$DIMSD1
 70
0
  9
$DIMSD2
 70
0
  9
$DIMTOLJ
 70
0
  9
$DIMTZIN
 70
8
  9
$DIMALTZ
 70
0
  9
$DIMALTTZ
 70
0
  9
$DIMUPT
 70
0
  9
$DIMDEC
 70
2
  9
$DIMTDEC
 70
2
  9
$DIMALTU
 70
2
  9
$DIMALTTD
 70
3
  9
$DIMTXSTY
  7
Standard
  9
$DIMAUNIT
 70
0
  9
$DIMADEC
 70
0
  9
$DIMALTRND
 40
0.0
  9
$DIMAZIN
 70
0
  9
$DIMDSEP
 70
44
  9
$DIMATFIT
 70
3
  9
$DIMFRAC
 70
0
  9
$DIMLDRBLK
  1

  9
$DIMLUNIT
 70
2
  9
$DIMLWD
 70
-2
  9
$DIMLWE
 70
-2
  9
$DIMTMOVE
 70
0
  9
$LUNITS
 70
2
  9
$LUPREC
 70
4
  9
$SKETCHINC
 40
1.0
  9
$FILLETRAD
 40
10.0
  9
$AUNITS
 70
0
  9
$AUPREC
 70
2
  9
$MENU
  1
.
  9
$ELEVATION
 40
0.0
  9
$PELEVATION
 40
0.0
  9
$THICKNESS
 40
0.0
  9
$LIMCHECK
 70
0
  9
$CHAMFERA
 40
0.0
  9
$CHAMFERB
 40
0.0
  9
$CHAMFERC
 40
0.0
  9
$CHAMFERD
 40
0.0
  9
$SKPOLY
 70
0
  9
$TDCREATE
 40
2461266.472048611
  9
$TDUCREATE
 40
2458532.153996898
  9
$TDUPDATE
 40
2461266.472048611
  9
$TDUUPDATE
 40
2458532.1544311
  9
$TDINDWG
 40
0.0
  9
$TDUSRTIMER
 40
0.0
  9
$USRTIMER
 70
1
  9
$ANGBASE
 50
0.0
  9
$ANGDIR
 70
0
  9
$PDMODE
 70
0
  9
$PDSIZE
 40
0.0
  9
$PLINEWID
 40
0.0
  9
$SPLFRAME
 70
0
  9
$SPLINETYPE
 70
6
  9
$SPLINESEGS
 70
8
  9
$HANDSEED
  5
3C
  9
$SURFTAB1
 70
6
  9
$SURFTAB2
 70
6
  9
$SURFTYPE
 70
6
  9
$SURFU
 70
6
  9
$SURFV
 70
6
  9
$UCSBASE
  2

  9
$UCSNAME
  2

  9
$UCSORG
 10
0.0
 20
0.0
 30
0.0
  9
$UCSXDIR
 10
1.0
 20
0.0
 30
0.0
  9
$UCSYDIR
 10
0.0
 20
1.0
 30
0.0
  9
$UCSORTHOREF
  2

  9
$UCSORTHOVIEW
 70
0
  9
$UCSORGTOP
 10
0.0
 20
0.0
 30
0.0
  9
$UCSORGBOTTOM
 10
0.0
 20
0.0
 30
0.0
  9
$UCSORGLEFT
 10
0.0
 20
0.0
 30
0.0
  9
$UCSORGRIGHT
 10
0.0
 20
0.0
 30
0.0
  9
$UCSORGFRONT
 10
0.0
 20
0.0
 30
0.0
  9
$UCSORGBACK
 10
0.0
 20
0.0
 30
0.0
  9
$PUCSBASE
  2

  9
$PUCSNAME
  2

  9
$PUCSORG
 10
0.0
 20
0.0
 30
0.0
  9
$PUCSXDIR
 10
1.0
 20
0.0
 30
0.0
  9
$PUCSYDIR
 10
0.0
 20
1.0
 30
0.0
  9
$PUCSORTHOREF
  2

  9
$PUCSORTHOVIEW
 70
0
  9
$PUCSORGTOP
 10
0.0
 20
0.0
 30
0.0
  9
$PUCSORGBOTTOM
 10
0.0
 20
0.0
 30
0.0
  9
$PUCSORGLEFT
 10
0.0
 20
0.0
 30
0.0
  9
$PUCSORGRIGHT
 10
0.0
 20
0.0
 30
0.0
  9
$PUCSORGFRONT
 10
0.0
 20
0.0
 30
0.0
  9
$PUCSORGBACK
 10
0.0
 20
0.0
 30
0.0
  9
$USERI1
 70
0
  9
$USERI2
 70
0
  9
$USERI3
 70
0
  9
$USERI4
 70
0
  9
$USERI5
 70
0
  9
$USERR1
 40
0.0
  9
$USERR2
 40
0.0
  9
$USERR3
 40
0.0
  9
$USERR4
 40
0.0
  9
$USERR5
 40
0.0
  9
$WORLDVIEW
 70
1
  9
$SHADEDGE
 70
3
  9
$SHADEDIF
 70
70
  9
$TILEMODE
 70
1
  9
$MAXACTVP
 70
64
  9
$PINSBASE
 10
0.0
 20
0.0
 30
0.0
  9
$PLIMCHECK
 70
0
  9
$PEXTMIN
 10
1e+20
 20
1e+20
 30
1e+20
  9
$PEXTMAX
 10
-1e+20
 20
-1e+20
 30
-1e+20
  9
$PLIMMIN
 10
0.0
 20
0.0
  9
$PLIMMAX
 10
420.0
 20
297.0
  9
$UNITMODE
 70
0
  9
$VISRETAIN
 70
1
  9
$PLINEGEN
 70
0
  9
$PSLTSCALE
 70
1
  9
$TREEDEPTH
 70
3020
  9
$CMLSTYLE
  2
Standard
  9
$CMLJUST
 70
0
  9
$CMLSCALE
 40
20.0
  9
$PROXYGRAPHICS
 70
1
  9
$MEASUREMENT
 70
1
  9
$CELWEIGHT
370
-1
  9
$ENDCAPS
280
0
  9
$JOINSTYLE
280
0
  9
$LWDISPLAY
290
0
  9
$INSUNITS
 70
6
  9
$HYPERLINKBASE
  1

  9
$STYLESHEET
  1

  9
$XEDIT
290
1
  9
$CEPSNTYPE
380
0
  9
$PSTYLEMODE
290
1
  9
$FINGERPRINTGUID
  2
{69990801-B9C6-4373-A6F7-6720E07B4D1C}
  9
$VERSIONGUID
  2
{1F029C9A-8714-4C02-B7B0-6DE86ED7C829}
  9
$EXTNAMES
290
1
  9
$PSVPSCALE
 40
0.0
  9
$OLESTARTUP
290
0
  0
ENDSEC
  0
SECTION
  2
CLASSES
  0
CLASS
  1
ACDBDICTIONARYWDFLT
  2
AcDbDictionaryWithDefault
  3
ObjectDBX Classes
 90
0
280
0
281
0
  0
CLASS
  1
SUN
  2
AcDbSun
  3
SCENEOE
 90
1153
280
0
281
0
  0
CLASS
  1
VISUALSTYLE
  2
AcDbVisualStyle
  3
ObjectDBX Classes
 90
4095
280
0
281
0
  0
CLASS
  1
MATERIAL
  2
AcDbMaterial
  3
ObjectDBX Classes
 90
1153
280
0
281
0
  0
CLASS
  1
SCALE
  2
AcDbScale
  3
ObjectDBX Classes
 90
1153
280
0
281
0
  0
CLASS
  1
TABLESTYLE
  2
AcDbTableStyle
  3
ObjectDBX Classes
 90
4095
280
0
281
0
  0
CLASS
  1
MLEADERSTYLE
  2
AcDbMLeaderStyle
  3
ACDB_MLEADERSTYLE_CLASS
 90
4095
280
0
281
0
  0
CLASS
  1
DICTIONARYVAR
  2
AcDbDictionaryVar
  3
ObjectDBX Classes
 90
0
280
0
281
0
  0
CLASS
  1
CELLSTYLEMAP
  2
AcDbCellStyleMap
  3
ObjectDBX Classes
 90
1152
280
0
281
0
  0
CLASS
  1
MENTALRAYRENDERSETTINGS
  2
AcDbMentalRayRenderSettings
  3
SCENEOE
 90
1024
280
0
281
0
  0
CLASS
  1
ACDBDETAILVIEWSTYLE
  2
AcDbDetailViewStyle
  3
ObjectDBX Classes
 90
1025
280
0
281
0
  0
CLASS
  1
ACDBSECTIONVIEWSTYLE
  2
AcDbSectionViewStyle
  3
ObjectDBX Classes
 90
1025
280
0
281
0
  0
CLASS
  1
RASTERVARIABLES
  2
AcDbRasterVariables
  3
ISM
 90
0
280
0
281
0
  0
CLASS
  1
ACDBPLACEHOLDER
  2
AcDbPlaceHolder
  3
ObjectDBX Classes
 90
0
280
0
281
0
  0
CLASS
  1
LAYOUT
  2
AcDbLayout
  3
ObjectDBX Classes
 90
0
280
0
281
0
  0
ENDSEC
  0
SECTION
  2
TABLES
  0
TABLE
  2
VPORT
  5
8
330
0
100
AcDbSymbolTable
 70
1
  0
VPORT
  5
23
330
8
100
AcDbSymbolTableRecord
100
AcDbViewportTableRecord
  2
*Active
 70
0
 10
0.0
 20
0.0
 11
1.0
 21
1.0
 12
0.0
 22
0.0
 13
0.0
 23
0.0
 14
0.5
 24
0.5
 15
0.5
 25
0.5
 16
0.0
 26
0.0
 36
1.0
 17
0.0
 27
0.0
 37
0.0
 40
1000.0
 41
1.34
 42
50.0
 43
0.0
 44
0.0
 50
0.0
 51
0.0
 71
0
 72
1000
 73
1
 74
3
 75
0
 76
0
 77
0
 78
0
281
0
 65
0
146
0.0
  0
ENDTAB
  0
TABLE
  2
LTYPE
  5
2
330
0
100
AcDbSymbolTable
 70
3
  0
LTYPE
  5
24
330
2
100
AcDbSymbolTableRecord
100
AcDbLinetypeTableRecord
  2
ByBlock
 70
0
  3

 72
65
 73
0
 40
0.0
  0
LTYPE
  5
25
330
2
100
AcDbSymbolTableRecord
100
AcDbLinetypeTableRecord
  2
ByLayer
 70
0
  3

 72
65
 73
0
 40
0.0
  0
LTYPE
  5
26
330
2
100
AcDbSymbolTableRecord
100
AcDbLinetypeTableRecord
  2
Continuous
 70
0
  3

 72
65
 73
0
 40
0.0
  0
ENDTAB
  0
TABLE
  2
LAYER
  5
1
330
0
100
AcDbSymbolTable
 70
2
  0
LAYER
  5
27
330
1
100
AcDbSymbolTableRecord
100
AcDbLayerTableRecord
  2
0
 70
0
 62
7
  6
Continuous
370
-3
390
13
  0
LAYER
  5
28
330
1
100
AcDbSymbolTableRecord
100
AcDbLayerTableRecord
  2
Defpoints
 70
0
 62
7
  6
Continuous
290
0
370
-3
390
13
  0
ENDTAB
  0
TABLE
  2
STYLE
  5
5
330
0
100
AcDbSymbolTable
 70
1
  0
STYLE
  5
29
330
5
100
AcDbSymbolTableRecord
100
AcDbTextStyleTableRecord
  2
Standard
 70
0
 40
0.0
 41
1.0
 50
0.0
 71
0
 42
2.5
  3
txt
  4

  0
ENDTAB
  0
TABLE
  2
VIEW
  5
7
330
0
100
AcDbSymbolTable
 70
0
  0
ENDTAB
  0
TABLE
  2
UCS
  5
6
330
0
100
AcDbSymbolTable
 70
0
  0
ENDTAB
  0
TABLE
  2
APPID
  5
3
330
0
100
AcDbSymbolTable
 70
3
  0
APPID
  5
2A
330
3
100
AcDbSymbolTableRecord
100
AcDbRegAppTableRecord
  2
ACAD
 70
0
  0
APPID
  5
39
330
3
100
AcDbSymbolTableRecord
100
AcDbRegAppTableRecord
  2
HATCHBACKGROUNDCOLOR
 70
0
  0
APPID
  5
3A
330
3
100
AcDbSymbolTableRecord
100
AcDbRegAppTableRecord
  2
EZDXF
 70
0
  0
ENDTAB
  0
TABLE
  2
DIMSTYLE
  5
4
330
0
100
AcDbSymbolTable
 70
1
100
AcDbDimStyleTable
  0
DIMSTYLE
105
2B
330
4
100
AcDbSymbolTableRecord
100
AcDbDimStyleTableRecord
  2
Standard
 70
0
  3

  4

 40
1.0
 41
2.5
 42
0.625
 43
3.75
 44
1.25
 45
0.0
 46
0.0
 47
0.0
 48
0.0
140
2.5
141
2.5
142
0.0
143
0.03937007874
144
1.0
145
0.0
146
1.0
147
0.625
148
0.0
 71
0
 72
0
 73
0
 74
0
 75
0
 76
0
 77
1
 78
8
 79
3
170
0
171
3
172
1
173
0
174
0
175
0
176
0
177
0
178
0
179
2
271
2
272
2
273
2
274
3
275
0
276
0
277
2
278
44
279
0
280
0
281
0
282
0
283
0
284
8
285
0
286
0
288
0
289
3
371
-2
372
-2
  0
ENDTAB
  0
TABLE
  2
BLOCK_RECORD
  5
9
330
0
100
AcDbSymbolTable
 70
2
  0
BLOCK_RECORD
  5
17
330
9
100
AcDbSymbolTableRecord
100
AcDbBlockTableRecord
  2
*Model_Space
340
1A
  0
BLOCK_RECORD
  5
1B
330
9
100
AcDbSymbolTableRecord
100
AcDbBlockTableRecord
  2
*Paper_Space
340
1E
  0
ENDTAB
  0
ENDSEC
  0
SECTION
  2
BLOCKS
  0
BLOCK
  5
18
330
17
100
AcDbEntity
  8
0
100
AcDbBlockBegin
  2
*Model_Space
 70
0
 10
0.0
 20
0.0
 30
0.0
  3
*Model_Space
  1

  0
ENDBLK
  5
19
330
17
100
AcDbEntity
  8
0
100
AcDbBlockEnd
  0
BLOCK
  5
1C
330
1B
100
AcDbEntity
  8
0
100
AcDbBlockBegin
  2
*Paper_Space
 70
0
 10
0.0
 20
0.0
 30
0.0
  3
*Paper_Space
  1

  0
ENDBLK
  5
1D
330
1B
100
AcDbEntity
  8
0
100
AcDbBlockEnd
  0
ENDSEC
  0
SECTION
  2
ENTITIES
  0
POINT
  5
2F
330
17
100
AcDbEntity
  8
0
100
AcDbPoint
 10
0.0
 20
0.0
 30
0.0
  0
LWPOLYLINE
  5
30
330
17
100
AcDbEntity
  8
0
100
AcDbPolyline
 90
600
 70
0
 10
0.0
 20
27.0
 10
0.4825618556131954
 20
26.98138275067098
 10
0.9589058174658843
 20
26.92638155829411
 10
1.423411712220181
 20
26.83741931936919
 10
1.8715126003679807
 20
26.718147627523777
 10
2.2999238563948268
 20
26.57299380808319
 10
2.7066426619114816
 20
26.4067162364031
 10
3.0907773194042347
 20
26.224052176382305
 10
3.4522892153926676
 20
26.029491255606043
 10
3.7917198520335296
 20
25.827165255420077
 10
4.109949040196907
 20
25.62082267605254
 10
4.408004054838506
 20
25.413852435655173
 10
4.686921187905903
 20
25.209327255838783
 10
4.947651737999902
 20
25.010046594460796
 10
5.1910018160512825
 20
24.818567232861355
 10
5.417596663882893
 20
24.637215339326332
 10
5.627863422407635
 20
24.468077144646614
 10
5.822030276325847
 20
24.312967107602894
 10
6.0001440685061525
 20
24.1733736716665
 10
6.162112422488373
 20
24.050384534169776
 10
6.307779473031124
 20
23.944596864350103
 10
6.437045149920947
 20
23.856023970659674
 10
6.55003439588781
 20
23.78401853976332
 10
6.647312115578343
 20
23.72724188295175
 10
6.730120692563613
 20
23.68371386867745
 10
6.800592493762396
 20
23.65097205931497
 10
6.861869894086384
 20
23.626344609114796
 10
6.918065702836921
 20
23.607301149485917
 10
6.974029790711691
 20
23.59180417205588
 10
7.0349486049904995
 20
23.57856498527113
 10
7.105866410364472
 20
23.567130948268904
 10
7.191246042394778
 20
23.557787894376773
 10
7.2946663024714775
 20
23.55132351618555
 10
7.418697339251538
 20
23.548732394453275
 10
7.564936782804291
 20
23.550940265653306
 10
7.734153732360203
 20
23.558596156653053
 10
7.926480935068605
 20
23.57194693289272
 10
8.141608294034222
 20
23.59078423969258
 10
8.378950070379078
 20
23.614442696306437
 10
8.637774713880802
 20
23.641827352547143
 10
8.917296724653445
 20
23.671452774561416
 10
9.216734607932441
 20
23.701481821865528
 10
9.535339560029513
 20
23.7297572748585
 10
9.872397776727087
 20
23.75382351934027
 10
10.227206541290407
 20
23.770938862335974
 10
10.599021523735246
 20
23.77808243398611
 10
10.986970965281715
 20
23.771963704053398
 10
11.389932871174098
 20
23.74904776068039
 10
11.806375657097018
 20
23.705615227356247
 10
12.234172676010402
 20
23.637880164446894
 10
12.67041745185643
 20
23.542188667919255
 10
13.111286815925338
 20
23.415309701276435
 10
13.552015431934109
 20
23.25480355310723
 10
13.987043804641065
 20
23.059414146754456
 10
14.410369770867687
 20
22.82939300049132
 10
14.81607062136018
 20
22.56664917767933
 10
15.19889221978023
 20
22.274651819387888
 10
15.55476155412936
 20
21.958086628887266
 10
15.881098356244689
 20
21.62235095296543
 10
16.17687261405265
 20
21.273019459872895
 10
16.442438620370538
 20
20.915402000107903
 10
16.67923117196977
 20
20.554261659083945
 10
16.889419449541965
 20
20.193698880992045
 10
17.075590320787956
 20
19.837164789418114
 10
17.240497575842316
 20
19.487551662320826
 10
17.38688398820269
 20
19.147313859551925
 10
17.517365598196445
 20
18.8185867665053
 10
17.63436106915818
 20
18.503285752376613
 10
17.740049344795967
 20
18.203177656426973
 10
17.83634242543048
 20
17.919923234345443
 10
17.924864575430888
 20
17.655091253796133
 10
18.0069336877959
 20
17.410144865215585
 10
18.083544726356347
 20
17.18639975086513
 10
18.155359378548738
 20
16.98495252308866
 10
18.222710477233143
 20
16.806578107415557
 10
18.285634107555182
 20
16.651597791971977
 10
18.34394535405855
 20
16.51972664630019
 10
18.397372757672528
 20
16.40992075412432
 10
18.44575804777949
 20
16.32025954235867
 10
18.489308609888816
 20
16.24791076818397
 10
18.528861919560377
 20
16.189225569433855
 10
18.566093702200305
 20
16.139988374673887
 10
18.6035925015376
 20
16.095800214980198
 10
18.644748240552175
 20
16.05251978814913
 10
18.69345948613031
 20
16.006653528969444
 10
18.75372813144569
 20
15.95559724500637
 10
18.829246552275464
 20
15.897684845189524
 10
18.923072939524044
 20
15.83206525310051
 10
19.037446340707792
 20
15.758473459501113
 10
19.173741855617664
 20
15.676971105076976
 10
19.332531625377776
 20
15.587713726925706
 10
19.513705717270483
 20
15.490773555571169
 10
19.71661269888418
 20
15.386022724291589
 10
19.94019262636188
 20
15.273067617196322
 10
20.1830878143065
 20
15.151220024949545
 10
20.443725691757297
 20
15.019491500511055
 10
20.72037286897428
 20
14.876600745292377
 10
21.011161236148947
 20
14.720988131571891
 10
21.314086823364942
 20
14.550835806651769
 10
21.626981534703344
 20
14.364096122818367
 10
21.947457904164548
 20
14.158535497380417
 10
22.272828909992107
 20
13.931805105726752
 10
22.600009863142446
 20
13.681553244022682
 10
22.925418369902875
 20
13.405594834638993
 10
23.24490099260582
 20
13.1021481609103
 10
23.55372829828773
 20
12.77013376951988
 10
23.846706136260536
 20
12.409503882127561
 10
24.118439694558496
 20
12.021537313892136
 10
24.36375022851489
 20
11.609009351928137
 10
24.578186926142614
 20
11.176149594902002
 10
24.758521665457373
 20
10.728347805251639
 10
24.90309625734593
 20
10.271648402436874
 10
25.011929971760402
 20
9.812150792642527
 10
25.086575040689773
 20
9.355462724894423
 10
25.129787168706972
 20
8.90632207537664
 10
25.14511826341978
 20
8.468431831155453
 10
25.136530290777564
 20
8.044483923015083
 10
25.108090774963927
 20
7.636308245882369
 10
25.063768069108104
 20
7.245077753935933
 10
25.007314858491796
 20
6.871516516172817
 10
24.942215088257974
 20
6.516079890568157
 10
24.87166835606261
 20
6.179094707545134
 10
24.79859070207118
 20
5.860859117238154
 10
24.725617136640537
 20
5.561707089293167
 10
24.655096875892376
 20
5.28204340652363
 10
24.589076493265868
 20
5.022353252050907
 10
24.529269367479674
 20
4.78318751451241
 10
24.477012656836493
 20
4.5651216601587326
 10
24.43321640529172
 20
4.3686832750609605
 10
24.398313984483508
 20
4.194242262235042
 10
24.372229048393383
 20
4.041859804340383
 10
24.35438047979712
 20
3.911099584890663
 10
24.34375045919997
 20
3.8008188826612432
 10
24.339036739262884
 20
3.7089769277609768
 10
24.338893124785077
 20
3.6325170777192968
 10
24.34223100976045
 20
3.56738574352794
 10
24.348518492821157
 20
3.5087311515991733
 10
24.35799155593672
 20
3.451275392549171
 10
24.3717039121802
 20
3.3897901561533765
 10
24.39139133008591
 20
3.319562544970502
 10
24.419190241089176
 20
3.2367394666756164
 10
24.457295155558818
 20
3.138486881968319
 10
24.50764421433212
 20
3.02296552792916
 10
24.571692759246613
 20
2.8891742798090068
 10
24.650293562702636
 20
2.736729737177267
 10
24.743669885657802
 20
2.565640693783796
 10
24.85145205966006
 20
2.3761137997185884
 10
24.972747203962005
 20
2.1684050437312834
 10
25.106218213910203
 20
1.9427169827628408
 10
25.250156458580406
 20
1.6991345626737755
 10
25.402539553893043
 20
1.437590910147492
 10
25.561070252313062
 20
1.1578562837420554
 10
25.72319531157208
 20
0.8595467327742473
 10
25.88610509027035
 20
0.5421529205562814
 10
26.046716614118964
 20
0.2050934255267478
 10
26.201645971974145
 20
-0.1521999685506994
 10
26.347180940875717
 20
-0.530155979152938
 10
26.47927192085989
 20
-0.928889474805366
 10
26.593567465988937
 20
-1.3479798800893352
 10
26.685526498500547
 20
-1.7862191116287425
 10
26.750636495427297
 20
-2.2413695559676454
 10
26.784748229805164
 20
-2.709997967006163
 10
26.784499830536625
 20
-3.1874643217527976
 10
26.747754424657607
 20
-3.6681281337067193
 10
26.67393963341918
 20
-4.145779842218335
 10
26.564181679153627
 20
-4.614226275374852
 10
26.421182538792674
 20
-5.067894931883975
 10
26.248873241820537
 20
-5.502310467931372
 10
26.0519458793697
 20
-5.914346681367709
 10
25.835387193124323
 20
-6.302238893428125
 10
25.604107012834916
 20
-6.665411281833054
 10
25.36270161281633
 20
-7.004204692358067
 10
25.115344712872922
 20
-7.3195837600394045
 10
24.865772491755315
 20
-7.612875430800377
 10
24.617323110932233
 20
-7.885562177937377
 10
24.372997698109096
 20
-8.139132257301652
 10
24.135520256493958
 20
-8.374978231980833
 10
23.907383477564732
 20
-8.594331538768849
 10
23.690874025187536
 20
-8.79822197536943
 10
23.48807454346447
 20
-8.987454264443986
 10
23.30084127442528
 20
-9.162597931304816
 10
23.130756853004524
 20
-9.323991020661104
 10
22.979058724028512
 20
-9.471762424812406
 10
22.846545879154156
 20
-9.605881449818543
 10
22.73347136873313
 20
-9.72624580950017
 10
22.639435983892668
 20
-9.832818701826639
 10
22.563308957368513
 20
-9.925819290233758
 10
22.503211197535595
 20
-10.005956186470906
 10
22.456598777395676
 20
-10.074670428592558
 10
22.42047079725499
 20
-10.134329093587285
 10
22.391692019642726
 20
-10.18829684452726
 10
22.36737441018712
 20
-10.240826716725087
 10
22.345224740418615
 20
-10.296759409884034
 10
22.323762905158983
 20
-10.361086474059574
 10
22.302355981480282
 20
-10.43848343117507
 10
22.281077119159807
 20
-10.532925360206706
 10
22.26045183473326
 20
-10.647458347877055
 10
22.24117324942625
 20
-10.784140942901725
 10
22.223852654422874
 20
-10.944121316301281
 10
22.20884007052079
 20
-11.127794337063216
 10
22.196119713381663
 20
-11.334985812089633
 10
22.185266946840123
 20
-11.565126936751776
 10
22.17544675314371
 20
-11.817399455982866
 10
22.16543490664069
 20
-12.090845127945736
 10
22.15364757220972
 20
-12.384440408486128
 10
22.13817016257793
 20
-12.697139869880282
 10
22.116780813999483
 20
-13.027891425959336
 10
22.086967703249627
 20
-13.375624462709064
 10
22.045943089032253
 20
-13.739209636383908
 10
21.990660996192407
 20
-14.117387425944608
 10
21.917850223201057
 20
-14.508662681981203
 10
21.824079544378545
 20
-14.911165887439685
 10
21.705876084852093
 20
-15.322490260407575
 10
21.55991761336822
 20
-15.739528064683329
 10
21.383310099884458
 20
-16.158347865489997
 10
21.17393892115327
 20
-16.57417047332273
 10
20.930846166869202
 20
-16.981503017726762
 10
20.654548643078627
 20
-17.374465003919912
 10
20.347193411455134
 20
-17.747284082854044
 10
20.01247214740405
 20
-18.09487008032613
 10
19.655284678124993
 20
-18.413329521527668
 10
19.28122720845518
 20
-18.700291457043107
 10
18.896036921125827
 20
-18.954979660690405
 10
18.50512321424068
 20
-19.178051622202304
 10
18.11326500184129
 20
-19.37128716038851
 10
17.724487329109927
 20
-19.537226421040366
 10
17.34208123495117
 20
-19.678835824249965
 10
16.96871086651315
 20
-19.79924376281171
 10
16.606555752950165
 20
-19.9015551172661
 10
16.257451431394575
 20
-19.988733561168818
 10
15.923007987305084
 20
-20.063532758613057
 10
15.604698339459006
 20
-20.12845765064102
 10
15.303915161902859
 20
-20.185740839137022
 10
15.021998120305124
 20
-20.23732386190321
 10
14.760233080978248
 20
-20.284837688830066
 10
14.519823480030304
 20
-20.32958085855078
 10
14.301832260799028
 20
-20.37249763445737
 10
14.107091815931978
 20
-20.41416280933218
 10
13.936080517759539
 20
-20.454784463769784
 10
13.788769233210294
 20
-20.494240458466717
 10
13.664451038174866
 20
-20.53216679257849
 10
13.561582077561281
 20
-20.568112734492313
 10
13.47767768368574
 20
-20.601764712481963
 10
13.409317113641972
 20
-20.633216466699448
 10
13.352300986079426
 20
-20.663231838486684
 10
13.301969955919832
 20
-20.693423281985034
 10
13.253637839418746
 20
-20.72627287652501
 10
13.20304184265057
 20
-20.764963020367897
 10
13.146697102009863
 20
-20.813047994473916
 10
13.082075345784627
 20
-20.87405264978793
 10
13.007590977362458
 20
-20.951101175561313
 10
12.922437588205053
 20
-21.046652821300864
 10
12.826347509086457
 20
-21.162373249372724
 10
12.719343091968838
 20
-21.299126751279807
 10
12.601524854458189
 20
-21.457051170991946
 10
12.472915140031155
 20
-21.635674140405868
 10
12.33335661934487
 20
-21.8340379481371
 10
12.182455109958152
 20
-22.050812435551077
 10
12.0195537384946
 20
-22.284385521942962
 10
11.843727288147912
 20
-22.532927532563882
 10
11.653789261397122
 20
-22.79442874206034
 10
11.448308439112381
 20
-23.066710566661627
 10
11.225636056841388
 20
-23.347410892524927
 10
10.983949053826242
 20
-23.633944309928133
 10
10.721319021472908
 20
-23.923439704387075
 10
10.435819812888171
 20
-24.212661892605404
 10
10.125687653577824
 20
-24.497931668519172
 10
9.789543230098786
 20
-24.775069599606653
 10
9.426672207224396
 20
-25.039400702895346
 10
9.03733692316624
 20
-25.285863606862215
 10
8.623060839734631
 20
-25.50925957873747
 10
8.186800816424292
 20
-25.704645626624167
 10
7.7329202530426695
 20
-25.867823477055854
 10
7.266915092817579
 20
-25.99582174045393
 10
6.7949204489543185
 20
-26.08724401970563
 10
6.323105715630932
 20
-26.14238480665817
 10
5.857106437127367
 20
-26.16309022752981
 10
5.401619078822844
 20
-26.152423351147505
 10
4.960216355015443
 20
-26.11424182371353
 10
4.535366252059532
 20
-26.052793276496587
 10
4.128590876827002
 20
-25.97239633644494
 10
3.7406907477892632
 20
-25.877229528891828
 10
3.3719751410017893
 20
-25.77121680857769
 10
3.02246307955083
 20
-25.657982702991035
 10
2.6920407497964307
 20
-25.540848205387444
 10
2.3805748875316333
 20
-25.422843902811934
 10
2.087988190858832
 20
-25.306724059113524
 10
1.8143041744306725
 20
-25.19497168557861
 10
1.559667229714278
 20
-25.089789185048733
 10
1.324340535399208
 20
-24.993072230057734
 10
1.1086808271503696
 20
-24.906366911471896
 10
0.9130855833720757
 20
-24.830812818749955
 10
0.737905752542831
 20
-24.767078502084036
 10
0.5833170800089971
 20
-24.715301327844905
 10
0.449147365618086
 20
-24.675050830784553
 10
0.33466774459321635
 20
-24.64534136928428
 10
0.2383741013036481
 20
-24.624721898503942
 10
0.1578067237735638
 20
-24.611461848227076
 10
0.08947263875202616
 20
-24.60382772766625
 10
0.028931219748942014
 20
-24.600407916710225
 10
-0.028931219748939974
 20
-24.600407916710225
 10
-0.08947263875202416
 20
-24.60382772766625
 10
-0.15780672377356297
 20
-24.611461848227073
 10
-0.238374101303646
 20
-24.62472189850394
 10
-0.33466774459321424
 20
-24.64534136928428
 10
-0.449147365618082
 20
-24.675050830784553
 10
-0.5833170800089835
 20
-24.715301327844905
 10
-0.737905752542822
 20
-24.767078502084033
 10
-0.913085583372061
 20
-24.830812818749955
 10
-1.1086808271503648
 20
-24.906366911471896
 10
-1.3243405353992028
 20
-24.993072230057734
 10
-1.5596672297142726
 20
-25.08978918504873
 10
-1.8143041744306667
 20
-25.19497168557861
 10
-2.087988190858825
 20
-25.306724059113524
 10
-2.3805748875316253
 20
-25.42284390281193
 10
-2.692040749796424
 20
-25.54084820538744
 10
-3.022463079550822
 20
-25.657982702991035
 10
-3.371975141001781
 20
-25.77121680857769
 10
-3.740690747789255
 20
-25.877229528891824
 10
-4.128590876826993
 20
-25.97239633644494
 10
-4.535366252059523
 20
-26.052793276496587
 10
-4.960216355015412
 20
-26.114241823713524
 10
-5.401619078822811
 20
-26.152423351147505
 10
-5.85710643712734
 20
-26.163090227529814
 10
-6.32310571563092
 20
-26.142384806658168
 10
-6.794920448954313
 20
-26.08724401970563
 10
-7.266915092817568
 20
-25.995821740453927
 10
-7.732920253042666
 20
-25.867823477055857
 10
-8.186800816424281
 20
-25.704645626624167
 10
-8.623060839734626
 20
-25.509259578737474
 10
-9.037336923166231
 20
-25.285863606862215
 10
-9.426672207224389
 20
-25.039400702895346
 10
-9.789543230098777
 20
-24.775069599606656
 10
-10.125687653577819
 20
-24.49793166851917
 10
-10.435819812888164
 20
-24.21266189260541
 10
-10.721319021472903
 20
-23.923439704387075
 10
-10.983949053826223
 20
-23.633944309928154
 10
-11.225636056841374
 20
-23.34741089252494
 10
-11.448308439112367
 20
-23.066710566661644
 10
-11.653789261397119
 20
-22.79442874206035
 10
-11.843727288147907
 20
-22.53292753256389
 10
-12.0195537384946
 20
-22.28438552194297
 10
-12.182455109958148
 20
-22.05081243555108
 10
-12.333356619344869
 20
-21.83403794813711
 10
-12.472915140031152
 20
-21.63567414040587
 10
-12.601524854458187
 20
-21.45705117099195
 10
-12.719343091968838
 20
-21.29912675127981
 10
-12.82634750908646
 20
-21.16237324937273
 10
-12.92243758820505
 20
-21.046652821300867
 10
-13.00759097736246
 20
-20.951101175561313
 10
-13.082075345784625
 20
-20.87405264978793
 10
-13.14669710200986
 20
-20.813047994473916
 10
-13.203041842650563
 20
-20.7649630203679
 10
-13.253637839418746
 20
-20.72627287652501
 10
-13.301969955919825
 20
-20.693423281985037
 10
-13.352300986079422
 20
-20.663231838486688
 10
-13.409317113641974
 20
-20.633216466699444
 10
-13.477677683685739
 20
-20.601764712481963
 10
-13.561582077561276
 20
-20.568112734492313
 10
-13.664451038174862
 20
-20.532166792578494
 10
-13.788769233210292
 20
-20.494240458466713
 10
-13.936080517759533
 20
-20.454784463769784
 10
-14.107091815931975
 20
-20.414162809332183
 10
-14.301832260799022
 20
-20.372497634457368
 10
-14.519823480030297
 20
-20.32958085855078
 10
-14.760233080978242
 20
-20.284837688830066
 10
-15.021998120305106
 20
-20.237323861903217
 10
-15.303915161902843
 20
-20.185740839137026
 10
-15.604698339458983
 20
-20.128457650641025
 10
-15.92300798730508
 20
-20.063532758613064
 10
-16.257451431394568
 20
-19.988733561168825
 10
-16.60655575295016
 20
-19.901555117266103
 10
-16.968710866513142
 20
-19.799243762811713
 10
-17.34208123495117
 20
-19.678835824249973
 10
-17.724487329109916
 20
-19.537226421040366
 10
-18.113265001841288
 20
-19.371287160388512
 10
-18.50512321424067
 20
-19.178051622202307
 10
-18.896036921125827
 20
-18.954979660690412
 10
-19.28122720845517
 20
-18.700291457043114
 10
-19.65528467812499
 20
-18.413329521527675
 10
-20.012472147404043
 20
-18.094870080326142
 10
-20.347193411455113
 20
-17.747284082854065
 10
-20.65454864307862
 20
-17.374465003919923
 10
-20.93084616686919
 20
-16.981503017726777
 10
-21.17393892115327
 20
-16.57417047332274
 10
-21.383310099884454
 20
-16.15834786549001
 10
-21.559917613368217
 20
-15.739528064683338
 10
-21.70587608485209
 20
-15.322490260407593
 10
-21.824079544378545
 20
-14.911165887439697
 10
-21.91785022320106
 20
-14.50866268198122
 10
-21.990660996192407
 20
-14.117387425944614
 10
-22.045943089032257
 20
-13.739209636383922
 10
-22.08696770324962
 20
-13.37562446270907
 10
-22.116780813999487
 20
-13.027891425959348
 10
-22.13817016257793
 20
-12.69713986988029
 10
-22.15364757220972
 20
-12.384440408486139
 10
-22.16543490664069
 20
-12.090845127945752
 10
-22.17544675314371
 20
-11.817399455982885
 10
-22.18526694684012
 20
-11.565126936751792
 10
-22.196119713381663
 20
-11.334985812089649
 10
-22.208840070520786
 20
-11.12779433706323
 10
-22.22385265442287
 20
-10.944121316301288
 10
-22.241173249426243
 20
-10.784140942901736
 10
-22.26045183473326
 20
-10.647458347877063
 10
-22.281077119159807
 20
-10.532925360206713
 10
-22.302355981480282
 20
-10.438483431175074
 10
-22.32376290515898
 20
-10.361086474059581
 10
-22.34522474041861
 20
-10.296759409884036
 10
-22.367374410187125
 20
-10.240826716725081
 10
-22.391692019642726
 20
-10.188296844527262
 10
-22.42047079725499
 20
-10.134329093587281
 10
-22.456598777395673
 20
-10.07467042859256
 10
-22.5032111975356
 20
-10.005956186470904
 10
-22.563308957368516
 20
-9.92581929023376
 10
-22.63943598389267
 20
-9.832818701826637
 10
-22.73347136873313
 20
-9.726245809500174
 10
-22.846545879154156
 20
-9.605881449818547
 10
-22.979058724028505
 20
-9.471762424812407
 10
-23.130756853004517
 20
-9.323991020661108
 10
-23.300841274425274
 20
-9.16259793130482
 10
-23.488074543464464
 20
-8.987454264443992
 10
-23.69087402518753
 20
-8.798221975369433
 10
-23.90738347756472
 20
-8.594331538768852
 10
-24.135520256493958
 20
-8.374978231980844
 10
-24.372997698109085
 20
-8.139132257301664
 10
-24.61732311093223
 20
-7.885562177937388
 10
-24.865772491755305
 20
-7.61287543080039
 10
-25.11534471287291
 20
-7.319583760039417
 10
-25.362701612816323
 20
-7.0042046923580825
 10
-25.60410701283491
 20
-6.665411281833068
 10
-25.8353871931243
 20
-6.302238893428152
 10
-26.05194587936969
 20
-5.914346681367732
 10
-26.24887324182052
 20
-5.5023104679314025
 10
-26.421182538792667
 20
-5.067894931884
 10
-26.564181679153616
 20
-4.614226275374885
 10
-26.673939633419174
 20
-4.145779842218365
 10
-26.7477544246576
 20
-3.6681281337067535
 10
-26.784499830536625
 20
-3.1874643217527914
 10
-26.784748229805164
 20
-2.7099979670061622
 10
-26.750636495427297
 20
-2.2413695559676508
 10
-26.685526498500543
 20
-1.7862191116287418
 10
-26.593567465988937
 20
-1.3479798800893374
 10
-26.47927192085989
 20
-0.9288894748053664
 10
-26.34718094087572
 20
-0.5301559791529402
 10
-26.201645971974138
 20
-0.15219996855069984
 10
-26.04671661411897
 20
0.20509342552673893
 10
-25.88610509027035
 20
0.5421529205562757
 10
-25.723195311572084
 20
0.8595467327742399
 10
-25.561070252313062
 20
1.1578562837420479
 10
-25.402539553893046
 20
1.4375909101474855
 10
-25.250156458580403
 20
1.699134562673769
 10
-25.106218213910207
 20
1.9427169827628359
 10
-24.972747203962008
 20
2.168405043731276
 10
-24.851452059660062
 20
2.3761137997185804
 10
-24.743669885657805
 20
2.5656406937837857
 10
-24.650293562702636
 20
2.73672973717726
 10
-24.571692759246616
 20
2.889174279808998
 10
-24.507644214332124
 20
3.0229655279291565
 10
-24.457295155558818
 20
3.138486881968311
 10
-24.419190241089176
 20
3.2367394666756133
 10
-24.391391330085916
 20
3.3195625449704953
 10
-24.3717039121802
 20
3.3897901561533743
 10
-24.35799155593672
 20
3.4512753925491606
 10
-24.34851849282116
 20
3.5087311515991706
 10
-24.342231009760447
 20
3.56738574352793
 10
-24.338893124785077
 20
3.6325170777192937
 10
-24.339036739262884
 20
3.7089769277609657
 10
-24.343750459199974
 20
3.800818882661241
 10
-24.35438047979712
 20
3.911099584890664
 10
-24.37222904839338
 20
4.041859804340387
 10
-24.398313984483508
 20
4.194242262235042
 10
-24.43321640529172
 20
4.368683275060958
 10
-24.47701265683649
 20
4.565121660158731
 10
-24.529269367479667
 20
4.783187514512409
 10
-24.589076493265868
 20
5.022353252050906
 10
-24.655096875892383
 20
5.282043406523624
 10
-24.725617136640537
 20
5.56170708929316
 10
-24.798590702071174
 20
5.860859117238147
 10
-24.871668356062607
 20
6.179094707545127
 10
-24.942215088257974
 20
6.516079890568152
 10
-25.007314858491796
 20
6.871516516172808
 10
-25.063768069108097
 20
7.245077753935921
 10
-25.108090774963927
 20
7.636308245882362
 10
-25.136530290777564
 20
8.044483923015067
 10
-25.145118263419775
 20
8.468431831155435
 10
-25.12978716870697
 20
8.906322075376613
 10
-25.08657504068977
 20
9.355462724894402
 10
-25.011929971760406
 20
9.812150792642514
 10
-24.90309625734593
 20
10.271648402436853
 10
-24.758521665457383
 20
10.728347805251616
 10
-24.578186926142628
 20
11.176149594901972
 10
-24.363750228514903
 20
11.609009351928115
 10
-24.118439694558514
 20
12.02153731389211
 10
-23.846706136260565
 20
12.409503882127533
 10
-23.553728298287744
 20
12.770133769519857
 10
-23.244900992605835
 20
13.102148160910282
 10
-22.925418369902896
 20
13.405594834638972
 10
-22.600009863142436
 20
13.681553244022686
 10
-22.272828909992114
 20
13.931805105726752
 10
-21.947457904164548
 20
14.158535497380417
 10
-21.626981534703354
 20
14.364096122818369
 10
-21.31408682336494
 20
14.550835806651767
 10
-21.01116123614895
 20
14.720988131571893
 10
-20.72037286897428
 20
14.876600745292377
 10
-20.443725691757304
 20
15.019491500511052
 10
-20.183087814306504
 20
15.151220024949543
 10
-19.940192626361892
 20
15.273067617196325
 10
-19.716612698884187
 20
15.386022724291587
 10
-19.513705717270486
 20
15.49077355557117
 10
-19.33253162537778
 20
15.587713726925706
 10
-19.173741855617664
 20
15.67697110507698
 10
-19.037446340707795
 20
15.758473459501108
 10
-18.923072939524044
 20
15.832065253100511
 10
-18.82924655227547
 20
15.897684845189518
 10
-18.75372813144569
 20
15.955597245006372
 10
-18.693459486130312
 20
16.00665352896944
 10
-18.644748240552175
 20
16.052519788149134
 10
-18.603592501537605
 20
16.095800214980194
 10
-18.566093702200305
 20
16.139988374673887
 10
-18.52886191956038
 20
16.189225569433855
 10
-18.489308609888813
 20
16.24791076818397
 10
-18.445758047779492
 20
16.320259542358666
 10
-18.397372757672528
 20
16.409920754124318
 10
-18.343945354058555
 20
16.51972664630018
 10
-18.28563410755518
 20
16.651597791971966
 10
-18.222710477233147
 20
16.80657810741555
 10
-18.155359378548738
 20
16.984952523088644
 10
-18.08354472635635
 20
17.18639975086511
 10
-18.006933687795907
 20
17.410144865215585
 10
-17.924864575430888
 20
17.655091253796137
 10
-17.83634242543048
 20
17.919923234345443
 10
-17.740049344795967
 20
18.203177656426973
 10
-17.634361069158185
 20
18.503285752376616
 10
-17.517365598196445
 20
18.818586766505298
 10
-17.38688398820269
 20
19.14731385955193
 10
-17.240497575842316
 20
19.48755166232082
 10
-17.07559032078796
 20
19.83716478941811
 10
-16.88941944954197
 20
20.19369888099203
 10
-16.679231171969775
 20
20.554261659083938
 10
-16.44243862037054
 20
20.91540200010789
 10
-16.176872614052655
 20
21.273019459872884
 10
-15.8810983562447
 20
21.622350952965412
 10
-15.554761554129371
 20
21.95808662888726
 10
-15.198892219780243
 20
22.274651819387874
 10
-14.81607062136019
 20
22.566649177679327
 10
-14.41036977086771
 20
22.829393000491304
 10
-13.987043804641084
 20
23.059414146754445
 10
-13.552015431934132
 20
23.254803553107216
 10
-13.111286815925355
 20
23.415309701276428
 10
-12.670417451856457
 20
23.54218866791925
 10
-12.234172676010424
 20
23.637880164446887
 10
-11.806375657097046
 20
23.705615227356247
 10
-11.389932871174123
 20
23.749047760680394
 10
-10.986970965281744
 20
23.771963704053398
 10
-10.59902152373527
 20
23.77808243398611
 10
-10.227206541290434
 20
23.770938862335974
 10
-9.872397776727118
 20
23.753823519340276
 10
-9.535339560029534
 20
23.7297572748585
 10
-9.216734607932436
 20
23.70148182186552
 10
-8.917296724653442
 20
23.671452774561416
 10
-8.6377747138808
 20
23.641827352547143
 10
-8.37895007037908
 20
23.61444269630644
 10
-8.141608294034224
 20
23.590784239692578
 10
-7.926480935068608
 20
23.571946932892715
 10
-7.734153732360204
 20
23.55859615665305
 10
-7.564936782804288
 20
23.550940265653306
 10
-7.418697339251546
 20
23.54873239445327
 10
-7.294666302471482
 20
23.551323516185548
 10
-7.191246042394779
 20
23.557787894376776
 10
-7.105866410364467
 20
23.5671309482689
 10
-7.034948604990509
 20
23.57856498527112
 10
-6.974029790711695
 20
23.591804172055877
 10
-6.9180657028369215
 20
23.60730114948592
 10
-6.86186989408638
 20
23.626344609114796
 10
-6.80059249376241
 20
23.650972059314967
 10
-6.730120692563619
 20
23.68371386867745
 10
-6.647312115578345
 20
23.727241882951745
 10
-6.550034395887811
 20
23.784018539763313
 10
-6.43704514992096
 20
23.856023970659667
 10
-6.307779473031134
 20
23.944596864350096
 10
-6.162112422488382
 20
24.050384534169773
 10
-6.000144068506159
 20
24.173373671666493
 10
-5.822030276325862
 20
24.312967107602883
 10
-5.62786342240765
 20
24.468077144646607
 10
-5.417596663882909
 20
24.637215339326318
 10
-5.191001816051297
 20
24.818567232861337
 10
-4.94765173799992
 20
25.010046594460785
 10
-4.686921187905924
 20
25.209327255838772
 10
-4.4080040548385035
 20
25.413852435655176
 10
-4.109949040196907
 20
25.62082267605254
 10
-3.7917198520335305
 20
25.827165255420073
 10
-3.452289215392673
 20
26.029491255606032
 10
-3.090777319404232
 20
26.224052176382305
 10
-2.706642661911485
 20
26.406716236403096
 10
-2.299923856394834
 20
26.572993808083183
 10
-1.8715126003679765
 20
26.718147627523784
 10
-1.4234117122201837
 20
26.837419319369193
 10
-0.9589058174658917
 20
26.92638155829411
 10
-0.48256185561321263
 20
26.98138275067098
 10
-2.260030426999796e-14
 20
27.0
  0
CIRCLE
  5
31
330
17
100
AcDbEntity
  8
0
100
AcDbCircle
 10
0.0
 20
0.0
 30
0.0
 40
24.12
  0
CIRCLE
  5
32
330
17
100
AcDbEntity
  8
0
100
AcDbCircle
 10
0.0
 20
0.0
 30
0.0
 40
21.48
  0
POINT
  5
33
330
17
100
AcDbEntity
  8
0
100
AcDbPoint
 10
0.0
 20
1.2000000000000002
 30
0.0
  0
LWPOLYLINE
  5
34
330
17
100
AcDbEntity
  8
0
100
AcDbPolyline
 90
2
 70
0
 10
0.0
 20
0.0
 10
0.0
 20
1.2000000000000002
  0
LWPOLYLINE
  5
35
330
17
100
AcDbEntity
  8
0
100
AcDbPolyline
 90
2
 70
0
 10
-6.0
 20
0.0
 10
6.0
 20
0.0
  0
LWPOLYLINE
  5
36
330
17
100
AcDbEntity
  8
0
100
AcDbPolyline
 90
2
 70
0
 10
-3.0
 20
1.2000000000000002
 10
3.0
 20
1.2000000000000002
  0
CIRCLE
  5
37
330
17
100
AcDbEntity
  8
0
100
AcDbCircle
 10
0.0
 20
1.2000000000000002
 30
0.0
 40
19.8
  0
CIRCLE
  5
38
330
17
100
AcDbEntity
  8
0
100
AcDbCircle
 10
0.0
 20
0.0
 30
0.0
 40
31.5
  0
ENDSEC
  0
SECTION
  2
OBJECTS
  0
DICTIONARY
  5
A
330
0
100
AcDbDictionary
281
1
  3
ACAD_COLOR
350
B
  3
ACAD_GROUP
350
C
  3
ACAD_LAYOUT
350
D
  3
ACAD_MATERIAL
350
E
  3
ACAD_MLEADERSTYLE
350
F
  3
ACAD_MLINESTYLE
350
10
  3
ACAD_PLOTSETTINGS
350
11
  3
ACAD_PLOTSTYLENAME
350
12
  3
ACAD_SCALELIST
350
14
  3
ACAD_TABLESTYLE
350
15
  3
ACAD_VISUALSTYLE
350
16
  3
EZDXF_META
350
2D
  0
DICTIONARY
  5
B
330
A
100
AcDbDictionary
281
1
  0
DICTIONARY
  5
C
330
A
100
AcDbDictionary
281
1
  0
DICTIONARY
  5
D
330
A
100
AcDbDictionary
281
1
  3
Model
350
1A
  3
Layout1
350
1E
  0
DICTIONARY
  5
E
330
A
100
AcDbDictionary
281
1
  3
ByBlock
350
1F
  3
ByLayer
350
20
  3
Global
350
21
  0
DICTIONARY
  5
F
330
A
100
AcDbDictionary
281
1
  3
Standard
350
2C
  0
DICTIONARY
  5
10
330
A
100
AcDbDictionary
281
1
  3
Standard
350
22
  0
DICTIONARY
  5
11
330
A
100
AcDbDictionary
281
1
  0
ACDBDICTIONARYWDFLT
  5
12
330
A
100
AcDbDictionary
281
1
  3
Normal
350
13
100
AcDbDictionaryWithDefault
340
13
  0
ACDBPLACEHOLDER
  5
13
330
12
  0
DICTIONARY
  5
14
330
A
100
AcDbDictionary
281
1
  0
DICTIONARY
  5
15
330
A
100
AcDbDictionary
281
1
  0
DICTIONARY
  5
16
330
A
100
AcDbDictionary
281
1
  0
LAYOUT
  5
1A
330
D
100
AcDbPlotSettings
  1

  4
A3
  6

 40
7.5
 41
20.0
 42
7.5
 43
20.0
 44
420.0
 45
297.0
 46
0.0
 47
0.0
 48
0.0
 49
0.0
140
0.0
141
0.0
142
1.0
143
1.0
 70
1024
 72
1
 73
0
 74
5
  7

 75
16
 76
0
 77
2
 78
300
147
1.0
148
0.0
149
0.0
100
AcDbLayout
  1
Model
 70
1
 71
0
 10
0.0
 20
0.0
 11
420.0
 21
297.0
 12
0.0
 22
0.0
 32
0.0
 14
1e+20
 24
1e+20
 34
1e+20
 15
-1e+20
 25
-1e+20
 35
-1e+20
146
0.0
 13
0.0
 23
0.0
 33
0.0
 16
1.0
 26
0.0
 36
0.0
 17
0.0
 27
1.0
 37
0.0
 76
1
330
17
  0
LAYOUT
  5
1E
330
D
100
AcDbPlotSettings
  1

  4
A3
  6

 40
7.5
 41
20.0
 42
7.5
 43
20.0
 44
420.0
 45
297.0
 46
0.0
 47
0.0
 48
0.0
 49
0.0
140
0.0
141
0.0
142
1.0
143
1.0
 70
0
 72
1
 73
0
 74
5
  7

 75
16
 76
0
 77
2
 78
300
147
1.0
148
0.0
149
0.0
100
AcDbLayout
  1
Layout1
 70
1
 71
1
 10
0.0
 20
0.0
 11
420.0
 21
297.0
 12
0.0
 22
0.0
 32
0.0
 14
1e+20
 24
1e+20
 34
1e+20
 15
-1e+20
 25
-1e+20
 35
-1e+20
146
0.0
 13
0.0
 23
0.0
 33
0.0
 16
1.0
 26
0.0
 36
0.0
 17
0.0
 27
1.0
 37
0.0
 76
1
330
1B
  0
MATERIAL
  5
1F
102
{ACAD_REACTORS
330
E
102
}
330
E
100
AcDbMaterial
  1
ByBlock
  2

 70
0
 40
1.0
 71
1
 41
1.0
 91
-1023410177
 42
1.0
 72
1
  3

 73
1
 74
1
 75
1
 44
0.5
 73
0
 45
1.0
 46
1.0
 77
1
  4

 78
1
 79
1
170
1
 48
1.0
171
1
  6

172
1
173
1
174
1
140
1.0
141
1.0
175
1
  7

176
1
177
1
178
1
143
1.0
179
1
  8

270
1
271
1
272
1
145
1.0
146
1.0
273
1
  9

274
1
275
1
276
1
 42
1.0
 72
1
  3

 73
1
 74
1
 75
1
 94
63
  0
MATERIAL
  5
20
102
{ACAD_REACTORS
330
E
102
}
330
E
100
AcDbMaterial
  1
ByLayer
  2

 70
0
 40
1.0
 71
1
 41
1.0
 91
-1023410177
 42
1.0
 72
1
  3

 73
1
 74
1
 75
1
 44
0.5
 73
0
 45
1.0
 46
1.0
 77
1
  4

 78
1
 79
1
170
1
 48
1.0
171
1
  6

172
1
173
1
174
1
140
1.0
141
1.0
175
1
  7

176
1
177
1
178
1
143
1.0
179
1
  8

270
1
271
1
272
1
145
1.0
146
1.0
273
1
  9

274
1
275
1
276
1
 42
1.0
 72
1
  3

 73
1
 74
1
 75
1
 94
63
  0
MATERIAL
  5
21
102
{ACAD_REACTORS
330
E
102
}
330
E
100
AcDbMaterial
  1
Global
  2

 70
0
 40
1.0
 71
1
 41
1.0
 91
-1023410177
 42
1.0
 72
1
  3

 73
1
 74
1
 75
1
 44
0.5
 73
0
 45
1.0
 46
1.0
 77
1
  4

 78
1
 79
1
170
1
 48
1.0
171
1
  6

172
1
173
1
174
1
140
1.0
141
1.0
175
1
  7

176
1
177
1
178
1
143
1.0
179
1
  8

270
1
271
1
272
1
145
1.0
146
1.0
273
1
  9

274
1
275
1
276
1
 42
1.0
 72
1
  3

 73
1
 74
1
 75
1
 94
63
  0
MLINESTYLE
  5
22
102
{ACAD_REACTORS
330
10
102
}
330
10
100
AcDbMlineStyle
  2
Standard
 70
0
  3

 62
256
 51
90.0
 52
90.0
 71
2
 49
0.5
 62
256
  6
BYLAYER
 49
-0.5
 62
256
  6
BYLAYER
  0
MLEADERSTYLE
  5
2C
102
{ACAD_REACTORS
330
F
102
}
330
F
100
AcDbMLeaderStyle
179
2
170
2
171
1
172
0
 90
2
 40
0.0
 41
0.0
173
1
 91
-1056964608
 92
-2
290
1
 42
2.0
291
1
 43
8.0
  3
Standard
 44
4.0
300

342
29
174
1
175
1
176
0
178
1
 93
-1056964608
 45
4.0
292
0
297
0
 46
4.0
 94
-1056964608
 47
1.0
 49
1.0
140
1.0
294
1
141
0.0
177
0
142
1.0
295
0
296
0
143
3.75
271
0
272
9
273
9
  0
DICTIONARY
  5
2D
330
A
100
AcDbDictionary
280
1
281
1
  3
CREATED_BY_EZDXF
350
2E
  3
WRITTEN_BY_EZDXF
350
3B
  0
DICTIONARYVAR
  5
2E
330
2D
100
DictionaryVariables
280
0
  1
1.4.4 @ 2026-08-13T08:19:45.660969+00:00
  0
DICTIONARYVAR
  5
3B
330
2D
100
DictionaryVariables
280
0
  1
1.4.4 @ 2026-08-13T08:19:45.664971+00:00
  0
ENDSEC
  0
EOF
