  0
SECTION
  2
HEADER
  9
$ACADVER
  1
AC1015
  9
$ACADMAINTVER
 70
6
  9
$DWGCODEPAGE
  3
ANSI_1252
  9
$INSBASE
 10
0.0
 20
0.0
 30
0.0
  9
$EXTMIN
 10
1e+20
 20
1e+20
 30
1e+20
  9
$EXTMAX
 10
-1e+20
 20
-1e+20
 30
-1e+20
  9
$LIMMIN
 10
0.0
 20
0.0
  9
$LIMMAX
 10
420.0
 20
297.0
  9
$ORTHOMODE
 70
0
  9
$REGENMODE
 70
1
  9
$FILLMODE
 70
1
  9
$QTEXTMODE
 70
0
  9
$MIRRTEXT
 70
1
  9
$LTSCALE
 40
1.0
  9
$ATTMODE
 70
1
  9
$TEXTSIZE
 40
2.5
  9
$TRACEWID
 40
1.0
  9
$TEXTSTYLE
  7
Standard
  9
$CLAYER
  8
0
  9
$CELTYPE
  6
ByLayer
  9
$CECOLOR
 62
256
  9
$CELTSCALE
 40
1.0
  9
$DISPSILH
 70
0
  9
$DIMSCALE
 40
1.0
  9
$DIMASZ
 40
2.5
  9
$DIMEXO
 40
0.625
  9
$DIMDLI
 40
3.75
  9
$DIMRND
 40
0.0
  9
$DIMDLE
 40
0.0
  9
$DIMEXE
 40
1.25
  9
$DIMTP
 40
0.0
  9
$DIMTM
 40
0.0
  9
$DIMTXT
 40
2.5
  9
$DIMCEN
 40
2.5
  9
$DIMTSZ
 40
0.0
  9
$DIMTOL
 70
0
  9
$DIMLIM
 70
0
  9
$DIMTIH
 70
0
  9
$DIMTOH
 70
0
  9
$DIMSE1
 70
0
  9
$DIMSE2
 70
0
  9
$DIMTAD
 70
1
  9
$DIMZIN
 70
8
  9
$DIMBLK
  1

  9
$DIMASO
 70
1
  9
$DIMSHO
 70
1
  9
$DIMPOST
  1

  9
$DIMAPOST
  1

  9
$DIMALT
 70
0
  9
$DIMALTD
 70
3
  9
$DIMALTF
 40
0.03937007874
  9
$DIMLFAC
 40
1.0
  9
$DIMTOFL
 70
1
  9
$DIMTVP
 40
0.0
  9
$DIMTIX
 70
0
  9
$DIMSOXD
 70
0
  9
$DIMSAH
 70
0
  9
$DIMBLK1
  1

  9
$DIMBLK2
  1

  9
$DIMSTYLE
  2
ISO-25
  9
$DIMCLRD
 70
0
  9
$DIMCLRE
 70
0
  9
$DIMCLRT
 70
0
  9
$DIMTFAC
 40
1.0
  9
$DIMGAP
 40
0.625
  9
$DIMJUST
 70
0
  9
$DIMSD1
 70
0
  9
$DIMSD2
 70
0
  9
$DIMTOLJ
 70
0
  9
$DIMTZIN
 70
8
  9
$DIMALTZ
 70
0
  9
$DIMALTTZ
 70
0
  9
$DIMUPT
 70
0
  9
$DIMDEC
 70
2
  9
$DIMTDEC
 70
2
  9
$DIMALTU
 70
2
  9
$DIMALTTD
 70
3
  9
$DIMTXSTY
  7
Standard
  9
$DIMAUNIT
 70
0
  9
$DIMADEC
 70
0
  9
$DIMALTRND
 40
0.0
  9
$DIMAZIN
 70
0
  9
$DIMDSEP
 70
44
  9
$DIMATFIT
 70
3
  9
$DIMFRAC
 70
0
  9
$DIMLDRBLK
  1

  9
$DIMLUNIT
 70
2
  9
$DIMLWD
 70
-2
  9
$DIMLWE
 70
-2
  9
$DIMTMOVE
 70
0
  9
$LUNITS
 70
2
  9
$LUPREC
 70
4
  9
$SKETCHINC
 40
1.0
  9
$FILLETRAD
 40
10.0
  9
$AUNITS
 70
0
  9
$AUPREC
 70
2
  9
$MENU
  1
.
  9
$ELEVATION
 40
0.0
  9
$PELEVATION
 40
0.0
  9
$THICKNESS
 40
0.0
  9
$LIMCHECK
 70
0
  9
$CHAMFERA
 40
0.0
  9
$CHAMFERB
 40
0.0
  9
$CHAMFERC
 40
0.0
  9
$CHAMFERD
 40
0.0
  9
$SKPOLY
 70
0
  9
$TDCREATE
 40
2461273.6160185183
  9
$TDUCREATE
 40
2458532.153996898
  9
$TDUPDATE
 40
2461273.6160185183
  9
$TDUUPDATE
 40
2458532.1544311
  9
$TDINDWG
 40
0.0
  9
$TDUSRTIMER
 40
0.0
  9
$USRTIMER
 70
1
  9
$ANGBASE
 50
0.0
  9
$ANGDIR
 70
0
  9
$PDMODE
 70
0
  9
$PDSIZE
 40
0.0
  9
$PLINEWID
 40
0.0
  9
$SPLFRAME
 70
0
  9
$SPLINETYPE
 70
6
  9
$SPLINESEGS
 70
8
  9
$HANDSEED
  5
3C
  9
$SURFTAB1
 70
6
  9
$SURFTAB2
 70
6
  9
$SURFTYPE
 70
6
  9
$SURFU
 70
6
  9
$SURFV
 70
6
  9
$UCSBASE
  2

  9
$UCSNAME
  2

  9
$UCSORG
 10
0.0
 20
0.0
 30
0.0
  9
$UCSXDIR
 10
1.0
 20
0.0
 30
0.0
  9
$UCSYDIR
 10
0.0
 20
1.0
 30
0.0
  9
$UCSORTHOREF
  2

  9
$UCSORTHOVIEW
 70
0
  9
$UCSORGTOP
 10
0.0
 20
0.0
 30
0.0
  9
$UCSORGBOTTOM
 10
0.0
 20
0.0
 30
0.0
  9
$UCSORGLEFT
 10
0.0
 20
0.0
 30
0.0
  9
$UCSORGRIGHT
 10
0.0
 20
0.0
 30
0.0
  9
$UCSORGFRONT
 10
0.0
 20
0.0
 30
0.0
  9
$UCSORGBACK
 10
0.0
 20
0.0
 30
0.0
  9
$PUCSBASE
  2

  9
$PUCSNAME
  2

  9
$PUCSORG
 10
0.0
 20
0.0
 30
0.0
  9
$PUCSXDIR
 10
1.0
 20
0.0
 30
0.0
  9
$PUCSYDIR
 10
0.0
 20
1.0
 30
0.0
  9
$PUCSORTHOREF
  2

  9
$PUCSORTHOVIEW
 70
0
  9
$PUCSORGTOP
 10
0.0
 20
0.0
 30
0.0
  9
$PUCSORGBOTTOM
 10
0.0
 20
0.0
 30
0.0
  9
$PUCSORGLEFT
 10
0.0
 20
0.0
 30
0.0
  9
$PUCSORGRIGHT
 10
0.0
 20
0.0
 30
0.0
  9
$PUCSORGFRONT
 10
0.0
 20
0.0
 30
0.0
  9
$PUCSORGBACK
 10
0.0
 20
0.0
 30
0.0
  9
$USERI1
 70
0
  9
$USERI2
 70
0
  9
$USERI3
 70
0
  9
$USERI4
 70
0
  9
$USERI5
 70
0
  9
$USERR1
 40
0.0
  9
$USERR2
 40
0.0
  9
$USERR3
 40
0.0
  9
$USERR4
 40
0.0
  9
$USERR5
 40
0.0
  9
$WORLDVIEW
 70
1
  9
$SHADEDGE
 70
3
  9
$SHADEDIF
 70
70
  9
$TILEMODE
 70
1
  9
$MAXACTVP
 70
64
  9
$PINSBASE
 10
0.0
 20
0.0
 30
0.0
  9
$PLIMCHECK
 70
0
  9
$PEXTMIN
 10
1e+20
 20
1e+20
 30
1e+20
  9
$PEXTMAX
 10
-1e+20
 20
-1e+20
 30
-1e+20
  9
$PLIMMIN
 10
0.0
 20
0.0
  9
$PLIMMAX
 10
420.0
 20
297.0
  9
$UNITMODE
 70
0
  9
$VISRETAIN
 70
1
  9
$PLINEGEN
 70
0
  9
$PSLTSCALE
 70
1
  9
$TREEDEPTH
 70
3020
  9
$CMLSTYLE
  2
Standard
  9
$CMLJUST
 70
0
  9
$CMLSCALE
 40
20.0
  9
$PROXYGRAPHICS
 70
1
  9
$MEASUREMENT
 70
1
  9
$CELWEIGHT
370
-1
  9
$ENDCAPS
280
0
  9
$JOINSTYLE
280
0
  9
$LWDISPLAY
290
0
  9
$INSUNITS
 70
6
  9
$HYPERLINKBASE
  1

  9
$STYLESHEET
  1

  9
$XEDIT
290
1
  9
$CEPSNTYPE
380
0
  9
$PSTYLEMODE
290
1
  9
$FINGERPRINTGUID
  2
{C5937A13-7FA8-41B0-AF06-A4EEF435A70A}
  9
$VERSIONGUID
  2
{9A45F6BB-969C-4C17-9BE4-7093456C3AB4}
  9
$EXTNAMES
290
1
  9
$PSVPSCALE
 40
0.0
  9
$OLESTARTUP
290
0
  0
ENDSEC
  0
SECTION
  2
CLASSES
  0
CLASS
  1
ACDBDICTIONARYWDFLT
  2
AcDbDictionaryWithDefault
  3
ObjectDBX Classes
 90
0
280
0
281
0
  0
CLASS
  1
SUN
  2
AcDbSun
  3
SCENEOE
 90
1153
280
0
281
0
  0
CLASS
  1
VISUALSTYLE
  2
AcDbVisualStyle
  3
ObjectDBX Classes
 90
4095
280
0
281
0
  0
CLASS
  1
MATERIAL
  2
AcDbMaterial
  3
ObjectDBX Classes
 90
1153
280
0
281
0
  0
CLASS
  1
SCALE
  2
AcDbScale
  3
ObjectDBX Classes
 90
1153
280
0
281
0
  0
CLASS
  1
TABLESTYLE
  2
AcDbTableStyle
  3
ObjectDBX Classes
 90
4095
280
0
281
0
  0
CLASS
  1
MLEADERSTYLE
  2
AcDbMLeaderStyle
  3
ACDB_MLEADERSTYLE_CLASS
 90
4095
280
0
281
0
  0
CLASS
  1
DICTIONARYVAR
  2
AcDbDictionaryVar
  3
ObjectDBX Classes
 90
0
280
0
281
0
  0
CLASS
  1
CELLSTYLEMAP
  2
AcDbCellStyleMap
  3
ObjectDBX Classes
 90
1152
280
0
281
0
  0
CLASS
  1
MENTALRAYRENDERSETTINGS
  2
AcDbMentalRayRenderSettings
  3
SCENEOE
 90
1024
280
0
281
0
  0
CLASS
  1
ACDBDETAILVIEWSTYLE
  2
AcDbDetailViewStyle
  3
ObjectDBX Classes
 90
1025
280
0
281
0
  0
CLASS
  1
ACDBSECTIONVIEWSTYLE
  2
AcDbSectionViewStyle
  3
ObjectDBX Classes
 90
1025
280
0
281
0
  0
CLASS
  1
RASTERVARIABLES
  2
AcDbRasterVariables
  3
ISM
 90
0
280
0
281
0
  0
CLASS
  1
ACDBPLACEHOLDER
  2
AcDbPlaceHolder
  3
ObjectDBX Classes
 90
0
280
0
281
0
  0
CLASS
  1
LAYOUT
  2
AcDbLayout
  3
ObjectDBX Classes
 90
0
280
0
281
0
  0
ENDSEC
  0
SECTION
  2
TABLES
  0
TABLE
  2
VPORT
  5
8
330
0
100
AcDbSymbolTable
 70
1
  0
VPORT
  5
23
330
8
100
AcDbSymbolTableRecord
100
AcDbViewportTableRecord
  2
*Active
 70
0
 10
0.0
 20
0.0
 11
1.0
 21
1.0
 12
0.0
 22
0.0
 13
0.0
 23
0.0
 14
0.5
 24
0.5
 15
0.5
 25
0.5
 16
0.0
 26
0.0
 36
1.0
 17
0.0
 27
0.0
 37
0.0
 40
1000.0
 41
1.34
 42
50.0
 43
0.0
 44
0.0
 50
0.0
 51
0.0
 71
0
 72
1000
 73
1
 74
3
 75
0
 76
0
 77
0
 78
0
281
0
 65
0
146
0.0
  0
ENDTAB
  0
TABLE
  2
LTYPE
  5
2
330
0
100
AcDbSymbolTable
 70
3
  0
LTYPE
  5
24
330
2
100
AcDbSymbolTableRecord
100
AcDbLinetypeTableRecord
  2
ByBlock
 70
0
  3

 72
65
 73
0
 40
0.0
  0
LTYPE
  5
25
330
2
100
AcDbSymbolTableRecord
100
AcDbLinetypeTableRecord
  2
ByLayer
 70
0
  3

 72
65
 73
0
 40
0.0
  0
LTYPE
  5
26
330
2
100
AcDbSymbolTableRecord
100
AcDbLinetypeTableRecord
  2
Continuous
 70
0
  3

 72
65
 73
0
 40
0.0
  0
ENDTAB
  0
TABLE
  2
LAYER
  5
1
330
0
100
AcDbSymbolTable
 70
2
  0
LAYER
  5
27
330
1
100
AcDbSymbolTableRecord
100
AcDbLayerTableRecord
  2
0
 70
0
 62
7
  6
Continuous
370
-3
390
13
  0
LAYER
  5
28
330
1
100
AcDbSymbolTableRecord
100
AcDbLayerTableRecord
  2
Defpoints
 70
0
 62
7
  6
Continuous
290
0
370
-3
390
13
  0
ENDTAB
  0
TABLE
  2
STYLE
  5
5
330
0
100
AcDbSymbolTable
 70
1
  0
STYLE
  5
29
330
5
100
AcDbSymbolTableRecord
100
AcDbTextStyleTableRecord
  2
Standard
 70
0
 40
0.0
 41
1.0
 50
0.0
 71
0
 42
2.5
  3
txt
  4

  0
ENDTAB
  0
TABLE
  2
VIEW
  5
7
330
0
100
AcDbSymbolTable
 70
0
  0
ENDTAB
  0
TABLE
  2
UCS
  5
6
330
0
100
AcDbSymbolTable
 70
0
  0
ENDTAB
  0
TABLE
  2
APPID
  5
3
330
0
100
AcDbSymbolTable
 70
3
  0
APPID
  5
2A
330
3
100
AcDbSymbolTableRecord
100
AcDbRegAppTableRecord
  2
ACAD
 70
0
  0
APPID
  5
39
330
3
100
AcDbSymbolTableRecord
100
AcDbRegAppTableRecord
  2
HATCHBACKGROUNDCOLOR
 70
0
  0
APPID
  5
3A
330
3
100
AcDbSymbolTableRecord
100
AcDbRegAppTableRecord
  2
EZDXF
 70
0
  0
ENDTAB
  0
TABLE
  2
DIMSTYLE
  5
4
330
0
100
AcDbSymbolTable
 70
1
100
AcDbDimStyleTable
  0
DIMSTYLE
105
2B
330
4
100
AcDbSymbolTableRecord
100
AcDbDimStyleTableRecord
  2
Standard
 70
0
  3

  4

 40
1.0
 41
2.5
 42
0.625
 43
3.75
 44
1.25
 45
0.0
 46
0.0
 47
0.0
 48
0.0
140
2.5
141
2.5
142
0.0
143
0.03937007874
144
1.0
145
0.0
146
1.0
147
0.625
148
0.0
 71
0
 72
0
 73
0
 74
0
 75
0
 76
0
 77
1
 78
8
 79
3
170
0
171
3
172
1
173
0
174
0
175
0
176
0
177
0
178
0
179
2
271
2
272
2
273
2
274
3
275
0
276
0
277
2
278
44
279
0
280
0
281
0
282
0
283
0
284
8
285
0
286
0
288
0
289
3
371
-2
372
-2
  0
ENDTAB
  0
TABLE
  2
BLOCK_RECORD
  5
9
330
0
100
AcDbSymbolTable
 70
2
  0
BLOCK_RECORD
  5
17
330
9
100
AcDbSymbolTableRecord
100
AcDbBlockTableRecord
  2
*Model_Space
340
1A
  0
BLOCK_RECORD
  5
1B
330
9
100
AcDbSymbolTableRecord
100
AcDbBlockTableRecord
  2
*Paper_Space
340
1E
  0
ENDTAB
  0
ENDSEC
  0
SECTION
  2
BLOCKS
  0
BLOCK
  5
18
330
17
100
AcDbEntity
  8
0
100
AcDbBlockBegin
  2
*Model_Space
 70
0
 10
0.0
 20
0.0
 30
0.0
  3
*Model_Space
  1

  0
ENDBLK
  5
19
330
17
100
AcDbEntity
  8
0
100
AcDbBlockEnd
  0
BLOCK
  5
1C
330
1B
100
AcDbEntity
  8
0
100
AcDbBlockBegin
  2
*Paper_Space
 70
0
 10
0.0
 20
0.0
 30
0.0
  3
*Paper_Space
  1

  0
ENDBLK
  5
1D
330
1B
100
AcDbEntity
  8
0
100
AcDbBlockEnd
  0
ENDSEC
  0
SECTION
  2
ENTITIES
  0
POINT
  5
2F
330
17
100
AcDbEntity
  8
0
100
AcDbPoint
 10
0.0
 20
0.0
 30
0.0
  0
LWPOLYLINE
  5
30
330
17
100
AcDbEntity
  8
0
100
AcDbPolyline
 90
600
 70
0
 10
0.0
 20
32.45
 10
0.6411371317488016
 20
32.42244550159171
 10
1.271852605344105
 20
32.341307192965765
 10
1.882927515756141
 20
32.21087911287024
 10
2.4672149243047015
 20
32.03748864165638
 10
3.0199987258007286
 20
31.82856812575288
 10
3.538871322389304
 20
31.591804094360203
 10
4.023297399132107
 20
31.334530883946215
 10
4.474059405182372
 20
31.063405552986247
 10
4.8927311906619755
 20
30.78431154804472
 10
5.281254428048408
 20
30.502406170639638
 10
5.64163479584769
 20
30.222234313537275
 10
5.975742495239346
 20
29.94785429642029
 10
6.285190140526793
 20
29.68294485346299
 10
6.571261878558614
 20
29.43087884793931
 10
6.834873887303946
 20
29.194758518203237
 10
7.076554329347759
 20
28.9774108237974
 10
7.296438909239791
 20
28.781342058830653
 10
7.494286228863562
 20
28.608650491659407
 10
7.669525325933675
 20
28.460896496318156
 10
7.821355732575201
 20
28.33893382601221
 10
7.948926129163592
 20
28.24271592372256
 10
8.05161657471155
 20
28.17110931253538
 10
8.129433909074521
 20
28.121770709463597
 10
8.183492635995675
 20
28.091166830481363
 10
8.216494486132646
 20
28.074817327191617
 10
8.233058108981341
 20
28.06779903437996
 10
8.239728280141902
 20
28.065455848053542
 10
8.244556504735607
 20
28.064144713529107
 10
8.256293981076851
 20
28.06178507427381
 10
8.283403444940033
 20
28.058027989730203
 10
8.333174173168029
 20
28.054010050876176
 10
8.411163674424335
 20
28.051816856681747
 10
8.521038375910727
 20
28.053858295586927
 10
8.664742161603922
 20
28.06233045885576
 10
8.842852007785485
 20
28.078853293749635
 10
9.05498595766803
 20
28.104290029706625
 10
9.300174096576782
 20
28.138706359655167
 10
9.577152133979906
 20
28.181414545584563
 10
9.88457154527675
 20
28.231055538641293
 10
10.221137408152504
 20
28.285686836309644
 10
10.585689635654209
 20
28.342857179905593
 10
10.977240725961087
 20
28.399658731492995
 10
11.394977317971325
 20
28.452753462727348
 10
11.838225932491527
 20
28.4983747222853
 10
12.306376450993328
 20
28.532309196417167
 10
12.798751197645545
 20
28.54987056306586
 10
13.314404804101201
 20
28.545885549309016
 10
13.851843760414129
 20
28.514726245115043
 10
14.408669770762849
 20
28.45043715726039
 10
14.981182806886922
 20
28.347014384448297
 10
15.564028073595622
 20
28.198883822877473
 10
16.15002245201859
 20
28.001578942819425
 10
16.730317291835618
 20
27.752530277440474
 10
17.295002700131626
 20
27.451773179849795
 10
17.834116001966258
 20
27.102321492372848
 10
18.338832792474793
 20
26.710012450867907
 10
18.802503086199323
 20
26.282809844464833
 10
19.221238488044605
 20
25.829766534829623
 10
19.593942004662534
 20
25.359962666596864
 10
19.921882072205424
 20
24.881692211288634
 10
20.20803025021668
 20
24.40202152408163
 10
20.456377736215813
 20
23.926693157821976
 10
20.671367416130057
 20
23.46026439152891
 10
20.85749011292441
 20
23.006358126097734
 10
21.019033324226186
 20
22.567933557196447
 10
21.15994388435393
 20
22.147523557790713
 10
21.283762460114698
 20
21.74741722619128
 10
21.39359537362422
 20
21.36978484041762
 10
21.492099699975665
 20
21.016750479322035
 10
21.58146711039688
 20
20.690418541997513
 10
21.663399681676903
 20
20.392857506681395
 10
21.739077540462535
 20
20.126039749469932
 10
21.809124999859797
 20
19.891731793245622
 10
21.873589967751194
 20
19.69132685814847
 10
21.93196129130709
 20
19.525613765891077
 10
21.98325885845641
 20
19.39448690688355
 10
22.02623669103665
 20
19.29662490449769
 10
22.05973041412532
 20
19.22920109471866
 10
22.083145754631147
 20
19.187727675869986
 10
22.097019682981042
 20
19.16615353126718
 10
22.103508147217863
 20
19.157300653584052
 10
22.106610824907797
 20
19.153619253563242
 10
22.111987355544933
 20
19.148099235140528
 10
22.12635987357179
 20
19.13507827872637
 10
22.15666530356517
 20
19.110710195383167
 10
22.209213627164598
 20
19.07299767469655
 10
22.289072706877686
 20
19.02146245966729
 10
22.399776304775475
 20
18.956626642679623
 10
22.54332540535882
 20
18.87948006047579
 10
22.7203828428038
 20
18.791046221141666
 10
22.930553238712875
 20
18.692086326859854
 10
23.172668117714576
 20
18.582930406937855
 10
23.445031712262026
 20
18.463402262975563
 10
23.74561071967153
 20
18.332802501306432
 10
24.07216719759216
 20
18.189920979368054
 10
24.422339983398906
 20
18.033059512642907
 10
24.793680112300933
 20
17.86005454985626
 10
25.183642777802643
 20
17.668297176336786
 10
25.589534672144122
 20
17.454754951127928
 10
26.0084129106144
 20
17.216007762642786
 10
26.436932265123136
 20
16.948318773876466
 10
26.871143885604184
 20
16.64777107064372
 10
27.306264339959945
 20
16.31050779642649
 10
27.736460730167284
 20
15.933111476726928
 10
28.154732719576668
 20
15.513136152655118
 10
28.553001520312645
 20
15.049753617610628
 10
28.922511855880416
 20
14.544394389510138
 10
29.254585398214008
 20
14.001184375808318
 10
29.54162932917314
 20
13.426958103274952
 10
29.778154456875942
 20
12.830723312676064
 10
29.961491851996765
 20
12.222649387955336
 10
30.09198444491255
 20
11.612852381295829
 10
30.17263463940866
 20
11.010324959436181
 10
30.20838620707502
 20
10.422266457514226
 10
30.205300137924507
 20
9.853881267523047
 10
30.169837640404765
 20
9.308551278986176
 10
30.108354757109446
 20
8.788217350766953
 10
30.026814281120064
 20
8.293818383256136
 10
29.93066560275213
 20
7.825690172533383
 10
29.824828976002326
 20
7.383880768821649
 10
29.71372984851294
 20
6.9683764416566785
 10
29.601345429088592
 20
6.579250957792354
 10
29.491240707549263
 20
6.216756041387408
 10
29.386581726468837
 20
5.881368508840453
 10
29.290120293190885
 20
5.573803723117191
 10
29.20414805353262
 20
5.2949978496988415
 10
29.130420833508133
 20
5.046053906389887
 10
29.07005839887473
 20
4.82813952135122
 10
29.023432260590624
 20
4.642319082622879
 10
28.990066304946186
 20
4.489302625302745
 10
28.96859134239461
 20
4.369103507784304
 10
28.956810210648737
 20
4.280622829674687
 10
28.95193307736513
 20
4.221223317735271
 10
28.951015993413954
 20
4.186409783186843
 10
28.951567939241396
 20
4.169768438411724
 10
28.952196104882155
 20
4.163291281943344
 10
28.95308643190677
 20
4.158100168492484
 10
28.956130810430974
 20
4.145421885227038
 10
28.964633961236387
 20
4.11754330284033
 10
28.982700757662254
 20
4.068479905354883
 10
29.014515978391202
 20
3.994221299204343
 10
29.063725726044016
 20
3.8925860230156735
 10
29.133040090299467
 20
3.762829308029989
 10
29.224071077812745
 20
3.605167323986321
 10
29.337351151658645
 20
3.4203376520075945
 10
29.47245677826061
 20
3.2092544863459223
 10
29.62817202364658
 20
2.9727690722561873
 10
29.8026490518679
 20
2.7115198722317646
 10
29.993542360822012
 20
2.4258487076340005
 10
30.198107025201818
 20
2.1157611830028773
 10
30.413258315162576
 20
1.780916250894537
 10
30.635592889895936
 20
1.4206376606589148
 10
30.8613726631052
 20
1.0339480759685737
 10
31.086473573135574
 20
0.619634611062142
 10
31.306304964895936
 20
0.17636217872564508
 10
31.51571322261744
 20
-0.29714283701356403
 10
31.708897392815548
 20
-0.8018146208395047
 10
31.879384598234637
 20
-1.3378607364383042
 10
32.02013401246012
 20
-1.9042779233348281
 10
32.12384680166672
 20
-2.4983334924906893
 10
32.18353461688911
 20
-3.1151415405735596
 10
32.19332270398017
 20
-3.7475161645531836
 10
32.14934375175997
 20
-4.386272678459169
 10
32.050470298602505
 20
-5.021032958000686
 10
31.89862124324836
 20
-5.641395386310514
 10
31.698507394927812
 20
-6.238156405347132
 10
31.45689673029767
 20
-6.804237036282044
 10
31.181652785997642
 20
-7.3351017002656445
 10
30.880833186943846
 20
-7.8286672071200325
 10
30.562040054412922
 20
-8.284860363024963
 10
30.232075324065992
 20
-8.70503089117928
 10
29.89685032408933
 20
-9.091383829192669
 10
29.561457062692316
 20
-9.446519569997752
 10
29.23031383396772
 20
-9.773104477424573
 10
28.907323439880347
 20
-10.073656665121444
 10
28.596009139667252
 20
-10.350417027953096
 10
28.299612882096337
 20
-10.605275652725972
 10
28.021151296926284
 20
-10.839730258217589
 10
27.763429270096765
 20
-11.05486162387531
 10
27.5290112512921
 20
-11.25131918273611
 10
27.320149018724337
 20
-11.429317866530129
 10
27.138663513440974
 20
-11.588655347346295
 10
26.98577979240307
 20
-11.728767270237242
 10
26.861920838835836
 20
-11.848846023086287
 10
26.766480704186435
 20
-11.948052851610624
 10
26.697621324307374
 20
-12.025847257243298
 10
26.652165966883782
 20
-12.082432740930056
 10
26.625681312655086
 20
-12.119268006978874
 10
26.612825519980863
 20
-12.13952537792476
 10
26.60797016261798
 20
-12.14832538638645
 10
26.605987831414303
 20
-12.152588293509316
 10
26.602990077810567
 20
-12.160451040146421
 10
26.596780570698336
 20
-12.180368593250938
 10
26.586889788229822
 20
-12.220154706641472
 10
26.574225773937947
 20
-12.28623029962756
 10
26.560507215324673
 20
-12.38323632823919
 10
26.547675419940855
 20
-12.514013712125726
 10
26.537424598804755
 20
-12.679843724633782
 10
26.530903654463344
 20
-12.880811292045836
 10
26.528575985116433
 20
-13.116180322894301
 10
26.530192532266305
 20
-13.384717000881489
 10
26.534829742880646
 20
-13.68493747654238
 10
26.540954149473876
 20
-14.015281169952766
 10
26.546488286691336
 20
-14.374221338517868
 10
26.548863623101056
 20
-14.760325598981623
 10
26.545054018983336
 20
-15.17227518717274
 10
26.531588822615465
 20
-15.608845790367688
 10
26.504549692659367
 20
-16.06884646523628
 10
26.45956129012117
 20
-16.551007704993257
 10
26.391794554106657
 20
-17.05380683221781
 10
26.296012889856243
 20
-17.575221454780024
 10
26.1667045827696
 20
-18.11241407755887
 10
25.998353246307776
 20
-18.661377775682375
 10
25.785890515391976
 20
-19.216615143045598
 10
25.525336327195713
 20
-19.770970710073584
 10
25.21455366770135
 20
-20.315763302475315
 10
24.853943824607395
 20
-20.841329327799407
 10
24.44683990499969
 20
-21.337966016023273
 10
23.9993914494232
 20
-21.797087218105265
 10
23.51989572819034
 20
-22.21227152492048
 10
23.01774963409817
 20
-22.579894262538556
 10
22.50233790433248
 20
-22.899200707985063
 10
21.98215573858607
 20
-23.171894833940183
 10
21.464320135581975
 20
-23.401459055232138
 10
20.95445956293942
 20
-23.592434682692673
 10
20.456869460337856
 20
-23.749818063573553
 10
19.97479887343427
 20
-23.878632508478262
 10
19.510762452089764
 20
-23.983667007491174
 10
19.066815964644103
 20
-24.069340327184577
 10
18.64477015115355
 20
-24.139643751495218
 10
18.24634023043118
 20
-24.198123766366553
 10
17.873238348491427
 20
-24.247877584378994
 10
17.527217904787502
 20
-24.291544825027103
 10
17.21007572889696
 20
-24.331286697609656
 10
16.923612998974956
 20
-24.368750294229695
 10
16.66955023597821
 20
-24.405021453510397
 10
16.449387203903374
 20
-24.44057661370967
 10
16.264197315183353
 20
-24.475253276309864
 10
16.114351675751944
 20
-24.508270020868572
 10
15.999184717326985
 20
-24.538337515197675
 10
15.916644715155881
 20
-24.563904136703492
 10
15.863015031270614
 20
-24.5835615511534
 10
15.832828667215358
 20
-24.596585741989387
 10
15.819097589290234
 20
-24.603510977343433
 10
15.813907952655969
 20
-24.60656075484845
 10
15.809296372867564
 20
-24.609747925332393
 10
15.79818341531233
 20
-24.61854651353481
 10
15.775091093101809
 20
-24.639202693158058
 10
15.736456210980366
 20
-24.677896867929242
 10
15.680519500507422
 20
-24.740004166330433
 10
15.606916903952198
 20
-24.829619596561127
 10
15.51615420143111
 20
-24.94938556775056
 10
15.409114278134764
 20
-25.100559969719388
 10
15.286676707716573
 20
-25.283224213202182
 10
15.149466743980081
 20
-25.496540305431648
 10
14.997714062296073
 20
-25.738996488695726
 10
14.83118880844458
 20
-26.00861103863417
 10
14.64918423366616
 20
-26.303084449262812
 10
14.450522940663236
 20
-26.619900770351833
 10
14.233572667073798
 20
-26.956382068980055
 10
13.996265807055106
 20
-27.309699022978972
 10
13.736124528600971
 20
-27.676838071982914
 10
13.450301102843001
 20
-28.054523394993108
 10
13.135651528805395
 20
-28.439092286041454
 10
12.788869373925092
 20
-28.826327737781778
 10
12.406713564837174
 20
-29.211265089657736
 10
11.98636295035378
 20
-29.588012500438587
 10
11.525912465549112
 20
-29.949655798483636
 10
11.02498074533966
 20
-30.28834599921994
 10
10.485326060443477
 20
-30.595669260285046
 10
9.91128870574322
 20
-30.863345494940706
 10
9.309845106741104
 20
-31.084182865060832
 10
8.690129299411216
 20
-31.253069911277503
 10
8.062458292056977
 20
-31.36770443731569
 10
7.43710651890758
 20
-31.428818157446457
 10
6.823180963036987
 20
-31.439846686044508
 10
6.227883251124895
 20
-31.406203137471262
 10
5.656261474951494
 20
-31.33441917159328
 10
5.1113737783009
 20
-31.231386391589993
 10
4.594693695542242
 20
-31.103821195094596
 10
4.10659003978104
 20
-30.957966775109117
 10
3.646768442862366
 20
-30.799480897596816
 10
3.214622382915851
 20
-30.633439249462036
 10
2.809485141941291
 20
-30.464393281600643
 10
2.430796705640204
 20
-30.296440132144852
 10
2.0782065324625987
 20
-30.133279553420767
 10
1.751631152616981
 20
-29.978244901228805
 10
1.45127957797573
 20
-29.834302239993633
 10
1.177652094031397
 20
-29.704015085408635
 10
0.9315102004914462
 20
-29.589474243248404
 10
0.7138076999188105
 20
-29.492194673665107
 10
0.5255659776450734
 20
-29.412986461099994
 10
0.36767246556673916
 20
-29.35181685873624
 10
0.24058442321289775
 20
-29.307696059509745
 10
0.14393695499506665
 20
-29.278638725170932
 10
0.07609060131067946
 20
-29.261768015910523
 10
0.03370837991741038
 20
-29.25362272770257
 10
0.011505900574222405
 20
-29.25068272243693
 10
0.0023317654928830256
 20
-29.250039507732602
 10
-0.00233176549288297
 20
-29.250039507732602
 10
-0.011505900574222294
 20
-29.25068272243693
 10
-0.03370837991741016
 20
-29.25362272770257
 10
-0.07609060131067757
 20
-29.261768015910523
 10
-0.14393695499506642
 20
-29.278638725170932
 10
-0.24058442321289353
 20
-29.307696059509745
 10
-0.3676724655667236
 20
-29.35181685873624
 10
-0.5255659776450641
 20
-29.41298646109999
 10
-0.7138076999187926
 20
-29.492194673665107
 10
-0.9315102004914415
 20
-29.5894742432484
 10
-1.1776520940313921
 20
-29.70401508540863
 10
-1.451279577975724
 20
-29.83430223999363
 10
-1.751631152616973
 20
-29.978244901228802
 10
-2.0782065324625907
 20
-30.133279553420767
 10
-2.430796705640196
 20
-30.29644013214485
 10
-2.8094851419412827
 20
-30.46439328160064
 10
-3.214622382915841
 20
-30.633439249462036
 10
-3.6467684428623555
 20
-30.79948089759681
 10
-4.106590039781029
 20
-30.957966775109114
 10
-4.5946936955422295
 20
-31.103821195094596
 10
-5.1113737783008855
 20
-31.231386391589993
 10
-5.656261474951453
 20
-31.334419171593268
 10
-6.227883251124852
 20
-31.406203137471255
 10
-6.823180963036952
 20
-31.439846686044508
 10
-7.437106518907563
 20
-31.428818157446454
 10
-8.06245829205697
 20
-31.367704437315695
 10
-8.6901292994112
 20
-31.253069911277507
 10
-9.309845106741097
 20
-31.084182865060836
 10
-9.911288705743205
 20
-30.86334549494071
 10
-10.485326060443471
 20
-30.59566926028505
 10
-11.024980745339649
 20
-30.288345999219946
 10
-11.525912465549105
 20
-29.949655798483636
 10
-11.986362950353769
 20
-29.588012500438595
 10
-12.406713564837169
 20
-29.211265089657736
 10
-12.788869373925083
 20
-28.82632773778179
 10
-13.135651528805386
 20
-28.439092286041458
 10
-13.45030110284298
 20
-28.054523394993137
 10
-13.73612452860095
 20
-27.67683807198293
 10
-13.996265807055094
 20
-27.309699022978997
 10
-14.233572667073794
 20
-26.956382068980073
 10
-14.45052294066323
 20
-26.61990077035184
 10
-14.649184233666158
 20
-26.303084449262826
 10
-14.83118880844458
 20
-26.008611038634175
 10
-14.997714062296073
 20
-25.738996488695733
 10
-15.14946674398008
 20
-25.496540305431658
 10
-15.286676707716575
 20
-25.283224213202192
 10
-15.40911427813476
 20
-25.10055996971939
 10
-15.516154201431112
 20
-24.94938556775056
 10
-15.606916903952195
 20
-24.82961959656113
 10
-15.680519500507426
 20
-24.740004166330433
 10
-15.736456210980364
 20
-24.677896867929245
 10
-15.77509109310181
 20
-24.63920269315806
 10
-15.798183415312325
 20
-24.618546513534813
 10
-15.80929637286757
 20
-24.609747925332393
 10
-15.81390795265596
 20
-24.606560754848456
 10
-15.819097589290232
 20
-24.60351097734343
 10
-15.832828667215363
 20
-24.59658574198938
 10
-15.863015031270614
 20
-24.5835615511534
 10
-15.916644715155872
 20
-24.563904136703496
 10
-15.999184717326981
 20
-24.53833751519768
 10
-16.114351675751948
 20
-24.508270020868572
 10
-16.26419731518335
 20
-24.475253276309864
 10
-16.44938720390337
 20
-24.440576613709673
 10
-16.669550235978203
 20
-24.405021453510397
 10
-16.92361299897495
 20
-24.36875029422969
 10
-17.210075728896953
 20
-24.331286697609656
 10
-17.527217904787484
 20
-24.29154482502711
 10
-17.873238348491405
 20
-24.247877584379
 10
-18.246340230431148
 20
-24.198123766366557
 10
-18.644770151153548
 20
-24.139643751495225
 10
-19.066815964644096
 20
-24.069340327184584
 10
-19.51076245208976
 20
-23.983667007491178
 10
-19.97479887343426
 20
-23.878632508478265
 10
-20.45686946033785
 20
-23.749818063573553
 10
-20.95445956293941
 20
-23.592434682692677
 10
-21.46432013558197
 20
-23.401459055232145
 10
-21.982155738586062
 20
-23.171894833940193
 10
-22.502337904332478
 20
-22.89920070798507
 10
-23.01774963409816
 20
-22.579894262538563
 10
-23.51989572819034
 20
-22.212271524920492
 10
-23.999391449423193
 20
-21.797087218105275
 10
-24.446839904999667
 20
-21.3379660160233
 10
-24.85394382460739
 20
-20.841329327799418
 10
-25.214553667701335
 20
-20.315763302475336
 10
-25.525336327195706
 20
-19.7709707100736
 10
-25.785890515391973
 20
-19.21661514304562
 10
-25.99835324630777
 20
-18.661377775682386
 10
-26.166704582769597
 20
-18.112414077558892
 10
-26.296012889856243
 20
-17.57522145478004
 10
-26.391794554106653
 20
-17.05380683221783
 10
-26.45956129012117
 20
-16.55100770499327
 10
-26.50454969265937
 20
-16.068846465236298
 10
-26.53158882261546
 20
-15.608845790367702
 10
-26.54505401898334
 20
-15.172275187172751
 10
-26.548863623101056
 20
-14.760325598981632
 10
-26.54648828669134
 20
-14.37422133851788
 10
-26.540954149473876
 20
-14.015281169952786
 10
-26.53482974288065
 20
-13.684937476542405
 10
-26.530192532266305
 20
-13.38471700088151
 10
-26.528575985116436
 20
-13.116180322894317
 10
-26.53090365446334
 20
-12.880811292045852
 10
-26.53742459880476
 20
-12.679843724633793
 10
-26.547675419940852
 20
-12.514013712125736
 10
-26.560507215324677
 20
-12.383236328239194
 10
-26.574225773937947
 20
-12.286230299627567
 10
-26.586889788229826
 20
-12.22015470664147
 10
-26.596780570698336
 20
-12.180368593250943
 10
-26.60299007781056
 20
-12.160451040146427
 10
-26.605987831414307
 20
-12.152588293509314
 10
-26.60797016261798
 20
-12.148325386386453
 10
-26.612825519980863
 20
-12.139525377924755
 10
-26.625681312655086
 20
-12.119268006978876
 10
-26.652165966883782
 20
-12.08243274093005
 10
-26.697621324307374
 20
-12.0258472572433
 10
-26.76648070418644
 20
-11.948052851610619
 10
-26.861920838835832
 20
-11.848846023086292
 10
-26.98577979240306
 20
-11.728767270237245
 10
-27.13866351344097
 20
-11.588655347346299
 10
-27.320149018724337
 20
-11.429317866530134
 10
-27.529011251292093
 20
-11.251319182736115
 10
-27.76342927009676
 20
-11.054861623875317
 10
-28.021151296926277
 20
-10.839730258217593
 10
-28.29961288209633
 20
-10.605275652725977
 10
-28.59600913966724
 20
-10.350417027953107
 10
-28.907323439880333
 20
-10.073656665121458
 10
-29.230313833967713
 20
-9.773104477424589
 10
-29.561457062692295
 20
-9.446519569997768
 10
-29.896850324089318
 20
-9.091383829192685
 10
-30.232075324065974
 20
-8.705030891179302
 10
-30.562040054412915
 20
-8.284860363024983
 10
-30.88083318694382
 20
-7.8286672071200645
 10
-31.181652785997617
 20
-7.335101700265675
 10
-31.456896730297647
 20
-6.804237036282085
 10
-31.698507394927802
 20
-6.238156405347167
 10
-31.898621243248346
 20
-5.641395386310559
 10
-32.0504702986025
 20
-5.021032958000727
 10
-32.149343751759965
 20
-4.386272678459216
 10
-32.19332270398017
 20
-3.747516164553175
 10
-32.18353461688911
 20
-3.1151415405735565
 10
-32.12384680166672
 20
-2.4983334924906955
 10
-32.02013401246012
 20
-1.9042779233348275
 10
-31.879384598234644
 20
-1.337860736438311
 10
-31.708897392815544
 20
-0.801814620839504
 10
-31.515713222617443
 20
-0.29714283701356714
 10
-31.306304964895933
 20
0.17636217872564397
 10
-31.086473573135578
 20
0.6196346110621309
 10
-30.861372663105197
 20
1.0339480759685662
 10
-30.63559288989594
 20
1.4206376606589042
 10
-30.413258315162576
 20
1.7809162508945295
 10
-30.19810702520182
 20
2.1157611830028693
 10
-29.993542360822012
 20
2.4258487076339925
 10
-29.802649051867906
 20
2.711519872231756
 10
-29.628172023646577
 20
2.9727690722561793
 10
-29.472456778260618
 20
3.2092544863459147
 10
-29.337351151658652
 20
3.4203376520075848
 10
-29.22407107781275
 20
3.605167323986316
 10
-29.13304009029947
 20
3.76282930802998
 10
-29.063725726044023
 20
3.892586023015671
 10
-29.014515978391202
 20
3.9942212992043338
 10
-28.982700757662254
 20
4.068479905354883
 10
-28.96463396123639
 20
4.117543302840325
 10
-28.956130810430977
 20
4.145421885227039
 10
-28.95308643190677
 20
4.158100168492477
 10
-28.95219610488216
 20
4.163291281943347
 10
-28.9515679392414
 20
4.169768438411716
 10
-28.95101599341395
 20
4.186409783186841
 10
-28.95193307736513
 20
4.221223317735261
 10
-28.956810210648737
 20
4.28062282967468
 10
-28.96859134239461
 20
4.369103507784306
 10
-28.990066304946183
 20
4.489302625302751
 10
-29.023432260590624
 20
4.642319082622878
 10
-29.070058398874732
 20
4.828139521351216
 10
-29.130420833508133
 20
5.046053906389888
 10
-29.204148053532613
 20
5.294997849698843
 10
-29.290120293190885
 20
5.573803723117191
 10
-29.386581726468844
 20
5.881368508840445
 10
-29.491240707549263
 20
6.2167560413873995
 10
-29.60134542908859
 20
6.579250957792343
 10
-29.71372984851294
 20
6.968376441656669
 10
-29.824828976002326
 20
7.383880768821641
 10
-29.930665602752125
 20
7.8256901725333705
 10
-30.02681428112006
 20
8.29381838325612
 10
-30.108354757109442
 20
8.788217350766942
 10
-30.16983764040477
 20
9.308551278986158
 10
-30.205300137924503
 20
9.853881267523022
 10
-30.208386207075016
 20
10.422266457514189
 10
-30.17263463940866
 20
11.010324959436156
 10
-30.091984444912555
 20
11.612852381295815
 10
-29.961491851996772
 20
12.222649387955311
 10
-29.77815445687595
 20
12.830723312676032
 10
-29.54162932917316
 20
13.426958103274915
 10
-29.254585398214026
 20
14.00118437580829
 10
-28.92251185588044
 20
14.544394389510105
 10
-28.553001520312677
 20
15.049753617610591
 10
-28.154732719576693
 20
15.51313615265509
 10
-27.736460730167302
 20
15.933111476726905
 10
-27.30626433995997
 20
16.310507796426464
 10
-26.871143885604173
 20
16.647771070643724
 10
-26.436932265123144
 20
16.948318773876466
 10
-26.0084129106144
 20
17.216007762642786
 10
-25.589534672144133
 20
17.454754951127928
 10
-25.18364277780264
 20
17.668297176336782
 10
-24.79368011230094
 20
17.860054549856265
 10
-24.422339983398906
 20
18.033059512642904
 10
-24.072167197592172
 20
18.189920979368054
 10
-23.745610719671532
 20
18.33280250130643
 10
-23.445031712262036
 20
18.463402262975563
 10
-23.172668117714586
 20
18.58293040693785
 10
-22.930553238712886
 20
18.692086326859858
 10
-22.720382842803804
 20
18.791046221141663
 10
-22.54332540535882
 20
18.87948006047579
 10
-22.39977630477548
 20
18.956626642679623
 10
-22.289072706877683
 20
19.02146245966729
 10
-22.209213627164598
 20
19.07299767469654
 10
-22.15666530356517
 20
19.11071019538317
 10
-22.126359873571793
 20
19.135078278726365
 10
-22.111987355544933
 20
19.14809923514053
 10
-22.106610824907797
 20
19.153619253563242
 10
-22.10350814721786
 20
19.15730065358406
 10
-22.097019682981042
 20
19.16615353126718
 10
-22.08314575463114
 20
19.187727675869994
 10
-22.05973041412532
 20
19.229201094718658
 10
-22.026236691036644
 20
19.296624904497683
 10
-21.983258858456413
 20
19.39448690688354
 10
-21.931961291307086
 20
19.525613765891073
 10
-21.873589967751194
 20
19.69132685814846
 10
-21.809124999859804
 20
19.891731793245604
 10
-21.73907754046254
 20
20.126039749469914
 10
-21.663399681676903
 20
20.3928575066814
 10
-21.58146711039688
 20
20.690418541997513
 10
-21.492099699975668
 20
21.016750479322035
 10
-21.393595373624215
 20
21.369784840417616
 10
-21.2837624601147
 20
21.74741722619128
 10
-21.15994388435393
 20
22.147523557790713
 10
-21.019033324226193
 20
22.567933557196447
 10
-20.85749011292441
 20
23.006358126097723
 10
-20.67136741613006
 20
23.460264391528906
 10
-20.456377736215817
 20
23.926693157821962
 10
-20.208030250216687
 20
24.40202152408162
 10
-19.92188207220543
 20
24.881692211288616
 10
-19.593942004662537
 20
25.359962666596854
 10
-19.221238488044616
 20
25.829766534829606
 10
-18.802503086199334
 20
26.282809844464822
 10
-18.338832792474808
 20
26.710012450867886
 10
-17.834116001966272
 20
27.102321492372837
 10
-17.295002700131654
 20
27.451773179849773
 10
-16.73031729183564
 20
27.752530277440464
 10
-16.15002245201862
 20
28.001578942819414
 10
-15.564028073595647
 20
28.198883822877463
 10
-14.981182806886956
 20
28.34701438444829
 10
-14.408669770762875
 20
28.45043715726038
 10
-13.851843760414166
 20
28.514726245115043
 10
-13.314404804101232
 20
28.545885549309016
 10
-12.798751197645581
 20
28.54987056306586
 10
-12.306376450993358
 20
28.53230919641717
 10
-11.838225932491557
 20
28.498374722285302
 10
-11.394977317971358
 20
28.452753462727355
 10
-10.977240725961115
 20
28.399658731492995
 10
-10.585689635654203
 20
28.342857179905582
 10
-10.221137408152503
 20
28.285686836309644
 10
-9.88457154527675
 20
28.231055538641293
 10
-9.577152133979906
 20
28.181414545584566
 10
-9.300174096576788
 20
28.13870635965516
 10
-9.054985957668034
 20
28.104290029706625
 10
-8.842852007785483
 20
28.07885329374963
 10
-8.66474216160392
 20
28.062330458855758
 10
-8.52103837591074
 20
28.05385829558692
 10
-8.41116367442434
 20
28.051816856681743
 10
-8.33317417316803
 20
28.054010050876176
 10
-8.283403444940022
 20
28.058027989730203
 10
-8.256293981076867
 20
28.061785074273807
 10
-8.244556504735614
 20
28.064144713529107
 10
-8.239728280141902
 20
28.065455848053546
 10
-8.233058108981329
 20
28.067799034379966
 10
-8.216494486132662
 20
28.07481732719161
 10
-8.183492635995684
 20
28.091166830481363
 10
-8.129433909074521
 20
28.1217707094636
 10
-8.051616574711545
 20
28.17110931253538
 10
-7.948926129163608
 20
28.242715923722557
 10
-7.821355732575213
 20
28.3389338260122
 10
-7.669525325933683
 20
28.46089649631815
 10
-7.494286228863567
 20
28.608650491659393
 10
-7.296438909239807
 20
28.781342058830653
 10
-7.076554329347773
 20
28.977410823797392
 10
-6.834873887303962
 20
29.19475851820322
 10
-6.57126187855863
 20
29.430878847939287
 10
-6.285190140526815
 20
29.682944853462978
 10
-5.975742495239368
 20
29.947854296420275
 10
-5.641634795847686
 20
30.222234313537285
 10
-5.281254428048405
 20
30.502406170639638
 10
-4.892731190661979
 20
30.784311548044712
 10
-4.474059405182379
 20
31.063405552986232
 10
-4.023297399132104
 20
31.33453088394622
 10
-3.5388713223893067
 20
31.591804094360203
 10
-3.0199987258007415
 20
31.828568125752874
 10
-2.467214924304693
 20
32.03748864165639
 10
-1.8829275157561411
 20
32.21087911287024
 10
-1.2718526053441164
 20
32.341307192965765
 10
-0.6411371317488246
 20
32.42244550159171
 10
-3.2816953478069826e-14
 20
32.45
  0
CIRCLE
  5
31
330
17
100
AcDbEntity
  8
0
100
AcDbCircle
 10
0.0
 20
0.0
 30
0.0
 40
28.610000000000007
  0
CIRCLE
  5
32
330
17
100
AcDbEntity
  8
0
100
AcDbCircle
 10
0.0
 20
0.0
 30
0.0
 40
25.090000000000003
  0
POINT
  5
33
330
17
100
AcDbEntity
  8
0
100
AcDbPoint
 10
0.0
 20
1.6
 30
0.0
  0
LWPOLYLINE
  5
34
330
17
100
AcDbEntity
  8
0
100
AcDbPolyline
 90
2
 70
0
 10
0.0
 20
0.0
 10
0.0
 20
1.6
  0
LWPOLYLINE
  5
35
330
17
100
AcDbEntity
  8
0
100
AcDbPolyline
 90
2
 70
0
 10
-6.0
 20
0.0
 10
6.0
 20
0.0
  0
LWPOLYLINE
  5
36
330
17
100
AcDbEntity
  8
0
100
AcDbPolyline
 90
2
 70
0
 10
-3.0
 20
1.6
 10
3.0
 20
1.6
  0
CIRCLE
  5
37
330
17
100
AcDbEntity
  8
0
100
AcDbCircle
 10
0.0
 20
1.6
 30
0.0
 40
22.850000000000005
  0
CIRCLE
  5
38
330
17
100
AcDbEntity
  8
0
100
AcDbCircle
 10
0.0
 20
0.0
 30
0.0
 40
37.5
  0
ENDSEC
  0
SECTION
  2
OBJECTS
  0
DICTIONARY
  5
A
330
0
100
AcDbDictionary
281
1
  3
ACAD_COLOR
350
B
  3
ACAD_GROUP
350
C
  3
ACAD_LAYOUT
350
D
  3
ACAD_MATERIAL
350
E
  3
ACAD_MLEADERSTYLE
350
F
  3
ACAD_MLINESTYLE
350
10
  3
ACAD_PLOTSETTINGS
350
11
  3
ACAD_PLOTSTYLENAME
350
12
  3
ACAD_SCALELIST
350
14
  3
ACAD_TABLESTYLE
350
15
  3
ACAD_VISUALSTYLE
350
16
  3
EZDXF_META
350
2D
  0
DICTIONARY
  5
B
330
A
100
AcDbDictionary
281
1
  0
DICTIONARY
  5
C
330
A
100
AcDbDictionary
281
1
  0
DICTIONARY
  5
D
330
A
100
AcDbDictionary
281
1
  3
Model
350
1A
  3
Layout1
350
1E
  0
DICTIONARY
  5
E
330
A
100
AcDbDictionary
281
1
  3
ByBlock
350
1F
  3
ByLayer
350
20
  3
Global
350
21
  0
DICTIONARY
  5
F
330
A
100
AcDbDictionary
281
1
  3
Standard
350
2C
  0
DICTIONARY
  5
10
330
A
100
AcDbDictionary
281
1
  3
Standard
350
22
  0
DICTIONARY
  5
11
330
A
100
AcDbDictionary
281
1
  0
ACDBDICTIONARYWDFLT
  5
12
330
A
100
AcDbDictionary
281
1
  3
Normal
350
13
100
AcDbDictionaryWithDefault
340
13
  0
ACDBPLACEHOLDER
  5
13
330
12
  0
DICTIONARY
  5
14
330
A
100
AcDbDictionary
281
1
  0
DICTIONARY
  5
15
330
A
100
AcDbDictionary
281
1
  0
DICTIONARY
  5
16
330
A
100
AcDbDictionary
281
1
  0
LAYOUT
  5
1A
330
D
100
AcDbPlotSettings
  1

  4
A3
  6

 40
7.5
 41
20.0
 42
7.5
 43
20.0
 44
420.0
 45
297.0
 46
0.0
 47
0.0
 48
0.0
 49
0.0
140
0.0
141
0.0
142
1.0
143
1.0
 70
1024
 72
1
 73
0
 74
5
  7

 75
16
 76
0
 77
2
 78
300
147
1.0
148
0.0
149
0.0
100
AcDbLayout
  1
Model
 70
1
 71
0
 10
0.0
 20
0.0
 11
420.0
 21
297.0
 12
0.0
 22
0.0
 32
0.0
 14
1e+20
 24
1e+20
 34
1e+20
 15
-1e+20
 25
-1e+20
 35
-1e+20
146
0.0
 13
0.0
 23
0.0
 33
0.0
 16
1.0
 26
0.0
 36
0.0
 17
0.0
 27
1.0
 37
0.0
 76
1
330
17
  0
LAYOUT
  5
1E
330
D
100
AcDbPlotSettings
  1

  4
A3
  6

 40
7.5
 41
20.0
 42
7.5
 43
20.0
 44
420.0
 45
297.0
 46
0.0
 47
0.0
 48
0.0
 49
0.0
140
0.0
141
0.0
142
1.0
143
1.0
 70
0
 72
1
 73
0
 74
5
  7

 75
16
 76
0
 77
2
 78
300
147
1.0
148
0.0
149
0.0
100
AcDbLayout
  1
Layout1
 70
1
 71
1
 10
0.0
 20
0.0
 11
420.0
 21
297.0
 12
0.0
 22
0.0
 32
0.0
 14
1e+20
 24
1e+20
 34
1e+20
 15
-1e+20
 25
-1e+20
 35
-1e+20
146
0.0
 13
0.0
 23
0.0
 33
0.0
 16
1.0
 26
0.0
 36
0.0
 17
0.0
 27
1.0
 37
0.0
 76
1
330
1B
  0
MATERIAL
  5
1F
102
{ACAD_REACTORS
330
E
102
}
330
E
100
AcDbMaterial
  1
ByBlock
  2

 70
0
 40
1.0
 71
1
 41
1.0
 91
-1023410177
 42
1.0
 72
1
  3

 73
1
 74
1
 75
1
 44
0.5
 73
0
 45
1.0
 46
1.0
 77
1
  4

 78
1
 79
1
170
1
 48
1.0
171
1
  6

172
1
173
1
174
1
140
1.0
141
1.0
175
1
  7

176
1
177
1
178
1
143
1.0
179
1
  8

270
1
271
1
272
1
145
1.0
146
1.0
273
1
  9

274
1
275
1
276
1
 42
1.0
 72
1
  3

 73
1
 74
1
 75
1
 94
63
  0
MATERIAL
  5
20
102
{ACAD_REACTORS
330
E
102
}
330
E
100
AcDbMaterial
  1
ByLayer
  2

 70
0
 40
1.0
 71
1
 41
1.0
 91
-1023410177
 42
1.0
 72
1
  3

 73
1
 74
1
 75
1
 44
0.5
 73
0
 45
1.0
 46
1.0
 77
1
  4

 78
1
 79
1
170
1
 48
1.0
171
1
  6

172
1
173
1
174
1
140
1.0
141
1.0
175
1
  7

176
1
177
1
178
1
143
1.0
179
1
  8

270
1
271
1
272
1
145
1.0
146
1.0
273
1
  9

274
1
275
1
276
1
 42
1.0
 72
1
  3

 73
1
 74
1
 75
1
 94
63
  0
MATERIAL
  5
21
102
{ACAD_REACTORS
330
E
102
}
330
E
100
AcDbMaterial
  1
Global
  2

 70
0
 40
1.0
 71
1
 41
1.0
 91
-1023410177
 42
1.0
 72
1
  3

 73
1
 74
1
 75
1
 44
0.5
 73
0
 45
1.0
 46
1.0
 77
1
  4

 78
1
 79
1
170
1
 48
1.0
171
1
  6

172
1
173
1
174
1
140
1.0
141
1.0
175
1
  7

176
1
177
1
178
1
143
1.0
179
1
  8

270
1
271
1
272
1
145
1.0
146
1.0
273
1
  9

274
1
275
1
276
1
 42
1.0
 72
1
  3

 73
1
 74
1
 75
1
 94
63
  0
MLINESTYLE
  5
22
102
{ACAD_REACTORS
330
10
102
}
330
10
100
AcDbMlineStyle
  2
Standard
 70
0
  3

 62
256
 51
90.0
 52
90.0
 71
2
 49
0.5
 62
256
  6
BYLAYER
 49
-0.5
 62
256
  6
BYLAYER
  0
MLEADERSTYLE
  5
2C
102
{ACAD_REACTORS
330
F
102
}
330
F
100
AcDbMLeaderStyle
179
2
170
2
171
1
172
0
 90
2
 40
0.0
 41
0.0
173
1
 91
-1056964608
 92
-2
290
1
 42
2.0
291
1
 43
8.0
  3
Standard
 44
4.0
300

342
29
174
1
175
1
176
0
178
1
 93
-1056964608
 45
4.0
292
0
297
0
 46
4.0
 94
-1056964608
 47
1.0
 49
1.0
140
1.0
294
1
141
0.0
177
0
142
1.0
295
0
296
0
143
3.75
271
0
272
9
273
9
  0
DICTIONARY
  5
2D
330
A
100
AcDbDictionary
280
1
281
1
  3
CREATED_BY_EZDXF
350
2E
  3
WRITTEN_BY_EZDXF
350
3B
  0
DICTIONARYVAR
  5
2E
330
2D
100
DictionaryVariables
280
0
  1
1.4.4 @ 2026-08-20T11:47:04.147532+00:00
  0
DICTIONARYVAR
  5
3B
330
2D
100
DictionaryVariables
280
0
  1
1.4.4 @ 2026-08-20T11:47:04.151532+00:00
  0
ENDSEC
  0
EOF
