  0
SECTION
  2
HEADER
  9
$ACADVER
  1
AC1015
  9
$ACADMAINTVER
 70
6
  9
$DWGCODEPAGE
  3
ANSI_1252
  9
$INSBASE
 10
0.0
 20
0.0
 30
0.0
  9
$EXTMIN
 10
1e+20
 20
1e+20
 30
1e+20
  9
$EXTMAX
 10
-1e+20
 20
-1e+20
 30
-1e+20
  9
$LIMMIN
 10
0.0
 20
0.0
  9
$LIMMAX
 10
420.0
 20
297.0
  9
$ORTHOMODE
 70
0
  9
$REGENMODE
 70
1
  9
$FILLMODE
 70
1
  9
$QTEXTMODE
 70
0
  9
$MIRRTEXT
 70
1
  9
$LTSCALE
 40
1.0
  9
$ATTMODE
 70
1
  9
$TEXTSIZE
 40
2.5
  9
$TRACEWID
 40
1.0
  9
$TEXTSTYLE
  7
Standard
  9
$CLAYER
  8
0
  9
$CELTYPE
  6
ByLayer
  9
$CECOLOR
 62
256
  9
$CELTSCALE
 40
1.0
  9
$DISPSILH
 70
0
  9
$DIMSCALE
 40
1.0
  9
$DIMASZ
 40
2.5
  9
$DIMEXO
 40
0.625
  9
$DIMDLI
 40
3.75
  9
$DIMRND
 40
0.0
  9
$DIMDLE
 40
0.0
  9
$DIMEXE
 40
1.25
  9
$DIMTP
 40
0.0
  9
$DIMTM
 40
0.0
  9
$DIMTXT
 40
2.5
  9
$DIMCEN
 40
2.5
  9
$DIMTSZ
 40
0.0
  9
$DIMTOL
 70
0
  9
$DIMLIM
 70
0
  9
$DIMTIH
 70
0
  9
$DIMTOH
 70
0
  9
$DIMSE1
 70
0
  9
$DIMSE2
 70
0
  9
$DIMTAD
 70
1
  9
$DIMZIN
 70
8
  9
$DIMBLK
  1

  9
$DIMASO
 70
1
  9
$DIMSHO
 70
1
  9
$DIMPOST
  1

  9
$DIMAPOST
  1

  9
$DIMALT
 70
0
  9
$DIMALTD
 70
3
  9
$DIMALTF
 40
0.03937007874
  9
$DIMLFAC
 40
1.0
  9
$DIMTOFL
 70
1
  9
$DIMTVP
 40
0.0
  9
$DIMTIX
 70
0
  9
$DIMSOXD
 70
0
  9
$DIMSAH
 70
0
  9
$DIMBLK1
  1

  9
$DIMBLK2
  1

  9
$DIMSTYLE
  2
ISO-25
  9
$DIMCLRD
 70
0
  9
$DIMCLRE
 70
0
  9
$DIMCLRT
 70
0
  9
$DIMTFAC
 40
1.0
  9
$DIMGAP
 40
0.625
  9
$DIMJUST
 70
0
  9
$DIMSD1
 70
0
  9
$DIMSD2
 70
0
  9
$DIMTOLJ
 70
0
  9
$DIMTZIN
 70
8
  9
$DIMALTZ
 70
0
  9
$DIMALTTZ
 70
0
  9
$DIMUPT
 70
0
  9
$DIMDEC
 70
2
  9
$DIMTDEC
 70
2
  9
$DIMALTU
 70
2
  9
$DIMALTTD
 70
3
  9
$DIMTXSTY
  7
Standard
  9
$DIMAUNIT
 70
0
  9
$DIMADEC
 70
0
  9
$DIMALTRND
 40
0.0
  9
$DIMAZIN
 70
0
  9
$DIMDSEP
 70
44
  9
$DIMATFIT
 70
3
  9
$DIMFRAC
 70
0
  9
$DIMLDRBLK
  1

  9
$DIMLUNIT
 70
2
  9
$DIMLWD
 70
-2
  9
$DIMLWE
 70
-2
  9
$DIMTMOVE
 70
0
  9
$LUNITS
 70
2
  9
$LUPREC
 70
4
  9
$SKETCHINC
 40
1.0
  9
$FILLETRAD
 40
10.0
  9
$AUNITS
 70
0
  9
$AUPREC
 70
2
  9
$MENU
  1
.
  9
$ELEVATION
 40
0.0
  9
$PELEVATION
 40
0.0
  9
$THICKNESS
 40
0.0
  9
$LIMCHECK
 70
0
  9
$CHAMFERA
 40
0.0
  9
$CHAMFERB
 40
0.0
  9
$CHAMFERC
 40
0.0
  9
$CHAMFERD
 40
0.0
  9
$SKPOLY
 70
0
  9
$TDCREATE
 40
2461266.4811689816
  9
$TDUCREATE
 40
2458532.153996898
  9
$TDUPDATE
 40
2461266.4811689816
  9
$TDUUPDATE
 40
2458532.1544311
  9
$TDINDWG
 40
0.0
  9
$TDUSRTIMER
 40
0.0
  9
$USRTIMER
 70
1
  9
$ANGBASE
 50
0.0
  9
$ANGDIR
 70
0
  9
$PDMODE
 70
0
  9
$PDSIZE
 40
0.0
  9
$PLINEWID
 40
0.0
  9
$SPLFRAME
 70
0
  9
$SPLINETYPE
 70
6
  9
$SPLINESEGS
 70
8
  9
$HANDSEED
  5
3C
  9
$SURFTAB1
 70
6
  9
$SURFTAB2
 70
6
  9
$SURFTYPE
 70
6
  9
$SURFU
 70
6
  9
$SURFV
 70
6
  9
$UCSBASE
  2

  9
$UCSNAME
  2

  9
$UCSORG
 10
0.0
 20
0.0
 30
0.0
  9
$UCSXDIR
 10
1.0
 20
0.0
 30
0.0
  9
$UCSYDIR
 10
0.0
 20
1.0
 30
0.0
  9
$UCSORTHOREF
  2

  9
$UCSORTHOVIEW
 70
0
  9
$UCSORGTOP
 10
0.0
 20
0.0
 30
0.0
  9
$UCSORGBOTTOM
 10
0.0
 20
0.0
 30
0.0
  9
$UCSORGLEFT
 10
0.0
 20
0.0
 30
0.0
  9
$UCSORGRIGHT
 10
0.0
 20
0.0
 30
0.0
  9
$UCSORGFRONT
 10
0.0
 20
0.0
 30
0.0
  9
$UCSORGBACK
 10
0.0
 20
0.0
 30
0.0
  9
$PUCSBASE
  2

  9
$PUCSNAME
  2

  9
$PUCSORG
 10
0.0
 20
0.0
 30
0.0
  9
$PUCSXDIR
 10
1.0
 20
0.0
 30
0.0
  9
$PUCSYDIR
 10
0.0
 20
1.0
 30
0.0
  9
$PUCSORTHOREF
  2

  9
$PUCSORTHOVIEW
 70
0
  9
$PUCSORGTOP
 10
0.0
 20
0.0
 30
0.0
  9
$PUCSORGBOTTOM
 10
0.0
 20
0.0
 30
0.0
  9
$PUCSORGLEFT
 10
0.0
 20
0.0
 30
0.0
  9
$PUCSORGRIGHT
 10
0.0
 20
0.0
 30
0.0
  9
$PUCSORGFRONT
 10
0.0
 20
0.0
 30
0.0
  9
$PUCSORGBACK
 10
0.0
 20
0.0
 30
0.0
  9
$USERI1
 70
0
  9
$USERI2
 70
0
  9
$USERI3
 70
0
  9
$USERI4
 70
0
  9
$USERI5
 70
0
  9
$USERR1
 40
0.0
  9
$USERR2
 40
0.0
  9
$USERR3
 40
0.0
  9
$USERR4
 40
0.0
  9
$USERR5
 40
0.0
  9
$WORLDVIEW
 70
1
  9
$SHADEDGE
 70
3
  9
$SHADEDIF
 70
70
  9
$TILEMODE
 70
1
  9
$MAXACTVP
 70
64
  9
$PINSBASE
 10
0.0
 20
0.0
 30
0.0
  9
$PLIMCHECK
 70
0
  9
$PEXTMIN
 10
1e+20
 20
1e+20
 30
1e+20
  9
$PEXTMAX
 10
-1e+20
 20
-1e+20
 30
-1e+20
  9
$PLIMMIN
 10
0.0
 20
0.0
  9
$PLIMMAX
 10
420.0
 20
297.0
  9
$UNITMODE
 70
0
  9
$VISRETAIN
 70
1
  9
$PLINEGEN
 70
0
  9
$PSLTSCALE
 70
1
  9
$TREEDEPTH
 70
3020
  9
$CMLSTYLE
  2
Standard
  9
$CMLJUST
 70
0
  9
$CMLSCALE
 40
20.0
  9
$PROXYGRAPHICS
 70
1
  9
$MEASUREMENT
 70
1
  9
$CELWEIGHT
370
-1
  9
$ENDCAPS
280
0
  9
$JOINSTYLE
280
0
  9
$LWDISPLAY
290
0
  9
$INSUNITS
 70
6
  9
$HYPERLINKBASE
  1

  9
$STYLESHEET
  1

  9
$XEDIT
290
1
  9
$CEPSNTYPE
380
0
  9
$PSTYLEMODE
290
1
  9
$FINGERPRINTGUID
  2
{BCCE5988-40F0-46BA-8250-2589368561D0}
  9
$VERSIONGUID
  2
{8043CE3E-A728-4F34-B673-61733FF53D9D}
  9
$EXTNAMES
290
1
  9
$PSVPSCALE
 40
0.0
  9
$OLESTARTUP
290
0
  0
ENDSEC
  0
SECTION
  2
CLASSES
  0
CLASS
  1
ACDBDICTIONARYWDFLT
  2
AcDbDictionaryWithDefault
  3
ObjectDBX Classes
 90
0
280
0
281
0
  0
CLASS
  1
SUN
  2
AcDbSun
  3
SCENEOE
 90
1153
280
0
281
0
  0
CLASS
  1
VISUALSTYLE
  2
AcDbVisualStyle
  3
ObjectDBX Classes
 90
4095
280
0
281
0
  0
CLASS
  1
MATERIAL
  2
AcDbMaterial
  3
ObjectDBX Classes
 90
1153
280
0
281
0
  0
CLASS
  1
SCALE
  2
AcDbScale
  3
ObjectDBX Classes
 90
1153
280
0
281
0
  0
CLASS
  1
TABLESTYLE
  2
AcDbTableStyle
  3
ObjectDBX Classes
 90
4095
280
0
281
0
  0
CLASS
  1
MLEADERSTYLE
  2
AcDbMLeaderStyle
  3
ACDB_MLEADERSTYLE_CLASS
 90
4095
280
0
281
0
  0
CLASS
  1
DICTIONARYVAR
  2
AcDbDictionaryVar
  3
ObjectDBX Classes
 90
0
280
0
281
0
  0
CLASS
  1
CELLSTYLEMAP
  2
AcDbCellStyleMap
  3
ObjectDBX Classes
 90
1152
280
0
281
0
  0
CLASS
  1
MENTALRAYRENDERSETTINGS
  2
AcDbMentalRayRenderSettings
  3
SCENEOE
 90
1024
280
0
281
0
  0
CLASS
  1
ACDBDETAILVIEWSTYLE
  2
AcDbDetailViewStyle
  3
ObjectDBX Classes
 90
1025
280
0
281
0
  0
CLASS
  1
ACDBSECTIONVIEWSTYLE
  2
AcDbSectionViewStyle
  3
ObjectDBX Classes
 90
1025
280
0
281
0
  0
CLASS
  1
RASTERVARIABLES
  2
AcDbRasterVariables
  3
ISM
 90
0
280
0
281
0
  0
CLASS
  1
ACDBPLACEHOLDER
  2
AcDbPlaceHolder
  3
ObjectDBX Classes
 90
0
280
0
281
0
  0
CLASS
  1
LAYOUT
  2
AcDbLayout
  3
ObjectDBX Classes
 90
0
280
0
281
0
  0
ENDSEC
  0
SECTION
  2
TABLES
  0
TABLE
  2
VPORT
  5
8
330
0
100
AcDbSymbolTable
 70
1
  0
VPORT
  5
23
330
8
100
AcDbSymbolTableRecord
100
AcDbViewportTableRecord
  2
*Active
 70
0
 10
0.0
 20
0.0
 11
1.0
 21
1.0
 12
0.0
 22
0.0
 13
0.0
 23
0.0
 14
0.5
 24
0.5
 15
0.5
 25
0.5
 16
0.0
 26
0.0
 36
1.0
 17
0.0
 27
0.0
 37
0.0
 40
1000.0
 41
1.34
 42
50.0
 43
0.0
 44
0.0
 50
0.0
 51
0.0
 71
0
 72
1000
 73
1
 74
3
 75
0
 76
0
 77
0
 78
0
281
0
 65
0
146
0.0
  0
ENDTAB
  0
TABLE
  2
LTYPE
  5
2
330
0
100
AcDbSymbolTable
 70
3
  0
LTYPE
  5
24
330
2
100
AcDbSymbolTableRecord
100
AcDbLinetypeTableRecord
  2
ByBlock
 70
0
  3

 72
65
 73
0
 40
0.0
  0
LTYPE
  5
25
330
2
100
AcDbSymbolTableRecord
100
AcDbLinetypeTableRecord
  2
ByLayer
 70
0
  3

 72
65
 73
0
 40
0.0
  0
LTYPE
  5
26
330
2
100
AcDbSymbolTableRecord
100
AcDbLinetypeTableRecord
  2
Continuous
 70
0
  3

 72
65
 73
0
 40
0.0
  0
ENDTAB
  0
TABLE
  2
LAYER
  5
1
330
0
100
AcDbSymbolTable
 70
2
  0
LAYER
  5
27
330
1
100
AcDbSymbolTableRecord
100
AcDbLayerTableRecord
  2
0
 70
0
 62
7
  6
Continuous
370
-3
390
13
  0
LAYER
  5
28
330
1
100
AcDbSymbolTableRecord
100
AcDbLayerTableRecord
  2
Defpoints
 70
0
 62
7
  6
Continuous
290
0
370
-3
390
13
  0
ENDTAB
  0
TABLE
  2
STYLE
  5
5
330
0
100
AcDbSymbolTable
 70
1
  0
STYLE
  5
29
330
5
100
AcDbSymbolTableRecord
100
AcDbTextStyleTableRecord
  2
Standard
 70
0
 40
0.0
 41
1.0
 50
0.0
 71
0
 42
2.5
  3
txt
  4

  0
ENDTAB
  0
TABLE
  2
VIEW
  5
7
330
0
100
AcDbSymbolTable
 70
0
  0
ENDTAB
  0
TABLE
  2
UCS
  5
6
330
0
100
AcDbSymbolTable
 70
0
  0
ENDTAB
  0
TABLE
  2
APPID
  5
3
330
0
100
AcDbSymbolTable
 70
3
  0
APPID
  5
2A
330
3
100
AcDbSymbolTableRecord
100
AcDbRegAppTableRecord
  2
ACAD
 70
0
  0
APPID
  5
39
330
3
100
AcDbSymbolTableRecord
100
AcDbRegAppTableRecord
  2
HATCHBACKGROUNDCOLOR
 70
0
  0
APPID
  5
3A
330
3
100
AcDbSymbolTableRecord
100
AcDbRegAppTableRecord
  2
EZDXF
 70
0
  0
ENDTAB
  0
TABLE
  2
DIMSTYLE
  5
4
330
0
100
AcDbSymbolTable
 70
1
100
AcDbDimStyleTable
  0
DIMSTYLE
105
2B
330
4
100
AcDbSymbolTableRecord
100
AcDbDimStyleTableRecord
  2
Standard
 70
0
  3

  4

 40
1.0
 41
2.5
 42
0.625
 43
3.75
 44
1.25
 45
0.0
 46
0.0
 47
0.0
 48
0.0
140
2.5
141
2.5
142
0.0
143
0.03937007874
144
1.0
145
0.0
146
1.0
147
0.625
148
0.0
 71
0
 72
0
 73
0
 74
0
 75
0
 76
0
 77
1
 78
8
 79
3
170
0
171
3
172
1
173
0
174
0
175
0
176
0
177
0
178
0
179
2
271
2
272
2
273
2
274
3
275
0
276
0
277
2
278
44
279
0
280
0
281
0
282
0
283
0
284
8
285
0
286
0
288
0
289
3
371
-2
372
-2
  0
ENDTAB
  0
TABLE
  2
BLOCK_RECORD
  5
9
330
0
100
AcDbSymbolTable
 70
2
  0
BLOCK_RECORD
  5
17
330
9
100
AcDbSymbolTableRecord
100
AcDbBlockTableRecord
  2
*Model_Space
340
1A
  0
BLOCK_RECORD
  5
1B
330
9
100
AcDbSymbolTableRecord
100
AcDbBlockTableRecord
  2
*Paper_Space
340
1E
  0
ENDTAB
  0
ENDSEC
  0
SECTION
  2
BLOCKS
  0
BLOCK
  5
18
330
17
100
AcDbEntity
  8
0
100
AcDbBlockBegin
  2
*Model_Space
 70
0
 10
0.0
 20
0.0
 30
0.0
  3
*Model_Space
  1

  0
ENDBLK
  5
19
330
17
100
AcDbEntity
  8
0
100
AcDbBlockEnd
  0
BLOCK
  5
1C
330
1B
100
AcDbEntity
  8
0
100
AcDbBlockBegin
  2
*Paper_Space
 70
0
 10
0.0
 20
0.0
 30
0.0
  3
*Paper_Space
  1

  0
ENDBLK
  5
1D
330
1B
100
AcDbEntity
  8
0
100
AcDbBlockEnd
  0
ENDSEC
  0
SECTION
  2
ENTITIES
  0
POINT
  5
2F
330
17
100
AcDbEntity
  8
0
100
AcDbPoint
 10
0.0
 20
0.0
 30
0.0
  0
LWPOLYLINE
  5
30
330
17
100
AcDbEntity
  8
0
100
AcDbPolyline
 90
600
 70
0
 10
0.0
 20
13.000000000000002
 10
0.24133337020902867
 20
12.992387635656524
 10
0.4806774516065032
 20
12.969756888076441
 10
0.7161581285946665
 20
12.93270768450592
 10
0.9461149609307573
 20
12.88218008063334
 10
1.169170593820477
 20
12.81937681246251
 10
1.3842655168728766
 20
12.745675460543458
 10
1.590659679629859
 20
12.662543350188017
 10
1.7879077099220317
 20
12.571464978242531
 10
1.9758169589718158
 20
12.473887196621197
 10
2.154397515781463
 20
12.3711831211231
 10
2.323811573465168
 20
12.26463268864408
 10
2.4843271000665856
 20
12.155416190508456
 10
2.636278435387168
 20
12.044616725637251
 10
2.780034616657794
 20
11.933227913976742
 10
2.9159750414957113
 20
11.822163973489547
 10
3.0444714360680476
 20
11.71227009309473
 10
3.165874865843425
 20
11.604331758358729
 10
3.28050655897131
 20
11.499082237082165
 10
3.3886514917069825
 20
11.39720780253242
 10
3.490553933334942
 20
11.299350489589534
 10
3.5864144204157578
 20
11.20610828218927
 10
3.676387907141393
 20
11.118032659632572
 10
3.760583115391682
 20
11.035623423634298
 10
3.839063386287928
 20
10.959320725910283
 10
3.9118496142354253
 20
10.889494258118846
 10
3.978926113610909
 20
10.826429696444993
 10
4.0402504960531065
 20
10.770312759137308
 10
4.095768761183047
 20
10.721211679255987
 10
4.14543672697686
 20
10.67905953710428
 10
4.1892485164066535
 20
10.643638706159518
 10
4.227271936110512
 20
10.614570521645255
 10
4.259689146309832
 20
10.591313937517697
 10
4.286839094735891
 20
10.573177028562059
 10
4.309256093520904
 20
10.55934430631075
 10
4.3276972862749865
 20
10.548920668829068
 10
4.343151418275414
 20
10.540989492565267
 10
4.356823015115983
 20
10.534678570068792
 10
4.3700899645251425
 20
10.529224496540554
 10
4.3844378460551265
 20
10.524025023773353
 10
4.401379590554355
 20
10.518670607293137
 10
4.422372368427067
 20
10.512950584206353
 10
4.448743826299031
 20
10.506834790812057
 10
4.481636960439415
 20
10.500436168842382
 10
4.521978222608274
 20
10.49396262710431
 10
4.570468575747034
 20
10.487666687512732
 10
4.627593530238322
 20
10.48179975735735
 10
4.693646319166416
 20
10.47657522993029
 10
4.768758192020205
 20
10.472141985715588
 10
4.852930765059955
 20
10.468567853599517
 10
4.946066824107703
 20
10.465831395040741
 10
5.047997436332807
 20
10.463819902395807
 10
5.158504412466375
 20
10.462331534267088
 10
5.2773379761592665
 20
10.461079816712271
 10
5.404229965654577
 20
10.459699144299273
 10
5.5389030892171665
 20
10.457750312562377
 10
5.681076763479777
 20
10.454725454364894
 10
5.830469954433397
 20
10.450052027366006
 10
5.986801267405915
 20
10.44309572149187
 10
6.149786332540937
 20
10.433162348532894
 10
6.319132334141303
 20
10.419498969284023
 10
6.494529362107006
 20
10.401294735057805
 10
6.6756381536480305
 20
10.377682193347246
 10
6.862073787911243
 20
10.347740144803206
 10
7.053385055933824
 20
10.310499533340163
 10
7.249029628891412
 20
10.264954261502519
 10
7.448345866296249
 20
10.21007915530973
 10
7.650523191331514
 20
10.144857394785234
 10
7.854574379953159
 20
10.068319348157809
 10
8.059314678372576
 20
9.979593637233094
 10
8.263353978672956
 20
9.877969220282129
 10
8.465108724176542
 20
9.762964333082325
 10
8.662839073658029
 20
9.634394713343058
 10
8.8547136272093
 20
9.492430588347212
 10
9.038898832754336
 20
9.337630726689172
 10
9.213664109086842
 20
9.170943611894838
 10
9.377488623004627
 20
8.993670836980664
 10
9.529153578189021
 20
8.807395161538153
 10
9.667805983231116
 20
8.61388312903211
 10
9.79298573255109
 20
8.414977203565027
 10
9.904615504886232
 20
8.21249341949322
 10
10.002959919210944
 20
8.008137542027312
 10
10.088564644262727
 20
7.80344719120362
 10
10.162187104134137
 20
7.599761371712033
 10
10.22472867599335
 20
7.398214096223356
 10
10.27717509982422
 20
7.199746104235966
 10
10.320548453613121
 20
7.005127993848886
 10
10.355871305885131
 20
6.81498881099008
 10
10.384141858570272
 20
6.629845569522255
 10
10.406317989135033
 20
6.450130734929163
 10
10.423307864678746
 20
6.276216050394798
 10
10.435964971864587
 20
6.108432076686537
 10
10.445085770533588
 20
5.9470834499958904
 10
10.451408591693781
 20
5.792460194711376
 10
10.45561278317628
 20
5.644845539929615
 10
10.458317427208737
 20
5.504520651811598
 10
10.460079212470532
 20
5.3717665652352045
 10
10.461389255121752
 20
5.24686341839858
 10
10.462668853859995
 20
5.130086893053839
 10
10.464264361791331
 20
5.021701566952642
 10
10.466441590841066
 20
4.921950723651324
 10
10.469380455098399
 20
4.831042078978163
 10
10.47317091672242
 20
4.749128930956016
 10
10.477811704054348
 20
4.676286496291512
 10
10.48321366454637
 20
4.612483745815534
 10
10.489209871572532
 20
4.557551960113073
 10
10.495574532689453
 20
4.511152495371362
 10
10.502052112199449
 20
4.472747744117578
 10
10.508396680328394
 20
4.441580662748238
 10
10.514419300867644
 20
4.416668973874713
 10
10.520038563157561
 20
4.396819590802614
 10
10.525326863514321
 20
4.38066647179574
 10
10.530543757406905
 20
4.366731036155841
 10
10.536148563581554
 20
4.353499290092925
 10
10.542787707004376
 20
4.339505430489335
 10
10.551257344649606
 20
4.323409551476878
 10
10.562447064872552
 20
4.3040581214175155
 10
10.577274127867613
 20
4.280519844103762
 10
10.596618704453913
 20
4.25209495818437
 10
10.621268876620064
 20
4.2183011349404245
 10
10.651880757735007
 20
4.17884250530457
 10
10.68895531334253
 20
4.133569487055226
 10
10.732830403634331
 20
4.08243634469798
 10
10.783684745225347
 20
4.025461593354239
 10
10.841549882117427
 20
3.9626942587609615
 10
10.906326527252517
 20
3.89418718290316
 10
10.977802372571237
 20
3.8199772687881466
 10
11.05566932705431
 20
3.740071806248637
 10
11.13953891693811
 20
3.6544397077405075
 10
11.228955175236011
 20
3.563006468138253
 10
11.323404743988458
 20
3.4656518208775697
 10
11.422324140434007
 20
3.3622093053696736
 10
11.525104242277232
 20
3.252467234253563
 10
11.63109207423062
 20
3.136170828461478
 10
11.739589971356386
 20
3.013025565747161
 10
11.849852194165207
 20
2.882702065131318
 10
11.961079114373776
 20
2.7448431064064263
 10
12.07240921811739
 20
2.5990736527738445
 10
12.182909425804016
 20
2.44501498088736
 10
12.291564641665277
 20
2.2823041740762395
 10
12.397268042325233
 20
2.110620213766066
 10
12.498814374111449
 20
1.929717585546761
 10
12.59489936214084
 20
1.7394675494990495
 10
12.684129038889541
 20
1.5399058755071957
 10
12.765043043474464
 20
1.3312838771262
 10
12.836155293290624
 20
1.1141171691483465
 10
12.896013480619521
 20
0.8892242262097287
 10
12.943275450938204
 20
0.6577453817384052
 10
12.976796069101296
 20
0.42113339886650686
 10
12.99571376700281
 20
0.18110993281835308
 10
12.999523207014317
 20
-0.06041196385417638
 10
12.988120910860935
 20
-0.3014319035279468
 10
12.961814877048763
 20
-0.5399789788401292
 10
12.921296228847295
 20
-0.7742242299378475
 10
12.86757860002226
 20
-1.0025727969185405
 10
12.80191677171707
 20
-1.223724897099801
 10
12.725718383197183
 20
-1.436701909262811
 10
12.64046121626555
 20
-1.6408406115254466
 10
12.54762475210635
 20
-1.8357632064343017
 10
12.448640089085504
 20
-2.021332549440248
 10
12.344858294828356
 20
-2.197601399748595
 10
12.237534584379286
 20
-2.3647624956542814
 10
12.127824458127934
 20
-2.523103792634628
 10
12.016787786802233
 20
-2.6729709743461765
 10
11.905397354356484
 20
-2.8147376828165402
 10
11.794549171873314
 20
-2.9487828692744786
 10
11.68507268993492
 20
-3.07547414352313
 10
11.577739721202658
 20
-3.1951558479237026
 10
11.473271389166792
 20
-3.3081406608166715
 10
11.372342748132414
 20
-3.414703736614226
 10
11.275584904618677
 20
-3.5150786469436968
 10
11.18358455122963
 20
-3.609454661848316
 10
11.096880840915665
 20
-3.6979751870298454
 10
11.015959521113878
 20
-3.7807374500645086
 10
10.941244252277196
 20
-3.857793807272542
 10
10.873085095111634
 20
-3.9291553212629005
 10
10.811744310778824
 20
-3.994798521953908
 10
10.757379925326576
 20
-4.054676473089138
 10
10.710028002631903
 20
-4.108735351488096
 10
10.669585259879051
 20
-4.156937599685855
 10
10.635794496180038
 20
-4.199292197390106
 10
10.608236138764637
 20
-4.23589158133383
 10
10.586329764626996
 20
-4.266953169575923
 10
10.569349339138622
 20
-4.292861435820292
 10
10.556454726004713
 20
-4.314204430708617
 10
10.546739554092138
 20
-4.331797258538106
 10
10.539292004832577
 20
-4.346685135645834
 10
10.53326132892717
 20
-4.36012091407098
 10
10.527920190441971
 20
-4.373516315803328
 10
10.522712512696872
 20
-4.38837161532278
 10
10.517278907202625
 20
-4.40619342478935
 10
10.51145642624214
 20
-4.428412847506932
 10
10.505254759576047
 20
-4.456315667058858
 10
10.49881532841571
 20
-4.490992798134763
 10
10.492361833033746
 20
-4.53331432847256
 10
10.486150509032287
 20
-4.583925797271087
 10
10.480426321845986
 20
-4.643262096408728
 10
10.475388612144497
 20
-4.711572966615311
 10
10.471167189065904
 20
-4.7889542269284435
 10
10.467808054964667
 20
-4.875380016143468
 10
10.465266946306324
 20
-4.970732821529607
 10
10.46340855212668
 20
-5.074829479809345
 10
10.462009391704413
 20
-5.187442430845358
 10
10.4607626775846
 20
-5.308316227934814
 10
10.45928390080689
 20
-5.437179701123056
 10
10.457116261347753
 20
-5.573754311499772
 10
10.453735390932104
 20
-5.717759206871665
 10
10.448553074971397
 20
-5.868913359496418
 10
10.440919892416739
 20
-6.026934983540977
 10
10.430126882832095
 20
-6.191538228081492
 10
10.415406547792191
 20
-6.362426947750735
 10
10.395933726098788
 20
-6.539285194637049
 10
10.370827170742162
 20
-6.721763986351168
 10
10.339153008973105
 20
-6.909463934598842
 10
10.29993167104077
 20
-7.101913531087115
 10
10.252150275160265
 20
-7.298543360861871
 10
10.19478274636634
 20
-7.498657321111278
 10
10.126819945170613
 20
-7.701403100235259
 10
10.04731154490337
 20
-7.9057456535211905
 10
9.95542006647674
 20
-8.110448963428038
 10
9.850485196584444
 20
-8.314072534499035
 10
9.73209339205354
 20
-8.514989183576416
 10
9.600144368097771
 20
-8.71142905218141
 10
9.454903437053643
 20
-8.90155100713963
 10
9.297028129425817
 20
-9.083537049283073
 10
9.127560121207857
 20
-9.25569931492128
 10
8.947879255719991
 20
-9.41658473639557
 10
8.759624056713955
 20
-9.565061340682817
 10
8.56459020761951
 20
-9.700373322924193
 10
8.36462262250115
 20
-9.82215857589796
 10
8.161516693562088
 20
-9.930430077119597
 10
7.956940486611451
 20
-10.025528937952505
 10
7.75238379825465
 20
-10.108060351520056
 10
7.549134162035468
 20
-10.178823853751997
 10
7.348275615478599
 20
-10.238747080480062
 10
7.150703888784247
 20
-10.288828876004295
 10
6.957151410320996
 20
-10.330094342241242
 10
6.76821649079429
 20
-10.363561899329982
 10
6.584392554511389
 20
-10.39022086792735
 10
6.406094815439248
 20
-10.411017370905608
 10
6.233683060121395
 20
-10.426846241260222
 10
6.067480099131563
 20
-10.438546859872092
 10
5.907785999516226
 20
-10.44690123368436
 10
5.754888480817731
 20
-10.45263303536927
 10
5.609069925729517
 20
-10.456406694235502
 10
5.470611392110445
 20
-10.4588259326574
 10
5.339793868347924
 20
-10.460431387044808
 10
5.216896826439343
 20
-10.461697156402835
 10
5.102193924949242
 20
-10.46302631116128
 10
4.995945523460439
 20
-10.464745598971971
 10
4.898387523181555
 20
-10.467099829794503
 10
4.809715989716197
 20
-10.470246729850874
 10
4.730067106021496
 20
-10.474253426523054
 10
4.6594923253290785
 20
-10.479096136958496
 10
4.597929228295502
 20
-10.484665006262572
 10
4.545169591443669
 20
-10.490776236027653
 10
4.500827518644801
 20
-10.497193454211812
 10
4.4643119951365895
 20
-10.503659466346921
 10
4.434809506018254
 20
-10.509937920519416
 10
4.4112828329404286
 20
-10.515862048260846
 10
4.39249116825108
 20
-10.52138490639025
 10
4.377033880052364
 20
-10.526623248207407
 10
4.363415849187609
 20
-10.531886332774018
 10
4.350127306767029
 20
-10.537682459531501
 10
4.3357271400914525
 20
-10.544699864962055
 10
4.318917242032382
 20
-10.5537638913479
 10
4.298597325468673
 20
-10.56577734508905
 10
4.2738941078304675
 20
-10.581654031521975
 10
4.244164295224291
 20
-10.60225572651692
 10
4.208975567828295
 20
-10.628340605902245
 10
4.16807258989756
 20
-10.660527530573031
 10
4.121335679596765
 20
-10.69927690516384
 10
4.068738683321441
 20
-10.744886052554483
 10
4.010310640089983
 20
-10.797495545692465
 10
3.9461037518354516
 20
-10.857102588468004
 10
3.8761684719212797
 20
-10.923577962849308
 10
3.8005353692701647
 20
-10.99668385439987
 10
3.719202796059727
 20
-11.076090722934904
 10
3.632129161662231
 20
-11.16139211942156
 10
3.5392286543072857
 20
-11.252116893152001
 10
3.4403694382086516
 20
-11.347738583739353
 10
3.3353736079649723
 20
-11.447681984868506
 10
3.2240184586329717
 20
-11.551326947178495
 10
3.1060389090709193
 20
-11.658009502345589
 10
2.981131193390708
 20
-11.767020381678282
 10
2.8489582122454262
 20
-11.877601009483357
 10
2.709157211660958
 20
-11.988937112628918
 10
2.5613507210969253
 20
-12.100150242957906
 10
2.405161903586434
 20
-12.210287798838623
 10
2.2402355889696177
 20
-12.318312590691745
 10
2.0662661791655887
 20
-12.423093636548709
 10
1.8830331982311184
 20
-12.52340066458089
 10
1.6904443580424857
 20
-12.617905624599437
 10
1.4885845042077306
 20
-12.705195136093227
 10
1.2777667016523695
 20
-12.783797863110456
 10
1.0585792646709566
 20
-12.852229864560067
 10
0.831920324628645
 20
-12.909058655142829
 10
0.5990104782364911
 20
-12.952982989328508
 10
0.3613751761407063
 20
-12.982920810433463
 10
0.12079240853764658
 20
-12.998093646186915
 10
-0.12079240853764073
 20
-12.998093646186916
 10
-0.36137517614070047
 20
-12.982920810433464
 10
-0.5990104782364862
 20
-12.952982989328508
 10
-0.8319203246286401
 20
-12.909058655142829
 10
-1.0585792646709509
 20
-12.852229864560067
 10
-1.2777667016523648
 20
-12.783797863110461
 10
-1.4885845042077173
 20
-12.705195136093234
 10
-1.6904443580424733
 20
-12.617905624599445
 10
-1.883033198231106
 20
-12.523400664580898
 10
-2.066266179165585
 20
-12.423093636548712
 10
-2.2402355889696146
 20
-12.31831259069175
 10
-2.4051619035864302
 20
-12.210287798838625
 10
-2.5613507210969226
 20
-12.100150242957907
 10
-2.709157211660955
 20
-11.98893711262892
 10
-2.8489582122454236
 20
-11.87760100948336
 10
-2.9811311933907056
 20
-11.767020381678284
 10
-3.106038909070917
 20
-11.658009502345593
 10
-3.224018458632969
 20
-11.551326947178497
 10
-3.3353736079649705
 20
-11.44768198486851
 10
-3.4403694382086485
 20
-11.347738583739353
 10
-3.5392286543072835
 20
-11.252116893152003
 10
-3.632129161662225
 20
-11.161392119421569
 10
-3.7192027960597223
 20
-11.076090722934913
 10
-3.800535369270159
 20
-10.996683854399876
 10
-3.876168471921278
 20
-10.923577962849308
 10
-3.9461037518354494
 20
-10.857102588468006
 10
-4.0103106400899815
 20
-10.797495545692467
 10
-4.06873868332144
 20
-10.744886052554481
 10
-4.121335679596764
 20
-10.699276905163842
 10
-4.168072589897559
 20
-10.660527530573031
 10
-4.208975567828295
 20
-10.628340605902245
 10
-4.244164295224291
 20
-10.602255726516919
 10
-4.2738941078304675
 20
-10.581654031521975
 10
-4.298597325468673
 20
-10.56577734508905
 10
-4.318917242032382
 20
-10.5537638913479
 10
-4.335727140091452
 20
-10.544699864962055
 10
-4.350127306767028
 20
-10.537682459531505
 10
-4.363415849187608
 20
-10.531886332774018
 10
-4.377033880052363
 20
-10.526623248207407
 10
-4.39249116825108
 20
-10.521384906390248
 10
-4.411282832940429
 20
-10.515862048260846
 10
-4.434809506018254
 20
-10.509937920519416
 10
-4.464311995136589
 20
-10.503659466346921
 10
-4.5008275186448
 20
-10.497193454211812
 10
-4.545169591443668
 20
-10.490776236027655
 10
-4.5979292282955
 20
-10.484665006262574
 10
-4.659492325329076
 20
-10.479096136958496
 10
-4.730067106021493
 20
-10.474253426523054
 10
-4.809715989716193
 20
-10.470246729850874
 10
-4.898387523181552
 20
-10.4670998297945
 10
-4.9959455234604375
 20
-10.464745598971973
 10
-5.102193924949234
 20
-10.463026311161281
 10
-5.216896826439334
 20
-10.461697156402836
 10
-5.3397938683479165
 20
-10.460431387044812
 10
-5.470611392110443
 20
-10.4588259326574
 10
-5.6090699257295125
 20
-10.456406694235502
 10
-5.754888480817727
 20
-10.452633035369272
 10
-5.907785999516221
 20
-10.44690123368436
 10
-6.067480099131559
 20
-10.438546859872092
 10
-6.2336830601213915
 20
-10.426846241260222
 10
-6.4060948154392445
 20
-10.41101737090561
 10
-6.584392554511386
 20
-10.39022086792735
 10
-6.768216490794286
 20
-10.363561899329982
 10
-6.957151410320989
 20
-10.330094342241242
 10
-7.150703888784242
 20
-10.288828876004297
 10
-7.348275615478595
 20
-10.238747080480064
 10
-7.549134162035454
 20
-10.178823853752002
 10
-7.752383798254636
 20
-10.10806035152006
 10
-7.956940486611438
 20
-10.025528937952512
 10
-8.161516693562083
 20
-9.930430077119597
 10
-8.364622622501145
 20
-9.822158575897964
 10
-8.564590207619506
 20
-9.700373322924195
 10
-8.759624056713953
 20
-9.56506134068282
 10
-8.947879255719988
 20
-9.416584736395574
 10
-9.127560121207853
 20
-9.255699314921284
 10
-9.297028129425813
 20
-9.083537049283077
 10
-9.45490343705364
 20
-8.901551007139634
 10
-9.600144368097768
 20
-8.711429052181415
 10
-9.732093392053539
 20
-8.514989183576422
 10
-9.850485196584442
 20
-8.31407253449904
 10
-9.955420066476737
 20
-8.110448963428043
 10
-10.047311544903366
 20
-7.905745653521204
 10
-10.126819945170613
 20
-7.7014031002352645
 10
-10.194782746366338
 20
-7.498657321111283
 10
-10.252150275160261
 20
-7.298543360861873
 10
-10.299931671040772
 20
-7.1019135310871215
 10
-10.339153008973106
 20
-6.909463934598846
 10
-10.370827170742162
 20
-6.7217639863511724
 10
-10.395933726098788
 20
-6.539285194637055
 10
-10.415406547792188
 20
-6.3624269477507385
 10
-10.430126882832093
 20
-6.191538228081495
 10
-10.440919892416739
 20
-6.026934983540982
 10
-10.448553074971397
 20
-5.868913359496421
 10
-10.453735390932104
 20
-5.717759206871668
 10
-10.457116261347753
 20
-5.573754311499776
 10
-10.45928390080689
 20
-5.4371797011230605
 10
-10.4607626775846
 20
-5.308316227934822
 10
-10.462009391704413
 20
-5.187442430845366
 10
-10.463408552126678
 20
-5.0748294798093525
 10
-10.465266946306324
 20
-4.970732821529614
 10
-10.467808054964665
 20
-4.875380016143473
 10
-10.471167189065904
 20
-4.78895422692845
 10
-10.475388612144497
 20
-4.711572966615316
 10
-10.480426321845986
 20
-4.643262096408732
 10
-10.486150509032287
 20
-4.583925797271092
 10
-10.492361833033744
 20
-4.533314328472563
 10
-10.498815328415708
 20
-4.490992798134767
 10
-10.505254759576049
 20
-4.456315667058857
 10
-10.511456426242141
 20
-4.42841284750693
 10
-10.517278907202627
 20
-4.40619342478935
 10
-10.522712512696872
 20
-4.38837161532278
 10
-10.527920190441971
 20
-4.373516315803328
 10
-10.53326132892717
 20
-4.360120914070979
 10
-10.539292004832577
 20
-4.346685135645833
 10
-10.546739554092138
 20
-4.331797258538106
 10
-10.556454726004713
 20
-4.314204430708619
 10
-10.569349339138622
 20
-4.292861435820292
 10
-10.586329764626996
 20
-4.266953169575924
 10
-10.608236138764635
 20
-4.2358915813338305
 10
-10.635794496180038
 20
-4.199292197390106
 10
-10.669585259879051
 20
-4.156937599685857
 10
-10.710028002631901
 20
-4.108735351488097
 10
-10.757379925326573
 20
-4.05467647308914
 10
-10.81174431077882
 20
-3.994798521953911
 10
-10.873085095111628
 20
-3.929155321262904
 10
-10.941244252277192
 20
-3.857793807272545
 10
-11.015959521113876
 20
-3.7807374500645126
 10
-11.096880840915663
 20
-3.6979751870298494
 10
-11.183584551229625
 20
-3.6094546618483196
 10
-11.275584904618674
 20
-3.5150786469437016
 10
-11.372342748132404
 20
-3.4147037366142325
 10
-11.473271389166783
 20
-3.3081406608166795
 10
-11.57773972120265
 20
-3.1951558479237097
 10
-11.685072689934914
 20
-3.075474143523138
 10
-11.794549171873307
 20
-2.9487828692744866
 10
-11.905397354356474
 20
-2.814737682816549
 10
-12.016787786802226
 20
-2.672970974346186
 10
-12.127824458127936
 20
-2.5231037926346254
 10
-12.237534584379286
 20
-2.3647624956542814
 10
-12.344858294828356
 20
-2.1976013997485957
 10
-12.448640089085504
 20
-2.021332549440248
 10
-12.547624752106348
 20
-1.8357632064343021
 10
-12.64046121626555
 20
-1.640840611525447
 10
-12.725718383197183
 20
-1.4367019092628122
 10
-12.80191677171707
 20
-1.2237248970998011
 10
-12.867578600022258
 20
-1.0025727969185454
 10
-12.921296228847293
 20
-0.7742242299378523
 10
-12.961814877048763
 20
-0.5399789788401347
 10
-12.988120910860935
 20
-0.3014319035279531
 10
-12.999523207014317
 20
-0.06041196385418135
 10
-12.995713767002812
 20
0.18110993281834767
 10
-12.976796069101296
 20
0.4211333988665015
 10
-12.943275450938206
 20
0.6577453817383996
 10
-12.896013480619525
 20
0.8892242262097185
 10
-12.836155293290627
 20
1.1141171691483376
 10
-12.765043043474469
 20
1.33128387712619
 10
-12.684129038889543
 20
1.5399058755071862
 10
-12.594899362140847
 20
1.7394675494990408
 10
-12.498814374111452
 20
1.9297175855467532
 10
-12.397268042325237
 20
2.1106202137660577
 10
-12.291564641665282
 20
2.282304174076229
 10
-12.182909425804024
 20
2.4450149808873487
 10
-12.072409218117397
 20
2.599073652773835
 10
-11.961079114373783
 20
2.7448431064064165
 10
-11.849852194165214
 20
2.8827020651313093
 10
-11.739589971356393
 20
3.013025565747153
 10
-11.63109207423063
 20
3.1361708284614713
 10
-11.52510424227723
 20
3.252467234253565
 10
-11.422324140434007
 20
3.3622093053696744
 10
-11.323404743988458
 20
3.46565182087757
 10
-11.228955175236013
 20
3.5630064681382523
 10
-11.139538916938111
 20
3.6544397077405066
 10
-11.05566932705431
 20
3.740071806248637
 10
-10.977802372571238
 20
3.819977268788146
 10
-10.906326527252517
 20
3.89418718290316
 10
-10.841549882117427
 20
3.96269425876096
 10
-10.78368474522535
 20
4.025461593354237
 10
-10.732830403634331
 20
4.082436344697978
 10
-10.68895531334253
 20
4.133569487055225
 10
-10.651880757735007
 20
4.178842505304569
 10
-10.621268876620066
 20
4.218301134940424
 10
-10.596618704453917
 20
4.252094958184369
 10
-10.577274127867614
 20
4.280519844103761
 10
-10.562447064872552
 20
4.304058121417515
 10
-10.551257344649606
 20
4.323409551476878
 10
-10.542787707004377
 20
4.339505430489336
 10
-10.536148563581552
 20
4.353499290092924
 10
-10.530543757406903
 20
4.366731036155841
 10
-10.525326863514321
 20
4.38066647179574
 10
-10.520038563157563
 20
4.396819590802613
 10
-10.514419300867646
 20
4.41666897387471
 10
-10.508396680328396
 20
4.441580662748238
 10
-10.50205211219945
 20
4.472747744117576
 10
-10.495574532689451
 20
4.511152495371359
 10
-10.489209871572532
 20
4.557551960113071
 10
-10.483213664546371
 20
4.6124837458155294
 10
-10.477811704054348
 20
4.676286496291507
 10
-10.473170916722422
 20
4.749128930956019
 10
-10.469380455098399
 20
4.831042078978163
 10
-10.466441590841066
 20
4.921950723651324
 10
-10.464264361791333
 20
5.021701566952642
 10
-10.462668853859995
 20
5.130086893053838
 10
-10.461389255121752
 20
5.24686341839858
 10
-10.460079212470532
 20
5.3717665652352045
 10
-10.458317427208739
 20
5.504520651811597
 10
-10.45561278317628
 20
5.644845539929613
 10
-10.451408591693783
 20
5.792460194711374
 10
-10.445085770533588
 20
5.947083449995887
 10
-10.435964971864589
 20
6.108432076686534
 10
-10.423307864678746
 20
6.276216050394793
 10
-10.406317989135033
 20
6.450130734929158
 10
-10.384141858570274
 20
6.629845569522249
 10
-10.355871305885133
 20
6.814988810990076
 10
-10.320548453613123
 20
7.005127993848878
 10
-10.277175099824223
 20
7.19974610423596
 10
-10.224728675993351
 20
7.398214096223347
 10
-10.16218710413414
 20
7.599761371712024
 10
-10.08856464426273
 20
7.803447191203611
 10
-10.002959919210948
 20
8.008137542027303
 10
-9.904615504886237
 20
8.21249341949321
 10
-9.792985732551095
 20
8.414977203565014
 10
-9.667805983231123
 20
8.6138831290321
 10
-9.52915357818903
 20
8.807395161538139
 10
-9.377488623004636
 20
8.993670836980648
 10
-9.213664109086853
 20
9.170943611894828
 10
-9.038898832754345
 20
9.337630726689161
 10
-8.854713627209314
 20
9.4924305883472
 10
-8.662839073658045
 20
9.634394713343045
 10
-8.46510872417654
 20
9.762964333082325
 10
-8.263353978672956
 20
9.877969220282129
 10
-8.059314678372578
 20
9.979593637233094
 10
-7.854574379953159
 20
10.068319348157809
 10
-7.650523191331515
 20
10.144857394785234
 10
-7.448345866296249
 20
10.210079155309728
 10
-7.2490296288914156
 20
10.26495426150252
 10
-7.053385055933826
 20
10.310499533340163
 10
-6.862073787911244
 20
10.347740144803204
 10
-6.675638153648035
 20
10.377682193347244
 10
-6.494529362107011
 20
10.401294735057803
 10
-6.3191323341413055
 20
10.419498969284025
 10
-6.14978633254094
 20
10.433162348532893
 10
-5.9868012674059194
 20
10.443095721491868
 10
-5.830469954433402
 20
10.450052027366004
 10
-5.681076763479782
 20
10.454725454364894
 10
-5.538903089217171
 20
10.457750312562375
 10
-5.404229965654584
 20
10.459699144299273
 10
-5.277337976159274
 20
10.461079816712273
 10
-5.15850441246638
 20
10.462331534267088
 10
-5.047997436332813
 20
10.463819902395807
 10
-4.9460668241077075
 20
10.465831395040741
 10
-4.85293076505996
 20
10.468567853599517
 10
-4.7687581920202105
 20
10.472141985715588
 10
-4.693646319166419
 20
10.47657522993029
 10
-4.627593530238326
 20
10.48179975735735
 10
-4.5704685757470385
 20
10.48766668751273
 10
-4.5219782226082765
 20
10.493962627104311
 10
-4.481636960439418
 20
10.500436168842382
 10
-4.448743826299035
 20
10.506834790812059
 10
-4.422372368427066
 20
10.512950584206353
 10
-4.401379590554353
 20
10.518670607293139
 10
-4.384437846055126
 20
10.524025023773355
 10
-4.3700899645251425
 20
10.529224496540552
 10
-4.356823015115983
 20
10.534678570068792
 10
-4.343151418275414
 20
10.540989492565267
 10
-4.327697286274986
 20
10.548920668829066
 10
-4.309256093520904
 20
10.559344306310749
 10
-4.28683909473589
 20
10.573177028562059
 10
-4.2596891463098325
 20
10.591313937517697
 10
-4.227271936110512
 20
10.614570521645254
 10
-4.189248516406655
 20
10.643638706159516
 10
-4.145436726976861
 20
10.679059537104278
 10
-4.095768761183049
 20
10.721211679255985
 10
-4.040250496053108
 20
10.770312759137308
 10
-3.9789261136109118
 20
10.826429696444988
 10
-3.911849614235429
 20
10.889494258118843
 10
-3.8390633862879318
 20
10.95932072591028
 10
-3.760583115391685
 20
11.035623423634295
 10
-3.6763879071413967
 20
11.118032659632568
 10
-3.586414420415762
 20
11.206108282189266
 10
-3.4905539333349473
 20
11.299350489589528
 10
-3.3886514917069883
 20
11.397207802532415
 10
-3.2805065589713163
 20
11.49908223708216
 10
-3.165874865843432
 20
11.604331758358722
 10
-3.044471436068055
 20
11.712270093094725
 10
-2.9159750414957197
 20
11.822163973489536
 10
-2.7800346166578036
 20
11.933227913976733
 10
-2.6362784353871787
 20
12.044616725637246
 10
-2.484327100066597
 20
12.15541619050845
 10
-2.323811573465166
 20
12.264632688644081
 10
-2.1543975157814623
 20
12.3711831211231
 10
-1.9758169589718162
 20
12.473887196621197
 10
-1.7879077099220324
 20
12.571464978242531
 10
-1.59065967962986
 20
12.662543350188015
 10
-1.3842655168728775
 20
12.745675460543458
 10
-1.1691705938204793
 20
12.81937681246251
 10
-0.9461149609307606
 20
12.882180080633338
 10
-0.7161581285946701
 20
12.932707684505917
 10
-0.4806774516065081
 20
12.969756888076441
 10
-0.2413333702090338
 20
12.992387635656524
 10
-4.960438517183369e-15
 20
13.000000000000002
  0
CIRCLE
  5
31
330
17
100
AcDbEntity
  8
0
100
AcDbCircle
 10
0.0
 20
0.0
 30
0.0
 40
11.080000000000002
  0
CIRCLE
  5
32
330
17
100
AcDbEntity
  8
0
100
AcDbCircle
 10
0.0
 20
0.0
 30
0.0
 40
9.32
  0
POINT
  5
33
330
17
100
AcDbEntity
  8
0
100
AcDbPoint
 10
0.0
 20
0.8
 30
0.0
  0
LWPOLYLINE
  5
34
330
17
100
AcDbEntity
  8
0
100
AcDbPolyline
 90
2
 70
0
 10
0.0
 20
0.0
 10
0.0
 20
0.8
  0
LWPOLYLINE
  5
35
330
17
100
AcDbEntity
  8
0
100
AcDbPolyline
 90
2
 70
0
 10
-6.0
 20
0.0
 10
6.0
 20
0.0
  0
LWPOLYLINE
  5
36
330
17
100
AcDbEntity
  8
0
100
AcDbPolyline
 90
2
 70
0
 10
-3.0
 20
0.8
 10
3.0
 20
0.8
  0
CIRCLE
  5
37
330
17
100
AcDbEntity
  8
0
100
AcDbCircle
 10
0.0
 20
0.8
 30
0.0
 40
8.200000000000001
  0
CIRCLE
  5
38
330
17
100
AcDbEntity
  8
0
100
AcDbCircle
 10
0.0
 20
0.0
 30
0.0
 40
14.0
  0
ENDSEC
  0
SECTION
  2
OBJECTS
  0
DICTIONARY
  5
A
330
0
100
AcDbDictionary
281
1
  3
ACAD_COLOR
350
B
  3
ACAD_GROUP
350
C
  3
ACAD_LAYOUT
350
D
  3
ACAD_MATERIAL
350
E
  3
ACAD_MLEADERSTYLE
350
F
  3
ACAD_MLINESTYLE
350
10
  3
ACAD_PLOTSETTINGS
350
11
  3
ACAD_PLOTSTYLENAME
350
12
  3
ACAD_SCALELIST
350
14
  3
ACAD_TABLESTYLE
350
15
  3
ACAD_VISUALSTYLE
350
16
  3
EZDXF_META
350
2D
  0
DICTIONARY
  5
B
330
A
100
AcDbDictionary
281
1
  0
DICTIONARY
  5
C
330
A
100
AcDbDictionary
281
1
  0
DICTIONARY
  5
D
330
A
100
AcDbDictionary
281
1
  3
Model
350
1A
  3
Layout1
350
1E
  0
DICTIONARY
  5
E
330
A
100
AcDbDictionary
281
1
  3
ByBlock
350
1F
  3
ByLayer
350
20
  3
Global
350
21
  0
DICTIONARY
  5
F
330
A
100
AcDbDictionary
281
1
  3
Standard
350
2C
  0
DICTIONARY
  5
10
330
A
100
AcDbDictionary
281
1
  3
Standard
350
22
  0
DICTIONARY
  5
11
330
A
100
AcDbDictionary
281
1
  0
ACDBDICTIONARYWDFLT
  5
12
330
A
100
AcDbDictionary
281
1
  3
Normal
350
13
100
AcDbDictionaryWithDefault
340
13
  0
ACDBPLACEHOLDER
  5
13
330
12
  0
DICTIONARY
  5
14
330
A
100
AcDbDictionary
281
1
  0
DICTIONARY
  5
15
330
A
100
AcDbDictionary
281
1
  0
DICTIONARY
  5
16
330
A
100
AcDbDictionary
281
1
  0
LAYOUT
  5
1A
330
D
100
AcDbPlotSettings
  1

  4
A3
  6

 40
7.5
 41
20.0
 42
7.5
 43
20.0
 44
420.0
 45
297.0
 46
0.0
 47
0.0
 48
0.0
 49
0.0
140
0.0
141
0.0
142
1.0
143
1.0
 70
1024
 72
1
 73
0
 74
5
  7

 75
16
 76
0
 77
2
 78
300
147
1.0
148
0.0
149
0.0
100
AcDbLayout
  1
Model
 70
1
 71
0
 10
0.0
 20
0.0
 11
420.0
 21
297.0
 12
0.0
 22
0.0
 32
0.0
 14
1e+20
 24
1e+20
 34
1e+20
 15
-1e+20
 25
-1e+20
 35
-1e+20
146
0.0
 13
0.0
 23
0.0
 33
0.0
 16
1.0
 26
0.0
 36
0.0
 17
0.0
 27
1.0
 37
0.0
 76
1
330
17
  0
LAYOUT
  5
1E
330
D
100
AcDbPlotSettings
  1

  4
A3
  6

 40
7.5
 41
20.0
 42
7.5
 43
20.0
 44
420.0
 45
297.0
 46
0.0
 47
0.0
 48
0.0
 49
0.0
140
0.0
141
0.0
142
1.0
143
1.0
 70
0
 72
1
 73
0
 74
5
  7

 75
16
 76
0
 77
2
 78
300
147
1.0
148
0.0
149
0.0
100
AcDbLayout
  1
Layout1
 70
1
 71
1
 10
0.0
 20
0.0
 11
420.0
 21
297.0
 12
0.0
 22
0.0
 32
0.0
 14
1e+20
 24
1e+20
 34
1e+20
 15
-1e+20
 25
-1e+20
 35
-1e+20
146
0.0
 13
0.0
 23
0.0
 33
0.0
 16
1.0
 26
0.0
 36
0.0
 17
0.0
 27
1.0
 37
0.0
 76
1
330
1B
  0
MATERIAL
  5
1F
102
{ACAD_REACTORS
330
E
102
}
330
E
100
AcDbMaterial
  1
ByBlock
  2

 70
0
 40
1.0
 71
1
 41
1.0
 91
-1023410177
 42
1.0
 72
1
  3

 73
1
 74
1
 75
1
 44
0.5
 73
0
 45
1.0
 46
1.0
 77
1
  4

 78
1
 79
1
170
1
 48
1.0
171
1
  6

172
1
173
1
174
1
140
1.0
141
1.0
175
1
  7

176
1
177
1
178
1
143
1.0
179
1
  8

270
1
271
1
272
1
145
1.0
146
1.0
273
1
  9

274
1
275
1
276
1
 42
1.0
 72
1
  3

 73
1
 74
1
 75
1
 94
63
  0
MATERIAL
  5
20
102
{ACAD_REACTORS
330
E
102
}
330
E
100
AcDbMaterial
  1
ByLayer
  2

 70
0
 40
1.0
 71
1
 41
1.0
 91
-1023410177
 42
1.0
 72
1
  3

 73
1
 74
1
 75
1
 44
0.5
 73
0
 45
1.0
 46
1.0
 77
1
  4

 78
1
 79
1
170
1
 48
1.0
171
1
  6

172
1
173
1
174
1
140
1.0
141
1.0
175
1
  7

176
1
177
1
178
1
143
1.0
179
1
  8

270
1
271
1
272
1
145
1.0
146
1.0
273
1
  9

274
1
275
1
276
1
 42
1.0
 72
1
  3

 73
1
 74
1
 75
1
 94
63
  0
MATERIAL
  5
21
102
{ACAD_REACTORS
330
E
102
}
330
E
100
AcDbMaterial
  1
Global
  2

 70
0
 40
1.0
 71
1
 41
1.0
 91
-1023410177
 42
1.0
 72
1
  3

 73
1
 74
1
 75
1
 44
0.5
 73
0
 45
1.0
 46
1.0
 77
1
  4

 78
1
 79
1
170
1
 48
1.0
171
1
  6

172
1
173
1
174
1
140
1.0
141
1.0
175
1
  7

176
1
177
1
178
1
143
1.0
179
1
  8

270
1
271
1
272
1
145
1.0
146
1.0
273
1
  9

274
1
275
1
276
1
 42
1.0
 72
1
  3

 73
1
 74
1
 75
1
 94
63
  0
MLINESTYLE
  5
22
102
{ACAD_REACTORS
330
10
102
}
330
10
100
AcDbMlineStyle
  2
Standard
 70
0
  3

 62
256
 51
90.0
 52
90.0
 71
2
 49
0.5
 62
256
  6
BYLAYER
 49
-0.5
 62
256
  6
BYLAYER
  0
MLEADERSTYLE
  5
2C
102
{ACAD_REACTORS
330
F
102
}
330
F
100
AcDbMLeaderStyle
179
2
170
2
171
1
172
0
 90
2
 40
0.0
 41
0.0
173
1
 91
-1056964608
 92
-2
290
1
 42
2.0
291
1
 43
8.0
  3
Standard
 44
4.0
300

342
29
174
1
175
1
176
0
178
1
 93
-1056964608
 45
4.0
292
0
297
0
 46
4.0
 94
-1056964608
 47
1.0
 49
1.0
140
1.0
294
1
141
0.0
177
0
142
1.0
295
0
296
0
143
3.75
271
0
272
9
273
9
  0
DICTIONARY
  5
2D
330
A
100
AcDbDictionary
280
1
281
1
  3
CREATED_BY_EZDXF
350
2E
  3
WRITTEN_BY_EZDXF
350
3B
  0
DICTIONARYVAR
  5
2E
330
2D
100
DictionaryVariables
280
0
  1
1.4.4 @ 2026-08-13T08:32:53.157956+00:00
  0
DICTIONARYVAR
  5
3B
330
2D
100
DictionaryVariables
280
0
  1
1.4.4 @ 2026-08-13T08:32:53.162955+00:00
  0
ENDSEC
  0
EOF
