  0
SECTION
  2
HEADER
  9
$ACADVER
  1
AC1015
  9
$ACADMAINTVER
 70
6
  9
$DWGCODEPAGE
  3
ANSI_1252
  9
$INSBASE
 10
0.0
 20
0.0
 30
0.0
  9
$EXTMIN
 10
1e+20
 20
1e+20
 30
1e+20
  9
$EXTMAX
 10
-1e+20
 20
-1e+20
 30
-1e+20
  9
$LIMMIN
 10
0.0
 20
0.0
  9
$LIMMAX
 10
420.0
 20
297.0
  9
$ORTHOMODE
 70
0
  9
$REGENMODE
 70
1
  9
$FILLMODE
 70
1
  9
$QTEXTMODE
 70
0
  9
$MIRRTEXT
 70
1
  9
$LTSCALE
 40
1.0
  9
$ATTMODE
 70
1
  9
$TEXTSIZE
 40
2.5
  9
$TRACEWID
 40
1.0
  9
$TEXTSTYLE
  7
Standard
  9
$CLAYER
  8
0
  9
$CELTYPE
  6
ByLayer
  9
$CECOLOR
 62
256
  9
$CELTSCALE
 40
1.0
  9
$DISPSILH
 70
0
  9
$DIMSCALE
 40
1.0
  9
$DIMASZ
 40
2.5
  9
$DIMEXO
 40
0.625
  9
$DIMDLI
 40
3.75
  9
$DIMRND
 40
0.0
  9
$DIMDLE
 40
0.0
  9
$DIMEXE
 40
1.25
  9
$DIMTP
 40
0.0
  9
$DIMTM
 40
0.0
  9
$DIMTXT
 40
2.5
  9
$DIMCEN
 40
2.5
  9
$DIMTSZ
 40
0.0
  9
$DIMTOL
 70
0
  9
$DIMLIM
 70
0
  9
$DIMTIH
 70
0
  9
$DIMTOH
 70
0
  9
$DIMSE1
 70
0
  9
$DIMSE2
 70
0
  9
$DIMTAD
 70
1
  9
$DIMZIN
 70
8
  9
$DIMBLK
  1

  9
$DIMASO
 70
1
  9
$DIMSHO
 70
1
  9
$DIMPOST
  1

  9
$DIMAPOST
  1

  9
$DIMALT
 70
0
  9
$DIMALTD
 70
3
  9
$DIMALTF
 40
0.03937007874
  9
$DIMLFAC
 40
1.0
  9
$DIMTOFL
 70
1
  9
$DIMTVP
 40
0.0
  9
$DIMTIX
 70
0
  9
$DIMSOXD
 70
0
  9
$DIMSAH
 70
0
  9
$DIMBLK1
  1

  9
$DIMBLK2
  1

  9
$DIMSTYLE
  2
ISO-25
  9
$DIMCLRD
 70
0
  9
$DIMCLRE
 70
0
  9
$DIMCLRT
 70
0
  9
$DIMTFAC
 40
1.0
  9
$DIMGAP
 40
0.625
  9
$DIMJUST
 70
0
  9
$DIMSD1
 70
0
  9
$DIMSD2
 70
0
  9
$DIMTOLJ
 70
0
  9
$DIMTZIN
 70
8
  9
$DIMALTZ
 70
0
  9
$DIMALTTZ
 70
0
  9
$DIMUPT
 70
0
  9
$DIMDEC
 70
2
  9
$DIMTDEC
 70
2
  9
$DIMALTU
 70
2
  9
$DIMALTTD
 70
3
  9
$DIMTXSTY
  7
Standard
  9
$DIMAUNIT
 70
0
  9
$DIMADEC
 70
0
  9
$DIMALTRND
 40
0.0
  9
$DIMAZIN
 70
0
  9
$DIMDSEP
 70
44
  9
$DIMATFIT
 70
3
  9
$DIMFRAC
 70
0
  9
$DIMLDRBLK
  1

  9
$DIMLUNIT
 70
2
  9
$DIMLWD
 70
-2
  9
$DIMLWE
 70
-2
  9
$DIMTMOVE
 70
0
  9
$LUNITS
 70
2
  9
$LUPREC
 70
4
  9
$SKETCHINC
 40
1.0
  9
$FILLETRAD
 40
10.0
  9
$AUNITS
 70
0
  9
$AUPREC
 70
2
  9
$MENU
  1
.
  9
$ELEVATION
 40
0.0
  9
$PELEVATION
 40
0.0
  9
$THICKNESS
 40
0.0
  9
$LIMCHECK
 70
0
  9
$CHAMFERA
 40
0.0
  9
$CHAMFERB
 40
0.0
  9
$CHAMFERC
 40
0.0
  9
$CHAMFERD
 40
0.0
  9
$SKPOLY
 70
0
  9
$TDCREATE
 40
2461266.473148148
  9
$TDUCREATE
 40
2458532.153996898
  9
$TDUPDATE
 40
2461266.473148148
  9
$TDUUPDATE
 40
2458532.1544311
  9
$TDINDWG
 40
0.0
  9
$TDUSRTIMER
 40
0.0
  9
$USRTIMER
 70
1
  9
$ANGBASE
 50
0.0
  9
$ANGDIR
 70
0
  9
$PDMODE
 70
0
  9
$PDSIZE
 40
0.0
  9
$PLINEWID
 40
0.0
  9
$SPLFRAME
 70
0
  9
$SPLINETYPE
 70
6
  9
$SPLINESEGS
 70
8
  9
$HANDSEED
  5
3C
  9
$SURFTAB1
 70
6
  9
$SURFTAB2
 70
6
  9
$SURFTYPE
 70
6
  9
$SURFU
 70
6
  9
$SURFV
 70
6
  9
$UCSBASE
  2

  9
$UCSNAME
  2

  9
$UCSORG
 10
0.0
 20
0.0
 30
0.0
  9
$UCSXDIR
 10
1.0
 20
0.0
 30
0.0
  9
$UCSYDIR
 10
0.0
 20
1.0
 30
0.0
  9
$UCSORTHOREF
  2

  9
$UCSORTHOVIEW
 70
0
  9
$UCSORGTOP
 10
0.0
 20
0.0
 30
0.0
  9
$UCSORGBOTTOM
 10
0.0
 20
0.0
 30
0.0
  9
$UCSORGLEFT
 10
0.0
 20
0.0
 30
0.0
  9
$UCSORGRIGHT
 10
0.0
 20
0.0
 30
0.0
  9
$UCSORGFRONT
 10
0.0
 20
0.0
 30
0.0
  9
$UCSORGBACK
 10
0.0
 20
0.0
 30
0.0
  9
$PUCSBASE
  2

  9
$PUCSNAME
  2

  9
$PUCSORG
 10
0.0
 20
0.0
 30
0.0
  9
$PUCSXDIR
 10
1.0
 20
0.0
 30
0.0
  9
$PUCSYDIR
 10
0.0
 20
1.0
 30
0.0
  9
$PUCSORTHOREF
  2

  9
$PUCSORTHOVIEW
 70
0
  9
$PUCSORGTOP
 10
0.0
 20
0.0
 30
0.0
  9
$PUCSORGBOTTOM
 10
0.0
 20
0.0
 30
0.0
  9
$PUCSORGLEFT
 10
0.0
 20
0.0
 30
0.0
  9
$PUCSORGRIGHT
 10
0.0
 20
0.0
 30
0.0
  9
$PUCSORGFRONT
 10
0.0
 20
0.0
 30
0.0
  9
$PUCSORGBACK
 10
0.0
 20
0.0
 30
0.0
  9
$USERI1
 70
0
  9
$USERI2
 70
0
  9
$USERI3
 70
0
  9
$USERI4
 70
0
  9
$USERI5
 70
0
  9
$USERR1
 40
0.0
  9
$USERR2
 40
0.0
  9
$USERR3
 40
0.0
  9
$USERR4
 40
0.0
  9
$USERR5
 40
0.0
  9
$WORLDVIEW
 70
1
  9
$SHADEDGE
 70
3
  9
$SHADEDIF
 70
70
  9
$TILEMODE
 70
1
  9
$MAXACTVP
 70
64
  9
$PINSBASE
 10
0.0
 20
0.0
 30
0.0
  9
$PLIMCHECK
 70
0
  9
$PEXTMIN
 10
1e+20
 20
1e+20
 30
1e+20
  9
$PEXTMAX
 10
-1e+20
 20
-1e+20
 30
-1e+20
  9
$PLIMMIN
 10
0.0
 20
0.0
  9
$PLIMMAX
 10
420.0
 20
297.0
  9
$UNITMODE
 70
0
  9
$VISRETAIN
 70
1
  9
$PLINEGEN
 70
0
  9
$PSLTSCALE
 70
1
  9
$TREEDEPTH
 70
3020
  9
$CMLSTYLE
  2
Standard
  9
$CMLJUST
 70
0
  9
$CMLSCALE
 40
20.0
  9
$PROXYGRAPHICS
 70
1
  9
$MEASUREMENT
 70
1
  9
$CELWEIGHT
370
-1
  9
$ENDCAPS
280
0
  9
$JOINSTYLE
280
0
  9
$LWDISPLAY
290
0
  9
$INSUNITS
 70
6
  9
$HYPERLINKBASE
  1

  9
$STYLESHEET
  1

  9
$XEDIT
290
1
  9
$CEPSNTYPE
380
0
  9
$PSTYLEMODE
290
1
  9
$FINGERPRINTGUID
  2
{FBD6351B-F8BE-449B-870C-26EECB33EBBC}
  9
$VERSIONGUID
  2
{E16AC7D8-428D-4EA1-8C9A-F467764AA1EE}
  9
$EXTNAMES
290
1
  9
$PSVPSCALE
 40
0.0
  9
$OLESTARTUP
290
0
  0
ENDSEC
  0
SECTION
  2
CLASSES
  0
CLASS
  1
ACDBDICTIONARYWDFLT
  2
AcDbDictionaryWithDefault
  3
ObjectDBX Classes
 90
0
280
0
281
0
  0
CLASS
  1
SUN
  2
AcDbSun
  3
SCENEOE
 90
1153
280
0
281
0
  0
CLASS
  1
VISUALSTYLE
  2
AcDbVisualStyle
  3
ObjectDBX Classes
 90
4095
280
0
281
0
  0
CLASS
  1
MATERIAL
  2
AcDbMaterial
  3
ObjectDBX Classes
 90
1153
280
0
281
0
  0
CLASS
  1
SCALE
  2
AcDbScale
  3
ObjectDBX Classes
 90
1153
280
0
281
0
  0
CLASS
  1
TABLESTYLE
  2
AcDbTableStyle
  3
ObjectDBX Classes
 90
4095
280
0
281
0
  0
CLASS
  1
MLEADERSTYLE
  2
AcDbMLeaderStyle
  3
ACDB_MLEADERSTYLE_CLASS
 90
4095
280
0
281
0
  0
CLASS
  1
DICTIONARYVAR
  2
AcDbDictionaryVar
  3
ObjectDBX Classes
 90
0
280
0
281
0
  0
CLASS
  1
CELLSTYLEMAP
  2
AcDbCellStyleMap
  3
ObjectDBX Classes
 90
1152
280
0
281
0
  0
CLASS
  1
MENTALRAYRENDERSETTINGS
  2
AcDbMentalRayRenderSettings
  3
SCENEOE
 90
1024
280
0
281
0
  0
CLASS
  1
ACDBDETAILVIEWSTYLE
  2
AcDbDetailViewStyle
  3
ObjectDBX Classes
 90
1025
280
0
281
0
  0
CLASS
  1
ACDBSECTIONVIEWSTYLE
  2
AcDbSectionViewStyle
  3
ObjectDBX Classes
 90
1025
280
0
281
0
  0
CLASS
  1
RASTERVARIABLES
  2
AcDbRasterVariables
  3
ISM
 90
0
280
0
281
0
  0
CLASS
  1
ACDBPLACEHOLDER
  2
AcDbPlaceHolder
  3
ObjectDBX Classes
 90
0
280
0
281
0
  0
CLASS
  1
LAYOUT
  2
AcDbLayout
  3
ObjectDBX Classes
 90
0
280
0
281
0
  0
ENDSEC
  0
SECTION
  2
TABLES
  0
TABLE
  2
VPORT
  5
8
330
0
100
AcDbSymbolTable
 70
1
  0
VPORT
  5
23
330
8
100
AcDbSymbolTableRecord
100
AcDbViewportTableRecord
  2
*Active
 70
0
 10
0.0
 20
0.0
 11
1.0
 21
1.0
 12
0.0
 22
0.0
 13
0.0
 23
0.0
 14
0.5
 24
0.5
 15
0.5
 25
0.5
 16
0.0
 26
0.0
 36
1.0
 17
0.0
 27
0.0
 37
0.0
 40
1000.0
 41
1.34
 42
50.0
 43
0.0
 44
0.0
 50
0.0
 51
0.0
 71
0
 72
1000
 73
1
 74
3
 75
0
 76
0
 77
0
 78
0
281
0
 65
0
146
0.0
  0
ENDTAB
  0
TABLE
  2
LTYPE
  5
2
330
0
100
AcDbSymbolTable
 70
3
  0
LTYPE
  5
24
330
2
100
AcDbSymbolTableRecord
100
AcDbLinetypeTableRecord
  2
ByBlock
 70
0
  3

 72
65
 73
0
 40
0.0
  0
LTYPE
  5
25
330
2
100
AcDbSymbolTableRecord
100
AcDbLinetypeTableRecord
  2
ByLayer
 70
0
  3

 72
65
 73
0
 40
0.0
  0
LTYPE
  5
26
330
2
100
AcDbSymbolTableRecord
100
AcDbLinetypeTableRecord
  2
Continuous
 70
0
  3

 72
65
 73
0
 40
0.0
  0
ENDTAB
  0
TABLE
  2
LAYER
  5
1
330
0
100
AcDbSymbolTable
 70
2
  0
LAYER
  5
27
330
1
100
AcDbSymbolTableRecord
100
AcDbLayerTableRecord
  2
0
 70
0
 62
7
  6
Continuous
370
-3
390
13
  0
LAYER
  5
28
330
1
100
AcDbSymbolTableRecord
100
AcDbLayerTableRecord
  2
Defpoints
 70
0
 62
7
  6
Continuous
290
0
370
-3
390
13
  0
ENDTAB
  0
TABLE
  2
STYLE
  5
5
330
0
100
AcDbSymbolTable
 70
1
  0
STYLE
  5
29
330
5
100
AcDbSymbolTableRecord
100
AcDbTextStyleTableRecord
  2
Standard
 70
0
 40
0.0
 41
1.0
 50
0.0
 71
0
 42
2.5
  3
txt
  4

  0
ENDTAB
  0
TABLE
  2
VIEW
  5
7
330
0
100
AcDbSymbolTable
 70
0
  0
ENDTAB
  0
TABLE
  2
UCS
  5
6
330
0
100
AcDbSymbolTable
 70
0
  0
ENDTAB
  0
TABLE
  2
APPID
  5
3
330
0
100
AcDbSymbolTable
 70
3
  0
APPID
  5
2A
330
3
100
AcDbSymbolTableRecord
100
AcDbRegAppTableRecord
  2
ACAD
 70
0
  0
APPID
  5
39
330
3
100
AcDbSymbolTableRecord
100
AcDbRegAppTableRecord
  2
HATCHBACKGROUNDCOLOR
 70
0
  0
APPID
  5
3A
330
3
100
AcDbSymbolTableRecord
100
AcDbRegAppTableRecord
  2
EZDXF
 70
0
  0
ENDTAB
  0
TABLE
  2
DIMSTYLE
  5
4
330
0
100
AcDbSymbolTable
 70
1
100
AcDbDimStyleTable
  0
DIMSTYLE
105
2B
330
4
100
AcDbSymbolTableRecord
100
AcDbDimStyleTableRecord
  2
Standard
 70
0
  3

  4

 40
1.0
 41
2.5
 42
0.625
 43
3.75
 44
1.25
 45
0.0
 46
0.0
 47
0.0
 48
0.0
140
2.5
141
2.5
142
0.0
143
0.03937007874
144
1.0
145
0.0
146
1.0
147
0.625
148
0.0
 71
0
 72
0
 73
0
 74
0
 75
0
 76
0
 77
1
 78
8
 79
3
170
0
171
3
172
1
173
0
174
0
175
0
176
0
177
0
178
0
179
2
271
2
272
2
273
2
274
3
275
0
276
0
277
2
278
44
279
0
280
0
281
0
282
0
283
0
284
8
285
0
286
0
288
0
289
3
371
-2
372
-2
  0
ENDTAB
  0
TABLE
  2
BLOCK_RECORD
  5
9
330
0
100
AcDbSymbolTable
 70
2
  0
BLOCK_RECORD
  5
17
330
9
100
AcDbSymbolTableRecord
100
AcDbBlockTableRecord
  2
*Model_Space
340
1A
  0
BLOCK_RECORD
  5
1B
330
9
100
AcDbSymbolTableRecord
100
AcDbBlockTableRecord
  2
*Paper_Space
340
1E
  0
ENDTAB
  0
ENDSEC
  0
SECTION
  2
BLOCKS
  0
BLOCK
  5
18
330
17
100
AcDbEntity
  8
0
100
AcDbBlockBegin
  2
*Model_Space
 70
0
 10
0.0
 20
0.0
 30
0.0
  3
*Model_Space
  1

  0
ENDBLK
  5
19
330
17
100
AcDbEntity
  8
0
100
AcDbBlockEnd
  0
BLOCK
  5
1C
330
1B
100
AcDbEntity
  8
0
100
AcDbBlockBegin
  2
*Paper_Space
 70
0
 10
0.0
 20
0.0
 30
0.0
  3
*Paper_Space
  1

  0
ENDBLK
  5
1D
330
1B
100
AcDbEntity
  8
0
100
AcDbBlockEnd
  0
ENDSEC
  0
SECTION
  2
ENTITIES
  0
POINT
  5
2F
330
17
100
AcDbEntity
  8
0
100
AcDbPoint
 10
0.0
 20
0.0
 30
0.0
  0
LWPOLYLINE
  5
30
330
17
100
AcDbEntity
  8
0
100
AcDbPolyline
 90
600
 70
0
 10
0.0
 20
21.0
 10
0.2947489947871853
 20
20.992955442366632
 10
0.5881655468398941
 20
20.971948971106308
 10
0.8789673762889669
 20
20.937355099922097
 10
1.16596741367887
 20
20.889775372856644
 10
1.4481095672515496
 20
20.830007628781356
 10
1.7244926736091593
 20
20.75900866031284
 10
1.9943819668467604
 20
20.677854411217915
 10
2.2572090777136404
 20
20.587701399110856
 10
2.5125627513482103
 20
20.489752084098665
 10
2.760173038221803
 20
20.385225740922277
 10
2.99989172920762
 20
20.275335304974284
 10
3.2316714366259003
 20
20.161269823727295
 10
3.4555451599451183
 20
20.044181616726586
 10
3.671607579988063
 20
19.92517700717239
 10
3.8799988071265483
 20
19.805309468387104
 10
4.080890919896174
 20
19.685574149989698
 10
4.274477380821879
 20
19.566902943156936
 10
4.460965289416021
 20
19.45015946444303
 10
4.640570398503537
 20
19.336133557370406
 10
4.8135148449749
 20
19.225535122052396
 10
4.980027595182525
 20
19.118987288572725
 10
5.140347644670032
 20
19.017019157681275
 10
5.2947300086367575
 20
18.920058548724814
 10
5.443454461759642
 20
18.828425417341382
 10
5.586836806669409
 20
18.74232681737059
 10
5.725242154347451
 20
18.661854446531578
 10
5.859099294919708
 20
18.58698587812657
 10
5.988914767768048
 20
18.517590473942434
 10
6.115284794685699
 20
18.45344063580817
 10
6.238902949916181
 20
18.39422845927184
 10
6.360561454944016
 20
18.33958704380205
 10
6.481144422928533
 20
18.289114817776635
 10
6.601612267726307
 20
18.24240045814727
 10
6.722977730043317
 20
18.199045555598186
 10
6.846275314819524
 20
18.158682273110273
 10
6.972527056717148
 20
18.120983911054125
 10
7.102708139414801
 20
18.085667395518737
 10
7.237715831373163
 20
18.052487980372153
 10
7.378344503836139
 20
18.021227584571925
 10
7.525268378640484
 20
17.99167892675675
 10
7.679032413389961
 20
17.96362786142872
 10
7.840050648319142
 20
17.936836108176156
 10
8.008610591440366
 20
17.911026045550294
 10
8.184881859584758
 20
17.885868597411918
 10
8.368927272913293
 20
17.86097462909432
 10
8.56071481317993
 20
17.835889793045297
 10
8.760129185082375
 20
17.810092457269164
 10
8.966982070036288
 20
17.782994207796133
 10
9.181020471431102
 20
17.75394240674555
 10
9.40193279244588
 20
17.72222437155981
 10
9.629352460865928
 20
17.687072883905298
 10
9.862859036604885
 20
17.64767291198953
 10
10.101976833213993
 20
17.6031696184459
 10
10.346171185150544
 20
17.552677911963674
 10
10.594842628411815
 20
17.495293967600134
 10
10.847319459159987
 20
17.43010926498611
 10
11.102849408539981
 20
17.356227742349365
 10
11.360591518784478
 20
17.272786594203563
 10
11.619609694196537
 20
17.17898100355719
 10
11.878869761722704
 20
17.074092655599642
 10
12.137242101130024
 20
16.95752121864188
 10
12.393511858270845
 20
16.82881714540268
 10
12.646398305456481
 20
16.687713267599495
 10
12.894583987049327
 20
16.534151933894513
 10
13.136752929807265
 20
16.368304127500313
 10
13.371635606630557
 20
16.190577320013507
 10
13.598056862319321
 20
16.00160987164579
 10
13.814982042088785
 20
15.802251467833626
 10
14.02155642971885
 20
15.59353106133898
 10
14.217133910046062
 20
15.376615602446254
 10
14.401292351612437
 20
15.152764039703124
 10
14.573835165162903
 20
14.923281389112546
 10
14.734780354382247
 20
14.68947709588874
 10
14.88433974129836
 20
14.452630688701852
 10
15.022891720195837
 20
14.213966222512957
 10
15.1509508873751
 20
13.974635586137554
 10
15.269137384373476
 20
13.735709666888095
 10
15.378148018364403
 20
13.498175720049305
 10
15.478730405476925
 20
13.262939060029263
 10
15.571660674294911
 20
13.030827270308643
 10
15.657724744456646
 20
12.802595394699301
 10
15.737702873210994
 20
12.578930911245997
 10
15.812357016426724
 20
12.360457623453238
 10
15.88242053876248
 20
12.147737888110806
 10
15.94858988802509
 20
11.941272821344963
 10
16.011517985036143
 20
11.741500292226657
 10
16.071809244435936
 20
11.548790646750545
 10
16.130016311445388
 20
11.36344023094099
 10
16.186638754149136
 20
11.18566292788269
 10
16.24212406737277
 20
11.015580113103223
 10
16.29687139432312
 20
10.85320967922108
 10
16.3512383221619
 20
10.698455079624292
 10
16.405550923630308
 20
10.55109566174782
 10
16.46011687583285
 20
10.410779841085219
 10
16.51524099458121
 20
10.277022814957046
 10
16.571241930339017
 20
10.149210422405254
 10
16.62846818978849
 20
10.026610331668982
 10
16.68731123508237
 20
9.908390948231414
 10
16.748213343946052
 20
9.793647355543133
 10
16.81166831251944
 20
9.681432416747235
 10
16.87821395912539
 20
9.570790155517338
 10
16.948416599618145
 20
9.460787979511577
 10
17.02284894285878
 20
9.350544394107624
 10
17.102063881572693
 20
9.239249582059035
 10
17.18656717897688
 20
9.126177412525141
 10
17.27679197871905
 20
9.010688784372624
 10
17.373077474543386
 20
8.892227387264475
 10
17.47565317409787
 20
8.770309756048988
 10
17.584629225889337
 20
8.644511819324768
 10
17.699992454496943
 20
8.514454054906025
 10
17.821607182916306
 20
8.379786997605015
 10
17.949219636121576
 20
8.240178352798438
 10
18.082464673816816
 20
8.09530248172336
 10
18.220873718932324
 20
7.944832624022013
 10
18.36388295649141
 20
7.7884359459194945
 10
18.510841116495815
 20
7.625771349747728
 10
18.66101638893574
 20
7.456489932648287
 10
18.813602234854645
 20
7.280238010145907
 10
18.967722056494438
 20
7.096662692296085
 10
19.12243288310693
 20
6.905420084706466
 10
19.276728430861105
 20
6.706186252101319
 10
19.42954211530951
 20
6.498671094942816
 10
19.57975083243353
 20
6.2826352148547
 10
19.72618056136491
 20
6.057909647941122
 10
19.86761503738849
 20
5.824418000369976
 10
20.002808831461827
 20
5.582200022551652
 10
20.13050606643905
 20
5.331435039832065
 10
20.249465613257975
 20
5.072463006709633
 10
20.358492886466284
 20
4.805800417854755
 10
20.456477314881216
 20
4.532148088880666
 10
20.542433327542724
 20
4.252388109043493
 10
20.615541513916593
 20
3.9675681879378706
 10
20.67518581366433
 20
3.6788731344064964
 10
20.720982468397683
 20
3.387585082974941
 10
20.752797186065123
 20
3.0950359142075885
 10
20.77074845258372
 20
2.8025566365563037
 10
20.775196856765636
 20
2.511428950574564
 10
20.766722209349524
 20
2.2228436869782793
 10
20.74609168737013
 20
1.9378694684308169
 10
20.714222941102033
 20
1.6574331731811793
 10
20.672146021470134
 20
1.3823120217689837
 10
20.62096729066122
 20
1.1131357246851696
 10
20.561837450115192
 20
0.8503963041303351
 10
20.495924742900357
 20
0.5944629415504573
 10
20.424393471017584
 20
0.34559938200371776
 10
20.348387318143658
 20
0.10398187076657217
 10
20.26901659931527
 20
-0.13028386053239716
 10
20.187348427286707
 20
-0.357147525611226
 10
20.10439882290572
 20
-0.5766016829923806
 10
20.021125937218372
 20
-0.7886718596455942
 10
19.938423744430082
 20
-0.9934094801922086
 10
19.857115774587363
 20
-1.190887602927591
 10
19.777948667134325
 20
-1.3811994469340658
 10
19.70158553745022
 20
-1.5644597062158634
 10
19.628599359830208
 20
-1.7408086523636628
 10
19.559466782948014
 20
-1.910418992893384
 10
19.49456300108001
 20
-2.0735053467770204
 10
19.43415848663435
 20
-2.2303359969766188
 10
19.378418510497514
 20
-2.381246271177526
 10
19.32740638441077
 20
-2.526652500366321
 10
19.28109119509621
 20
-2.6670650608138673
 10
19.239360415876156
 20
-2.8030986120064445
 10
19.202037169435222
 20
-2.935477431655773
 10
19.168901132900604
 20
-3.0650338598152196
 10
19.13971126165917
 20
-3.1926984001608205
 10
19.114227863744663
 20
-3.3194809953624294
 10
19.09223129540714
 20
-3.4464442669400652
 10
19.07353481512293
 20
-3.5746708290447993
 10
19.057989931464796
 20
-3.705227826006092
 10
19.04548374784804
 20
-3.839132325071218
 10
19.035929060703136
 20
-3.977320988378329
 10
19.029249000993385
 20
-4.120626621849951
 10
19.025358600586358
 20
-4.269762992100313
 10
19.024145742913372
 20
-4.425318028081077
 10
19.025453598589614
 20
-4.587754458567514
 10
19.029066022286806
 20
-4.757416244616503
 10
19.034696688522068
 20
-4.93453888188559
 10
19.041982123977885
 20
-5.119261703168972
 10
19.050478339596406
 20
-5.311640587342506
 10
19.059660500764874
 20
-5.511659853977988
 10
19.06892497828801
 20
-5.719242496523693
 10
19.077593155611677
 20
-5.934258222167937
 10
19.084916485477173
 20
-6.15652899959818
 10
19.090082456265325
 20
-6.385831969610776
 10
19.09222132024048
 20
-6.6218996674949615
 10
19.090413637622774
 20
-6.864417568998305
 10
19.08369889171678
 20
-7.113019036107654
 10
19.071085620297566
 20
-7.3672778378990715
 10
19.051563669759712
 20
-7.626698585395647
 10
19.024119282698997
 20
-7.8907056698980025
 10
18.987753734904217
 20
-8.158631638261069
 10
18.941506091975786
 20
-8.429706356798013
 10
18.884480306578794
 20
-8.703048751592293
 10
18.815876291848237
 20
-8.977663266845829
 10
18.735023799065612
 20
-9.252443315743612
 10
18.641416988153136
 20
-9.526183758343802
 10
18.534746686996368
 20
-9.79760371240417
 10
18.4149267408603
 20
-10.06537977019626
 10
18.282110816911818
 20
-10.328188096503194
 10
18.136696724681237
 20
-10.584752224795345
 10
17.979316730165408
 20
-10.833892059232456
 10
17.810814237758045
 20
-11.074569015407619
 10
17.632209164520308
 20
-11.305922606224128
 10
17.444655860022024
 20
-11.527295044583164
 10
17.24939817478161
 20
-11.738242273663461
 10
17.04772613351075
 20
-11.938531784717707
 10
16.840937767265295
 20
-12.128129198495195
 10
16.630308319811494
 20
-12.307176585512885
 10
16.417067631921405
 20
-12.47596581256667
 10
16.202385314719848
 20
-12.63490994072799
 10
15.987362508318956
 20
-12.784515075767594
 10
15.773028610639225
 20
-12.925354309708752
 10
15.5603412863958
 20
-13.058044668448213
 10
15.350188218664027
 20
-13.183227400435403
 10
15.14338933590874
 20
-13.30155154480756
 10
14.94069855048399
 20
-13.413660497406733
 10
14.74280432706609
 20
-13.520181218343875
 10
14.550328637709544
 20
-13.621715755898911
 10
14.363824053379755
 20
-13.718834861116717
 10
14.18376888394791
 20
-13.812073603569777
 10
14.01056043163699
 20
-13.901929044392705
 10
13.844506590578057
 20
-13.98886015282702
 10
13.685816227415783
 20
-14.07329024075437
 10
13.53458902450711
 20
-14.15561220618854
 10
13.390805750337005
 20
-14.236196789077237
 10
13.254320208611102
 20
-14.315403821907168
 10
13.124854346098104
 20
-14.393596089163125
 10
13.001998081725558
 20
-14.471154910369256
 10
12.885215257911588
 20
-14.548495995248285
 10
12.773856633513022
 20
-14.62608360499557
 10
12.667180023384953
 20
-14.704440750864633
 10
12.56437663001329
 20
-14.784153231653912
 10
12.464601505411471
 20
-14.865865855918074
 10
12.367005196792917
 20
-14.950270190875635
 10
12.270763228009415
 20
-15.038084455736444
 10
12.175100301267083
 20
-15.130027442389402
 10
12.07930694161148
 20
-15.22678928426005
 10
11.98274754195592
 20
-15.329002274331902
 10
11.884860085620817
 20
-15.437214693290846
 10
11.78514892095828
 20
-15.551869864711291
 10
11.683172638733575
 20
-15.673291641665823
 10
11.578529305474138
 20
-15.801676508641645
 10
11.47084111171503
 20
-15.937091656683926
 10
11.35974005149661
 20
-16.079477860923916
 10
11.244855716955398
 20
-16.22865576383042
 10
11.125805794306242
 20
-16.384334184929497
 10
11.002189459207564
 20
-16.546119251990913
 10
10.873583617495726
 20
-16.713523397636802
 10
10.739541815286001
 20
-16.88597352827186
 10
10.599595626120536
 20
-17.06281791476529
 10
10.453258381378802
 20
-17.24333156539332
 10
10.300031212611819
 20
-17.426720027092916
 10
10.139411491525674
 20
-17.61212173690536
 10
9.9709038561863
 20
-17.79860923074933
 10
9.794034069916323
 20
-17.985189727607406
 10
9.608365938035643
 20
-18.170805850736148
 10
9.413521370227544
 20
-18.354337514114324
 10
9.209203389038374
 20
-18.53460625908047
 10
8.995221428556194
 20
-18.710383511798053
 10
8.771517654403427
 20
-18.880404259006106
 10
8.53819233138909
 20
-19.043387406321994
 10
8.295525598691839
 20
-19.198063504724733
 10
8.043992575316915
 20
-19.34320958019018
 10
7.784268727058269
 20
-19.477689556618053
 10
7.517223052576578
 20
-19.60049743072883
 10
7.2438979321508405
 20
-19.71079925558747
 10
6.9654762726535235
 20
-19.80796946045178
 10
6.683238521767521
 20
-19.891617326017215
 10
6.398513747037539
 20
-19.961600580428566
 10
6.1126298579739995
 20
-20.01802485841263
 10
5.82686796918415
 20
-20.061229750484827
 10
5.54242491820109
 20
-20.091763886091567
 10
5.260386370096587
 20
-20.110352580902006
 10
4.981711189549801
 20
-20.117861890035382
 10
4.707226234326179
 20
-20.115262528721743
 10
4.437629672852373
 20
-20.103596285358705
 10
4.173500425513364
 20
-20.083946539995008
 10
3.915311302429068
 20
-20.0574135500467
 10
3.6634437093839285
 20
-20.02509442004939
 10
3.418202254277528
 20
-19.98806718604107
 10
3.1798280743801524
 20
-19.94737820179086
 10
2.948510132323043
 20
-19.904031961289757
 10
2.724394054425624
 20
-19.858982568368724
 10
2.50758830199055
 20
-19.8131262166424
 10
2.298167590278628
 20
-19.76729423307239
 10
2.0961735287285888
 20
-19.72224644370602
 10
1.9016124825938017
 20
-19.678664829772167
 10
1.7144506850141141
 20
-19.637147651685034
 10
1.5346066933330933
 20
-19.598204422936885
 10
1.3619414145308462
 20
-19.56225230449083
 10
1.1962461442985188
 20
-19.52961464094481
 10
1.037229379230394
 20
-19.500522436312465
 10
0.8845035526244782
 20
-19.475119521868738
 10
0.737573256069233
 20
-19.453471951115475
 10
0.5958268452564007
 20
-19.435581733906233
 10
0.45853346139583895
 20
-19.421404401071623
 10
0.32484729831984016
 20
-19.41086914562139
 10
0.19382032409686117
 20
-19.40389956317142
 10
0.06442363844898465
 20
-19.40043251055951
 10
-0.06442363844898166
 20
-19.400432510559515
 10
-0.19382032409685818
 20
-19.40389956317142
 10
-0.3248472983198363
 20
-19.41086914562139
 10
-0.45853346139583606
 20
-19.421404401071623
 10
-0.5958268452563978
 20
-19.435581733906236
 10
-0.73757325606923
 20
-19.45347195111548
 10
-0.8845035526244706
 20
-19.475119521868738
 10
-1.0372293792303837
 20
-19.500522436312462
 10
-1.196246144298509
 20
-19.52961464094481
 10
-1.361941414530842
 20
-19.56225230449083
 10
-1.5346066933330893
 20
-19.598204422936885
 10
-1.7144506850141101
 20
-19.637147651685034
 10
-1.9016124825937963
 20
-19.678664829772163
 10
-2.096173528728584
 20
-19.722246443706016
 10
-2.2981675902786227
 20
-19.767294233072388
 10
-2.507588301990545
 20
-19.8131262166424
 10
-2.724394054425619
 20
-19.858982568368724
 10
-2.9485101323230363
 20
-19.904031961289753
 10
-3.1798280743801466
 20
-19.94737820179086
 10
-3.418202254277522
 20
-19.98806718604107
 10
-3.663443709383922
 20
-20.02509442004939
 10
-3.9153113024290516
 20
-20.057413550046697
 10
-4.173500425513346
 20
-20.083946539995008
 10
-4.437629672852356
 20
-20.103596285358705
 10
-4.707226234326171
 20
-20.115262528721743
 10
-4.981711189549794
 20
-20.11786189003538
 10
-5.260386370096579
 20
-20.110352580902006
 10
-5.542424918201084
 20
-20.091763886091567
 10
-5.826867969184143
 20
-20.06122975048483
 10
-6.112629857973992
 20
-20.01802485841263
 10
-6.398513747037533
 20
-19.961600580428566
 10
-6.683238521767514
 20
-19.89161732601722
 10
-6.9654762726535155
 20
-19.807969460451776
 10
-7.243897932150833
 20
-19.71079925558747
 10
-7.517223052576571
 20
-19.600497430728833
 10
-7.784268727058263
 20
-19.477689556618056
 10
-8.0439925753169
 20
-19.343209580190194
 10
-8.295525598691821
 20
-19.19806350472474
 10
-8.538192331389075
 20
-19.043387406322005
 10
-8.771517654403421
 20
-18.880404259006117
 10
-8.995221428556189
 20
-18.71038351179806
 10
-9.209203389038368
 20
-18.53460625908048
 10
-9.41352137022754
 20
-18.354337514114327
 10
-9.60836593803564
 20
-18.170805850736155
 10
-9.79403406991632
 20
-17.985189727607413
 10
-9.970903856186297
 20
-17.798609230749342
 10
-10.13941149152567
 20
-17.612121736905372
 10
-10.300031212611819
 20
-17.426720027092923
 10
-10.453258381378797
 20
-17.243331565393323
 10
-10.599595626120534
 20
-17.062817914765297
 10
-10.739541815285998
 20
-16.885973528271865
 10
-10.873583617495717
 20
-16.713523397636816
 10
-11.002189459207557
 20
-16.546119251990923
 10
-11.125805794306235
 20
-16.38433418492951
 10
-11.244855716955398
 20
-16.228655763830425
 10
-11.359740051496606
 20
-16.079477860923916
 10
-11.470841111715025
 20
-15.93709165668393
 10
-11.578529305474135
 20
-15.801676508641645
 10
-11.683172638733572
 20
-15.673291641665823
 10
-11.785148920958278
 20
-15.551869864711298
 10
-11.884860085620812
 20
-15.437214693290848
 10
-11.982747541955918
 20
-15.329002274331902
 10
-12.079306941611481
 20
-15.226789284260052
 10
-12.17510030126708
 20
-15.130027442389402
 10
-12.270763228009407
 20
-15.038084455736445
 10
-12.367005196792915
 20
-14.950270190875637
 10
-12.464601505411467
 20
-14.865865855918077
 10
-12.564376630013282
 20
-14.784153231653917
 10
-12.667180023384942
 20
-14.70444075086464
 10
-12.773856633513017
 20
-14.626083604995571
 10
-12.885215257911586
 20
-14.548495995248288
 10
-13.001998081725556
 20
-14.47115491036926
 10
-13.124854346098102
 20
-14.393596089163127
 10
-13.254320208611096
 20
-14.31540382190717
 10
-13.390805750337
 20
-14.236196789077239
 10
-13.534589024507104
 20
-14.155612206188543
 10
-13.68581622741578
 20
-14.073290240754368
 10
-13.844506590578055
 20
-13.988860152827023
 10
-14.010560431636987
 20
-13.901929044392709
 10
-14.18376888394791
 20
-13.812073603569782
 10
-14.363824053379748
 20
-13.718834861116719
 10
-14.550328637709534
 20
-13.621715755898919
 10
-14.742804327066088
 20
-13.520181218343879
 10
-14.940698550483985
 20
-13.413660497406736
 10
-15.14338933590874
 20
-13.301551544807564
 10
-15.350188218664025
 20
-13.183227400435404
 10
-15.560341286395799
 20
-13.058044668448218
 10
-15.773028610639223
 20
-12.925354309708755
 10
-15.987362508318956
 20
-12.784515075767601
 10
-16.202385314719844
 20
-12.634909940727995
 10
-16.417067631921405
 20
-12.475965812566674
 10
-16.63030831981149
 20
-12.30717658551289
 10
-16.84093776726529
 20
-12.128129198495197
 10
-17.047726133510746
 20
-11.93853178471771
 10
-17.249398174781607
 20
-11.738242273663465
 10
-17.444655860022017
 20
-11.527295044583171
 10
-17.632209164520297
 20
-11.30592260622414
 10
-17.810814237758034
 20
-11.074569015407636
 10
-17.979316730165404
 20
-10.833892059232468
 10
-18.136696724681226
 20
-10.584752224795363
 10
-18.282110816911807
 20
-10.328188096503206
 10
-18.41492674086029
 20
-10.065379770196277
 10
-18.534746686996357
 20
-9.797603712404186
 10
-18.641416988153132
 20
-9.526183758343821
 10
-18.73502379906561
 20
-9.252443315743626
 10
-18.81587629184823
 20
-8.977663266845845
 10
-18.884480306578787
 20
-8.70304875159231
 10
-18.941506091975786
 20
-8.42970635679801
 10
-18.987753734904217
 20
-8.158631638261062
 10
-19.024119282699
 20
-7.890705669898006
 10
-19.051563669759712
 20
-7.626698585395647
 10
-19.071085620297566
 20
-7.367277837899072
 10
-19.08369889171678
 20
-7.113019036107655
 10
-19.090413637622778
 20
-6.864417568998308
 10
-19.09222132024048
 20
-6.621899667494962
 10
-19.090082456265325
 20
-6.385831969610782
 10
-19.08491648547717
 20
-6.156528999598186
 10
-19.077593155611677
 20
-5.934258222167943
 10
-19.06892497828801
 20
-5.719242496523697
 10
-19.059660500764874
 20
-5.511659853977993
 10
-19.050478339596406
 20
-5.31164058734251
 10
-19.041982123977885
 20
-5.119261703168976
 10
-19.03469668852207
 20
-4.934538881885596
 10
-19.029066022286806
 20
-4.757416244616511
 10
-19.025453598589614
 20
-4.587754458567522
 10
-19.02414574291337
 20
-4.425318028081082
 10
-19.025358600586355
 20
-4.269762992100319
 10
-19.029249000993385
 20
-4.120626621849956
 10
-19.035929060703136
 20
-3.977320988378336
 10
-19.045483747848035
 20
-3.8391323250712235
 10
-19.057989931464792
 20
-3.705227826006101
 10
-19.073534815122926
 20
-3.5746708290448077
 10
-19.092231295407135
 20
-3.446444266940075
 10
-19.114227863744667
 20
-3.3194809953624356
 10
-19.13971126165917
 20
-3.1926984001608303
 10
-19.1689011329006
 20
-3.065033859815228
 10
-19.202037169435226
 20
-2.9354774316557823
 10
-19.239360415876156
 20
-2.8030986120064405
 10
-19.28109119509621
 20
-2.6670650608138695
 10
-19.32740638441077
 20
-2.5266525003663194
 10
-19.378418510497514
 20
-2.381246271177528
 10
-19.434158486634345
 20
-2.230335996976617
 10
-19.49456300108001
 20
-2.073505346777021
 10
-19.55946678294801
 20
-1.9104189928933828
 10
-19.628599359830208
 20
-1.7408086523636639
 10
-19.701585537450217
 20
-1.564459706215866
 10
-19.777948667134325
 20
-1.3811994469340698
 10
-19.857115774587356
 20
-1.1908876029275959
 10
-19.93842374443008
 20
-0.9934094801922131
 10
-20.02112593721837
 20
-0.7886718596455995
 10
-20.104398822905715
 20
-0.5766016829923865
 10
-20.187348427286704
 20
-0.3571475256112322
 10
-20.269016599315265
 20
-0.1302838605324026
 10
-20.34838731814365
 20
0.1039818707665604
 10
-20.424393471017577
 20
0.345599382003706
 10
-20.49592474290035
 20
0.5944629415504454
 10
-20.56183745011519
 20
0.8503963041303239
 10
-20.62096729066122
 20
1.113135724685156
 10
-20.672146021470134
 20
1.3823120217689722
 10
-20.71422294110203
 20
1.6574331731811656
 10
-20.746091687370125
 20
1.937869468430799
 10
-20.766722209349524
 20
2.2228436869782575
 10
-20.775196856765636
 20
2.511428950574545
 10
-20.770748452583724
 20
2.8025566365562824
 10
-20.752797186065123
 20
3.09503591420757
 10
-20.720982468397683
 20
3.38758508297492
 10
-20.675185813664335
 20
3.6788731344064773
 10
-20.615541513916593
 20
3.967568187937872
 10
-20.542433327542724
 20
4.252388109043492
 10
-20.456477314881216
 20
4.532148088880667
 10
-20.358492886466284
 20
4.805800417854755
 10
-20.24946561325798
 20
5.072463006709631
 10
-20.13050606643905
 20
5.331435039832064
 10
-20.002808831461824
 20
5.582200022551653
 10
-19.86761503738849
 20
5.824418000369974
 10
-19.726180561364917
 20
6.057909647941117
 10
-19.579750832433533
 20
6.282635214854695
 10
-19.42954211530951
 20
6.498671094942811
 10
-19.27672843086111
 20
6.706186252101314
 10
-19.122432883106942
 20
6.905420084706462
 10
-18.96772205649444
 20
7.096662692296082
 10
-18.813602234854645
 20
7.280238010145902
 10
-18.661016388935742
 20
7.4564899326482825
 10
-18.510841116495826
 20
7.62577134974772
 10
-18.363882956491416
 20
7.7884359459194865
 10
-18.220873718932328
 20
7.944832624022004
 10
-18.08246467381682
 20
8.095302481723353
 10
-17.949219636121583
 20
8.240178352798432
 10
-17.821607182916306
 20
8.379786997605006
 10
-17.699992454496943
 20
8.514454054906018
 10
-17.584629225889348
 20
8.644511819324759
 10
-17.47565317409788
 20
8.77030975604898
 10
-17.373077474543393
 20
8.892227387264466
 10
-17.276791978719057
 20
9.010688784372613
 10
-17.186567178976883
 20
9.126177412525134
 10
-17.102063881572697
 20
9.239249582059031
 10
-17.022848942858783
 20
9.350544394107615
 10
-16.94841659961814
 20
9.460787979511577
 10
-16.87821395912539
 20
9.570790155517338
 10
-16.811668312519444
 20
9.681432416747231
 10
-16.748213343946052
 20
9.793647355543131
 10
-16.687311235082372
 20
9.90839094823141
 10
-16.62846818978849
 20
10.026610331668982
 10
-16.57124193033902
 20
10.149210422405252
 10
-16.515240994581212
 20
10.277022814957045
 10
-16.460116875832856
 20
10.410779841085217
 10
-16.405550923630308
 20
10.55109566174782
 10
-16.351238322161908
 20
10.698455079624289
 10
-16.29687139432312
 20
10.85320967922108
 10
-16.24212406737277
 20
11.01558011310322
 10
-16.186638754149136
 20
11.185662927882687
 10
-16.130016311445388
 20
11.36344023094098
 10
-16.07180924443594
 20
11.54879064675054
 10
-16.01151798503615
 20
11.74150029222665
 10
-15.94858988802509
 20
11.941272821344956
 10
-15.882420538762483
 20
12.147737888110797
 10
-15.812357016426729
 20
12.360457623453227
 10
-15.737702873211
 20
12.57893091124599
 10
-15.657724744456651
 20
12.80259539469929
 10
-15.571660674294918
 20
13.030827270308635
 10
-15.478730405476927
 20
13.262939060029248
 10
-15.378148018364408
 20
13.498175720049296
 10
-15.269137384373483
 20
13.735709666888077
 10
-15.150950887375107
 20
13.97463558613754
 10
-15.022891720195847
 20
14.21396622251294
 10
-14.88433974129837
 20
14.452630688701838
 10
-14.734780354382258
 20
14.689477095888723
 10
-14.573835165162915
 20
14.92328138911253
 10
-14.401292351612437
 20
15.152764039703122
 10
-14.217133910046064
 20
15.376615602446256
 10
-14.02155642971885
 20
15.593531061338979
 10
-13.814982042088785
 20
15.802251467833631
 10
-13.598056862319321
 20
16.00160987164579
 10
-13.371635606630557
 20
16.190577320013507
 10
-13.136752929807267
 20
16.36830412750031
 10
-12.89458398704933
 20
16.534151933894513
 10
-12.646398305456486
 20
16.687713267599495
 10
-12.393511858270848
 20
16.828817145402677
 10
-12.137242101130031
 20
16.957521218641872
 10
-11.87886976172271
 20
17.07409265559964
 10
-11.619609694196544
 20
17.178981003557183
 10
-11.360591518784483
 20
17.27278659420356
 10
-11.102849408539992
 20
17.356227742349365
 10
-10.847319459159992
 20
17.430109264986108
 10
-10.594842628411827
 20
17.495293967600134
 10
-10.346171185150554
 20
17.552677911963674
 10
-10.101976833214005
 20
17.603169618445897
 10
-9.862859036604895
 20
17.647672911989527
 10
-9.629352460865942
 20
17.687072883905298
 10
-9.40193279244589
 20
17.722224371559808
 10
-9.181020471431117
 20
17.753942406745555
 10
-8.966982070036302
 20
17.782994207796133
 10
-8.760129185082388
 20
17.810092457269167
 10
-8.560714813179944
 20
17.835889793045293
 10
-8.368927272913304
 20
17.860974629094315
 10
-8.18488185958477
 20
17.885868597411918
 10
-8.008610591440378
 20
17.911026045550297
 10
-7.8400506483191545
 20
17.936836108176152
 10
-7.67903241338996
 20
17.963627861428723
 10
-7.525268378640485
 20
17.991678926756755
 10
-7.378344503836137
 20
18.021227584571925
 10
-7.237715831373163
 20
18.052487980372153
 10
-7.102708139414799
 20
18.085667395518737
 10
-6.97252705671715
 20
18.120983911054125
 10
-6.846275314819522
 20
18.158682273110273
 10
-6.7229777300433184
 20
18.199045555598186
 10
-6.601612267726308
 20
18.24240045814727
 10
-6.481144422928536
 20
18.289114817776632
 10
-6.360561454944018
 20
18.339587043802055
 10
-6.2389029499161825
 20
18.394228459271837
 10
-6.115284794685701
 20
18.45344063580817
 10
-5.988914767768052
 20
18.517590473942434
 10
-5.8590992949197105
 20
18.58698587812657
 10
-5.725242154347455
 20
18.66185444653157
 10
-5.586836806669413
 20
18.742326817370582
 10
-5.443454461759648
 20
18.82842541734138
 10
-5.294730008636763
 20
18.920058548724807
 10
-5.14034764467004
 20
19.017019157681275
 10
-4.980027595182532
 20
19.118987288572715
 10
-4.81351484497491
 20
19.22553512205239
 10
-4.640570398503546
 20
19.336133557370403
 10
-4.4609652894160305
 20
19.450159464443026
 10
-4.274477380821889
 20
19.566902943156926
 10
-4.080890919896186
 20
19.685574149989694
 10
-3.8799988071265625
 20
19.805309468387094
 10
-3.671607579988077
 20
19.925177007172383
 10
-3.4555451599451352
 20
20.04418161672658
 10
-3.231671436625917
 20
20.161269823727288
 10
-2.999891729207618
 20
20.27533530497428
 10
-2.7601730382218026
 20
20.385225740922277
 10
-2.5125627513482076
 20
20.489752084098665
 10
-2.2572090777136413
 20
20.587701399110852
 10
-1.9943819668467622
 20
20.677854411217915
 10
-1.7244926736091601
 20
20.75900866031284
 10
-1.4481095672515503
 20
20.830007628781356
 10
-1.1659674136788734
 20
20.88977537285664
 10
-0.8789673762889738
 20
20.937355099922094
 10
-0.5881655468398999
 20
20.971948971106304
 10
-0.2947489947871885
 20
20.992955442366632
 10
-6.919873395819134e-15
 20
21.0
  0
CIRCLE
  5
31
330
17
100
AcDbEntity
  8
0
100
AcDbCircle
 10
0.0
 20
0.0
 30
0.0
 40
19.08
  0
CIRCLE
  5
32
330
17
100
AcDbEntity
  8
0
100
AcDbCircle
 10
0.0
 20
0.0
 30
0.0
 40
17.32
  0
POINT
  5
33
330
17
100
AcDbEntity
  8
0
100
AcDbPoint
 10
0.0
 20
0.8
 30
0.0
  0
LWPOLYLINE
  5
34
330
17
100
AcDbEntity
  8
0
100
AcDbPolyline
 90
2
 70
0
 10
0.0
 20
0.0
 10
0.0
 20
0.8
  0
LWPOLYLINE
  5
35
330
17
100
AcDbEntity
  8
0
100
AcDbPolyline
 90
2
 70
0
 10
-6.0
 20
0.0
 10
6.0
 20
0.0
  0
LWPOLYLINE
  5
36
330
17
100
AcDbEntity
  8
0
100
AcDbPolyline
 90
2
 70
0
 10
-3.0
 20
0.8
 10
3.0
 20
0.8
  0
CIRCLE
  5
37
330
17
100
AcDbEntity
  8
0
100
AcDbCircle
 10
0.0
 20
0.8
 30
0.0
 40
16.2
  0
CIRCLE
  5
38
330
17
100
AcDbEntity
  8
0
100
AcDbCircle
 10
0.0
 20
0.0
 30
0.0
 40
25.0
  0
ENDSEC
  0
SECTION
  2
OBJECTS
  0
DICTIONARY
  5
A
330
0
100
AcDbDictionary
281
1
  3
ACAD_COLOR
350
B
  3
ACAD_GROUP
350
C
  3
ACAD_LAYOUT
350
D
  3
ACAD_MATERIAL
350
E
  3
ACAD_MLEADERSTYLE
350
F
  3
ACAD_MLINESTYLE
350
10
  3
ACAD_PLOTSETTINGS
350
11
  3
ACAD_PLOTSTYLENAME
350
12
  3
ACAD_SCALELIST
350
14
  3
ACAD_TABLESTYLE
350
15
  3
ACAD_VISUALSTYLE
350
16
  3
EZDXF_META
350
2D
  0
DICTIONARY
  5
B
330
A
100
AcDbDictionary
281
1
  0
DICTIONARY
  5
C
330
A
100
AcDbDictionary
281
1
  0
DICTIONARY
  5
D
330
A
100
AcDbDictionary
281
1
  3
Model
350
1A
  3
Layout1
350
1E
  0
DICTIONARY
  5
E
330
A
100
AcDbDictionary
281
1
  3
ByBlock
350
1F
  3
ByLayer
350
20
  3
Global
350
21
  0
DICTIONARY
  5
F
330
A
100
AcDbDictionary
281
1
  3
Standard
350
2C
  0
DICTIONARY
  5
10
330
A
100
AcDbDictionary
281
1
  3
Standard
350
22
  0
DICTIONARY
  5
11
330
A
100
AcDbDictionary
281
1
  0
ACDBDICTIONARYWDFLT
  5
12
330
A
100
AcDbDictionary
281
1
  3
Normal
350
13
100
AcDbDictionaryWithDefault
340
13
  0
ACDBPLACEHOLDER
  5
13
330
12
  0
DICTIONARY
  5
14
330
A
100
AcDbDictionary
281
1
  0
DICTIONARY
  5
15
330
A
100
AcDbDictionary
281
1
  0
DICTIONARY
  5
16
330
A
100
AcDbDictionary
281
1
  0
LAYOUT
  5
1A
330
D
100
AcDbPlotSettings
  1

  4
A3
  6

 40
7.5
 41
20.0
 42
7.5
 43
20.0
 44
420.0
 45
297.0
 46
0.0
 47
0.0
 48
0.0
 49
0.0
140
0.0
141
0.0
142
1.0
143
1.0
 70
1024
 72
1
 73
0
 74
5
  7

 75
16
 76
0
 77
2
 78
300
147
1.0
148
0.0
149
0.0
100
AcDbLayout
  1
Model
 70
1
 71
0
 10
0.0
 20
0.0
 11
420.0
 21
297.0
 12
0.0
 22
0.0
 32
0.0
 14
1e+20
 24
1e+20
 34
1e+20
 15
-1e+20
 25
-1e+20
 35
-1e+20
146
0.0
 13
0.0
 23
0.0
 33
0.0
 16
1.0
 26
0.0
 36
0.0
 17
0.0
 27
1.0
 37
0.0
 76
1
330
17
  0
LAYOUT
  5
1E
330
D
100
AcDbPlotSettings
  1

  4
A3
  6

 40
7.5
 41
20.0
 42
7.5
 43
20.0
 44
420.0
 45
297.0
 46
0.0
 47
0.0
 48
0.0
 49
0.0
140
0.0
141
0.0
142
1.0
143
1.0
 70
0
 72
1
 73
0
 74
5
  7

 75
16
 76
0
 77
2
 78
300
147
1.0
148
0.0
149
0.0
100
AcDbLayout
  1
Layout1
 70
1
 71
1
 10
0.0
 20
0.0
 11
420.0
 21
297.0
 12
0.0
 22
0.0
 32
0.0
 14
1e+20
 24
1e+20
 34
1e+20
 15
-1e+20
 25
-1e+20
 35
-1e+20
146
0.0
 13
0.0
 23
0.0
 33
0.0
 16
1.0
 26
0.0
 36
0.0
 17
0.0
 27
1.0
 37
0.0
 76
1
330
1B
  0
MATERIAL
  5
1F
102
{ACAD_REACTORS
330
E
102
}
330
E
100
AcDbMaterial
  1
ByBlock
  2

 70
0
 40
1.0
 71
1
 41
1.0
 91
-1023410177
 42
1.0
 72
1
  3

 73
1
 74
1
 75
1
 44
0.5
 73
0
 45
1.0
 46
1.0
 77
1
  4

 78
1
 79
1
170
1
 48
1.0
171
1
  6

172
1
173
1
174
1
140
1.0
141
1.0
175
1
  7

176
1
177
1
178
1
143
1.0
179
1
  8

270
1
271
1
272
1
145
1.0
146
1.0
273
1
  9

274
1
275
1
276
1
 42
1.0
 72
1
  3

 73
1
 74
1
 75
1
 94
63
  0
MATERIAL
  5
20
102
{ACAD_REACTORS
330
E
102
}
330
E
100
AcDbMaterial
  1
ByLayer
  2

 70
0
 40
1.0
 71
1
 41
1.0
 91
-1023410177
 42
1.0
 72
1
  3

 73
1
 74
1
 75
1
 44
0.5
 73
0
 45
1.0
 46
1.0
 77
1
  4

 78
1
 79
1
170
1
 48
1.0
171
1
  6

172
1
173
1
174
1
140
1.0
141
1.0
175
1
  7

176
1
177
1
178
1
143
1.0
179
1
  8

270
1
271
1
272
1
145
1.0
146
1.0
273
1
  9

274
1
275
1
276
1
 42
1.0
 72
1
  3

 73
1
 74
1
 75
1
 94
63
  0
MATERIAL
  5
21
102
{ACAD_REACTORS
330
E
102
}
330
E
100
AcDbMaterial
  1
Global
  2

 70
0
 40
1.0
 71
1
 41
1.0
 91
-1023410177
 42
1.0
 72
1
  3

 73
1
 74
1
 75
1
 44
0.5
 73
0
 45
1.0
 46
1.0
 77
1
  4

 78
1
 79
1
170
1
 48
1.0
171
1
  6

172
1
173
1
174
1
140
1.0
141
1.0
175
1
  7

176
1
177
1
178
1
143
1.0
179
1
  8

270
1
271
1
272
1
145
1.0
146
1.0
273
1
  9

274
1
275
1
276
1
 42
1.0
 72
1
  3

 73
1
 74
1
 75
1
 94
63
  0
MLINESTYLE
  5
22
102
{ACAD_REACTORS
330
10
102
}
330
10
100
AcDbMlineStyle
  2
Standard
 70
0
  3

 62
256
 51
90.0
 52
90.0
 71
2
 49
0.5
 62
256
  6
BYLAYER
 49
-0.5
 62
256
  6
BYLAYER
  0
MLEADERSTYLE
  5
2C
102
{ACAD_REACTORS
330
F
102
}
330
F
100
AcDbMLeaderStyle
179
2
170
2
171
1
172
0
 90
2
 40
0.0
 41
0.0
173
1
 91
-1056964608
 92
-2
290
1
 42
2.0
291
1
 43
8.0
  3
Standard
 44
4.0
300

342
29
174
1
175
1
176
0
178
1
 93
-1056964608
 45
4.0
292
0
297
0
 46
4.0
 94
-1056964608
 47
1.0
 49
1.0
140
1.0
294
1
141
0.0
177
0
142
1.0
295
0
296
0
143
3.75
271
0
272
9
273
9
  0
DICTIONARY
  5
2D
330
A
100
AcDbDictionary
280
1
281
1
  3
CREATED_BY_EZDXF
350
2E
  3
WRITTEN_BY_EZDXF
350
3B
  0
DICTIONARYVAR
  5
2E
330
2D
100
DictionaryVariables
280
0
  1
1.4.4 @ 2026-08-13T08:21:20.158467+00:00
  0
DICTIONARYVAR
  5
3B
330
2D
100
DictionaryVariables
280
0
  1
1.4.4 @ 2026-08-13T08:21:20.162469+00:00
  0
ENDSEC
  0
EOF
