ISO-10303-21;
HEADER;
FILE_DESCRIPTION(('CATIA V5 STEP','CAx-IF Rec.Pracs.--- Model Styling and Organization---1.4--- 2014-01-23','CAx-IF Rec.Pracs.---User Defined Attributes---1.3---2014-10-09'),'2;1');

FILE_NAME('C:\\Users\\engineer\\Documents\\\X2\041F0440043E0435043A0442\X0\\\LifePo4_50Ah-3.2v-60145.stp','2026-07-30T06:59:06+00:00',('none'),('none'),'CATIA Version 5-6 Release 2019 SP6','CATIA V5 STEP AP214 v1','none');

FILE_SCHEMA(('AUTOMOTIVE_DESIGN { 1 0 10303 214 1 1 1 1 }'));

ENDSEC;
DATA;
#5=PRODUCT('Part1','','',(#2)) ;
#2=PRODUCT_CONTEXT(' ',#1,'mechanical') ;
#1=APPLICATION_CONTEXT('automotive design') ;
#10=PRODUCT_DEFINITION('',' ',#6,#3) ;
#3=PRODUCT_DEFINITION_CONTEXT('part definition',#1,' ') ;
#11=PRODUCT_DEFINITION_SHAPE(' ',' ',#10) ;
#30=SHAPE_ASPECT('','',#11,.F.) ;
#94=SHAPE_ASPECT('','',#11,.F.) ;
#167=SHAPE_ASPECT('','',#11,.F.) ;
#397=SHAPE_ASPECT('','',#11,.F.) ;
#506=SHAPE_ASPECT('','',#11,.F.) ;
#517=SHAPE_ASPECT('','',#11,.F.) ;
#622=SHAPE_ASPECT('','',#11,.F.) ;
#738=SHAPE_ASPECT('','',#11,.F.) ;
#761=SHAPE_ASPECT('','',#11,.F.) ;
#779=SHAPE_ASPECT('','',#11,.F.) ;
#797=SHAPE_ASPECT('','',#11,.F.) ;
#815=SHAPE_ASPECT('','',#11,.F.) ;
#833=SHAPE_ASPECT('','',#11,.F.) ;
#846=SHAPE_ASPECT('','',#11,.F.) ;
#869=SHAPE_ASPECT('','',#11,.F.) ;
#911=SHAPE_ASPECT('','',#11,.F.) ;
#929=SHAPE_ASPECT('','',#11,.F.) ;
#939=MECHANICAL_DESIGN_GEOMETRIC_PRESENTATION_REPRESENTATION(' ',(#29),#16) ;
#19=SHAPE_REPRESENTATION(' ',(#18),#16) ;
#18=AXIS2_PLACEMENT_3D(' ',#17,$,$) ;
#35=AXIS2_PLACEMENT_3D('Cylinder Axis2P3D',#32,#33,#34) ;
#48=AXIS2_PLACEMENT_3D('Circle Axis2P3D',#46,#47,$) ;
#62=AXIS2_PLACEMENT_3D('Circle Axis2P3D',#60,#61,$) ;
#74=AXIS2_PLACEMENT_3D('Circle Axis2P3D',#72,#73,$) ;
#79=AXIS2_PLACEMENT_3D('Circle Axis2P3D',#77,#78,$) ;
#92=AXIS2_PLACEMENT_3D('Plane Axis2P3D',#89,#90,#91) ;
#103=AXIS2_PLACEMENT_3D('Cylinder Axis2P3D',#100,#101,#102) ;
#116=AXIS2_PLACEMENT_3D('Circle Axis2P3D',#114,#115,$) ;
#130=AXIS2_PLACEMENT_3D('Circle Axis2P3D',#128,#129,$) ;
#142=AXIS2_PLACEMENT_3D('Circle Axis2P3D',#140,#141,$) ;
#147=AXIS2_PLACEMENT_3D('Circle Axis2P3D',#145,#146,$) ;
#165=AXIS2_PLACEMENT_3D('Plane Axis2P3D',#162,#163,#164) ;
#281=AXIS2_PLACEMENT_3D('Cylinder Axis2P3D',#278,#279,#280) ;
#294=AXIS2_PLACEMENT_3D('Circle Axis2P3D',#292,#293,$) ;
#308=AXIS2_PLACEMENT_3D('Circle Axis2P3D',#306,#307,$) ;
#320=AXIS2_PLACEMENT_3D('Circle Axis2P3D',#318,#319,$) ;
#325=AXIS2_PLACEMENT_3D('Circle Axis2P3D',#323,#324,$) ;
#338=AXIS2_PLACEMENT_3D('Cylinder Axis2P3D',#335,#336,#337) ;
#351=AXIS2_PLACEMENT_3D('Circle Axis2P3D',#349,#350,$) ;
#365=AXIS2_PLACEMENT_3D('Circle Axis2P3D',#363,#364,$) ;
#377=AXIS2_PLACEMENT_3D('Circle Axis2P3D',#375,#376,$) ;
#382=AXIS2_PLACEMENT_3D('Circle Axis2P3D',#380,#381,$) ;
#395=AXIS2_PLACEMENT_3D('Plane Axis2P3D',#392,#393,#394) ;
#400=AXIS2_PLACEMENT_3D('Circle Axis2P3D',#398,#399,$) ;
#409=AXIS2_PLACEMENT_3D('Circle Axis2P3D',#407,#408,$) ;
#423=AXIS2_PLACEMENT_3D('Circle Axis2P3D',#421,#422,$) ;
#432=AXIS2_PLACEMENT_3D('Circle Axis2P3D',#430,#431,$) ;
#447=AXIS2_PLACEMENT_3D('Cylinder Axis2P3D',#444,#445,#446) ;
#451=AXIS2_PLACEMENT_3D('Circle Axis2P3D',#449,#450,$) ;
#467=AXIS2_PLACEMENT_3D('Circle Axis2P3D',#465,#466,$) ;
#486=AXIS2_PLACEMENT_3D('Circle Axis2P3D',#484,#485,$) ;
#491=AXIS2_PLACEMENT_3D('Circle Axis2P3D',#489,#490,$) ;
#504=AXIS2_PLACEMENT_3D('Plane Axis2P3D',#501,#502,#503) ;
#515=AXIS2_PLACEMENT_3D('Plane Axis2P3D',#512,#513,#514) ;
#524=AXIS2_PLACEMENT_3D('Circle Axis2P3D',#522,#523,$) ;
#533=AXIS2_PLACEMENT_3D('Circle Axis2P3D',#531,#532,$) ;
#542=AXIS2_PLACEMENT_3D('Circle Axis2P3D',#540,#541,$) ;
#551=AXIS2_PLACEMENT_3D('Circle Axis2P3D',#549,#550,$) ;
#562=AXIS2_PLACEMENT_3D('Cylinder Axis2P3D',#559,#560,#561) ;
#591=AXIS2_PLACEMENT_3D('Cylinder Axis2P3D',#588,#589,#590) ;
#620=AXIS2_PLACEMENT_3D('Plane Axis2P3D',#617,#618,#619) ;
#736=AXIS2_PLACEMENT_3D('Plane Axis2P3D',#733,#734,#735) ;
#759=AXIS2_PLACEMENT_3D('Plane Axis2P3D',#756,#757,#758) ;
#777=AXIS2_PLACEMENT_3D('Plane Axis2P3D',#774,#775,#776) ;
#795=AXIS2_PLACEMENT_3D('Plane Axis2P3D',#792,#793,#794) ;
#813=AXIS2_PLACEMENT_3D('Plane Axis2P3D',#810,#811,#812) ;
#831=AXIS2_PLACEMENT_3D('Plane Axis2P3D',#828,#829,#830) ;
#844=AXIS2_PLACEMENT_3D('Plane Axis2P3D',#841,#842,#843) ;
#867=AXIS2_PLACEMENT_3D('Plane Axis2P3D',#864,#865,#866) ;
#909=AXIS2_PLACEMENT_3D('Plane Axis2P3D',#906,#907,#908) ;
#927=AXIS2_PLACEMENT_3D('Plane Axis2P3D',#924,#925,#926) ;
#17=CARTESIAN_POINT(' ',(0.,0.,0.)) ;
#32=CARTESIAN_POINT('Axis2P3D Location',(16.,0.,10.)) ;
#37=CARTESIAN_POINT('Line Origine',(19.,0.,10.)) ;
#41=CARTESIAN_POINT('Vertex',(19.,0.,5.)) ;
#43=CARTESIAN_POINT('Vertex',(19.,0.,15.)) ;
#46=CARTESIAN_POINT('Axis2P3D Location',(16.,0.,5.)) ;
#50=CARTESIAN_POINT('Vertex',(13.,3.67394039744E-16,5.)) ;
#53=CARTESIAN_POINT('Line Origine',(13.,3.67394039744E-16,10.)) ;
#57=CARTESIAN_POINT('Vertex',(13.,3.67394039744E-16,15.)) ;
#60=CARTESIAN_POINT('Axis2P3D Location',(16.,0.,15.)) ;
#72=CARTESIAN_POINT('Axis2P3D Location',(16.,0.,5.)) ;
#77=CARTESIAN_POINT('Axis2P3D Location',(16.,0.,15.)) ;
#89=CARTESIAN_POINT('Axis2P3D Location',(0.,0.,15.)) ;
#100=CARTESIAN_POINT('Axis2P3D Location',(-16.,0.,10.)) ;
#105=CARTESIAN_POINT('Line Origine',(-19.,3.67394039744E-16,10.)) ;
#109=CARTESIAN_POINT('Vertex',(-19.,3.67394039744E-16,5.)) ;
#111=CARTESIAN_POINT('Vertex',(-19.,3.67394039744E-16,15.)) ;
#114=CARTESIAN_POINT('Axis2P3D Location',(-16.,0.,5.)) ;
#118=CARTESIAN_POINT('Vertex',(-13.,-7.34788079488E-16,5.)) ;
#121=CARTESIAN_POINT('Line Origine',(-13.,-7.34788079488E-16,10.)) ;
#125=CARTESIAN_POINT('Vertex',(-13.,-7.34788079488E-16,15.)) ;
#128=CARTESIAN_POINT('Axis2P3D Location',(-16.,0.,15.)) ;
#140=CARTESIAN_POINT('Axis2P3D Location',(-16.,0.,5.)) ;
#145=CARTESIAN_POINT('Axis2P3D Location',(-16.,0.,15.)) ;
#162=CARTESIAN_POINT('Axis2P3D Location',(0.,0.,5.)) ;
#168=CARTESIAN_POINT('Line Origine',(-20.3301270189,-2.5,5.)) ;
#172=CARTESIAN_POINT('Vertex',(-21.7735026919,2.22044604925E-15,5.)) ;
#174=CARTESIAN_POINT('Vertex',(-18.8867513459,-5.,5.)) ;
#177=CARTESIAN_POINT('Line Origine',(-16.,-5.,5.)) ;
#181=CARTESIAN_POINT('Vertex',(-13.1132486541,-5.,5.)) ;
#184=CARTESIAN_POINT('Line Origine',(-11.6698729811,-2.5,5.)) ;
#188=CARTESIAN_POINT('Vertex',(-10.2264973081,8.881784197E-16,5.)) ;
#191=CARTESIAN_POINT('Line Origine',(-11.6698729811,2.5,5.)) ;
#195=CARTESIAN_POINT('Vertex',(-13.1132486541,5.,5.)) ;
#198=CARTESIAN_POINT('Line Origine',(-16.,5.,5.)) ;
#202=CARTESIAN_POINT('Vertex',(-18.8867513459,5.,5.)) ;
#205=CARTESIAN_POINT('Line Origine',(-20.3301270189,2.5,5.)) ;
#223=CARTESIAN_POINT('Line Origine',(20.3301270189,2.5,5.)) ;
#227=CARTESIAN_POINT('Vertex',(21.7735026919,1.7763568394E-15,5.)) ;
#229=CARTESIAN_POINT('Vertex',(18.8867513459,5.,5.)) ;
#232=CARTESIAN_POINT('Line Origine',(16.,5.,5.)) ;
#236=CARTESIAN_POINT('Vertex',(13.1132486541,5.,5.)) ;
#239=CARTESIAN_POINT('Line Origine',(11.6698729811,2.5,5.)) ;
#243=CARTESIAN_POINT('Vertex',(10.2264973081,1.7763568394E-15,5.)) ;
#246=CARTESIAN_POINT('Line Origine',(11.6698729811,-2.5,5.)) ;
#250=CARTESIAN_POINT('Vertex',(13.1132486541,-5.,5.)) ;
#253=CARTESIAN_POINT('Line Origine',(16.,-5.,5.)) ;
#257=CARTESIAN_POINT('Vertex',(18.8867513459,-5.,5.)) ;
#260=CARTESIAN_POINT('Line Origine',(20.3301270189,-2.5,5.)) ;
#278=CARTESIAN_POINT('Axis2P3D Location',(16.,0.,2.5)) ;
#283=CARTESIAN_POINT('Line Origine',(24.3,0.,2.5)) ;
#287=CARTESIAN_POINT('Vertex',(24.3,0.,2.)) ;
#289=CARTESIAN_POINT('Vertex',(24.3,0.,3.)) ;
#292=CARTESIAN_POINT('Axis2P3D Location',(16.,0.,2.)) ;
#296=CARTESIAN_POINT('Vertex',(7.7,1.01645684329E-15,2.)) ;
#299=CARTESIAN_POINT('Line Origine',(7.7,1.01645684329E-15,2.5)) ;
#303=CARTESIAN_POINT('Vertex',(7.7,1.01645684329E-15,3.)) ;
#306=CARTESIAN_POINT('Axis2P3D Location',(16.,0.,3.)) ;
#318=CARTESIAN_POINT('Axis2P3D Location',(16.,0.,2.)) ;
#323=CARTESIAN_POINT('Axis2P3D Location',(16.,0.,3.)) ;
#335=CARTESIAN_POINT('Axis2P3D Location',(-16.,0.,2.5)) ;
#340=CARTESIAN_POINT('Line Origine',(-24.3,1.01645684329E-15,2.5)) ;
#344=CARTESIAN_POINT('Vertex',(-24.3,1.01645684329E-15,2.)) ;
#346=CARTESIAN_POINT('Vertex',(-24.3,1.01645684329E-15,3.)) ;
#349=CARTESIAN_POINT('Axis2P3D Location',(-16.,0.,2.)) ;
#353=CARTESIAN_POINT('Vertex',(-7.7,-2.03291368658E-15,2.)) ;
#356=CARTESIAN_POINT('Line Origine',(-7.7,-2.03291368658E-15,2.5)) ;
#360=CARTESIAN_POINT('Vertex',(-7.7,-2.03291368658E-15,3.)) ;
#363=CARTESIAN_POINT('Axis2P3D Location',(-16.,0.,3.)) ;
#375=CARTESIAN_POINT('Axis2P3D Location',(-16.,0.,2.)) ;
#380=CARTESIAN_POINT('Axis2P3D Location',(-16.,0.,3.)) ;
#392=CARTESIAN_POINT('Axis2P3D Location',(0.,0.,2.)) ;
#398=CARTESIAN_POINT('Axis2P3D Location',(-16.,0.,2.)) ;
#402=CARTESIAN_POINT('Vertex',(-24.9,1.08993565124E-15,2.)) ;
#404=CARTESIAN_POINT('Vertex',(-7.1,-2.17987130248E-15,2.)) ;
#407=CARTESIAN_POINT('Axis2P3D Location',(-16.,0.,2.)) ;
#421=CARTESIAN_POINT('Axis2P3D Location',(16.,0.,2.)) ;
#425=CARTESIAN_POINT('Vertex',(24.9,0.,2.)) ;
#427=CARTESIAN_POINT('Vertex',(7.1,1.08993565124E-15,2.)) ;
#430=CARTESIAN_POINT('Axis2P3D Location',(16.,0.,2.)) ;
#444=CARTESIAN_POINT('Axis2P3D Location',(0.,0.,-72.5)) ;
#449=CARTESIAN_POINT('Axis2P3D Location',(0.,0.,-145.)) ;
#453=CARTESIAN_POINT('Vertex',(30.1,0.,-145.)) ;
#455=CARTESIAN_POINT('Vertex',(-30.1,3.68618686543E-15,-145.)) ;
#458=CARTESIAN_POINT('Line Origine',(-30.1,3.68618686543E-15,-72.5)) ;
#462=CARTESIAN_POINT('Vertex',(-30.1,3.68618686543E-15,0.)) ;
#465=CARTESIAN_POINT('Axis2P3D Location',(0.,0.,0.)) ;
#469=CARTESIAN_POINT('Vertex',(30.1,0.,0.)) ;
#472=CARTESIAN_POINT('Line Origine',(30.1,0.,-72.5)) ;
#484=CARTESIAN_POINT('Axis2P3D Location',(0.,0.,-145.)) ;
#489=CARTESIAN_POINT('Axis2P3D Location',(0.,0.,0.)) ;
#501=CARTESIAN_POINT('Axis2P3D Location',(0.,0.,-145.)) ;
#512=CARTESIAN_POINT('Axis2P3D Location',(0.,0.,0.)) ;
#522=CARTESIAN_POINT('Axis2P3D Location',(16.,0.,0.)) ;
#526=CARTESIAN_POINT('Vertex',(24.9,0.,0.)) ;
#528=CARTESIAN_POINT('Vertex',(7.1,1.08993565124E-15,0.)) ;
#531=CARTESIAN_POINT('Axis2P3D Location',(16.,0.,0.)) ;
#540=CARTESIAN_POINT('Axis2P3D Location',(-16.,0.,0.)) ;
#544=CARTESIAN_POINT('Vertex',(-24.9,1.08993565124E-15,0.)) ;
#546=CARTESIAN_POINT('Vertex',(-7.1,-2.17987130248E-15,0.)) ;
#549=CARTESIAN_POINT('Axis2P3D Location',(-16.,0.,0.)) ;
#559=CARTESIAN_POINT('Axis2P3D Location',(-16.,0.,1.)) ;
#564=CARTESIAN_POINT('Line Origine',(-7.1,-2.17987130248E-15,1.)) ;
#569=CARTESIAN_POINT('Line Origine',(-24.9,3.26980695372E-15,1.)) ;
#588=CARTESIAN_POINT('Axis2P3D Location',(16.,0.,1.)) ;
#593=CARTESIAN_POINT('Line Origine',(7.1,1.08993565124E-15,1.)) ;
#598=CARTESIAN_POINT('Line Origine',(24.9,-2.17987130248E-15,1.)) ;
#617=CARTESIAN_POINT('Axis2P3D Location',(0.,0.,3.)) ;
#627=CARTESIAN_POINT('Line Origine',(16.,-5.,3.)) ;
#631=CARTESIAN_POINT('Vertex',(13.1132486541,-5.,3.)) ;
#633=CARTESIAN_POINT('Vertex',(18.8867513459,-5.,3.)) ;
#636=CARTESIAN_POINT('Line Origine',(11.6698729811,-2.5,3.)) ;
#640=CARTESIAN_POINT('Vertex',(10.2264973081,1.33226762955E-15,3.)) ;
#643=CARTESIAN_POINT('Line Origine',(11.6698729811,2.5,3.)) ;
#647=CARTESIAN_POINT('Vertex',(13.1132486541,5.,3.)) ;
#650=CARTESIAN_POINT('Line Origine',(16.,5.,3.)) ;
#654=CARTESIAN_POINT('Vertex',(18.8867513459,5.,3.)) ;
#657=CARTESIAN_POINT('Line Origine',(20.3301270189,2.5,3.)) ;
#661=CARTESIAN_POINT('Vertex',(21.7735026919,1.7763568394E-15,3.)) ;
#664=CARTESIAN_POINT('Line Origine',(20.3301270189,-2.5,3.)) ;
#682=CARTESIAN_POINT('Line Origine',(-16.,5.,3.)) ;
#686=CARTESIAN_POINT('Vertex',(-13.1132486541,5.,3.)) ;
#688=CARTESIAN_POINT('Vertex',(-18.8867513459,5.,3.)) ;
#691=CARTESIAN_POINT('Line Origine',(-11.6698729811,2.5,3.)) ;
#695=CARTESIAN_POINT('Vertex',(-10.2264973081,1.7763568394E-15,3.)) ;
#698=CARTESIAN_POINT('Line Origine',(-11.6698729811,-2.5,3.)) ;
#702=CARTESIAN_POINT('Vertex',(-13.1132486541,-5.,3.)) ;
#705=CARTESIAN_POINT('Line Origine',(-16.,-5.,3.)) ;
#709=CARTESIAN_POINT('Vertex',(-18.8867513459,-5.,3.)) ;
#712=CARTESIAN_POINT('Line Origine',(-20.3301270189,-2.5,3.)) ;
#716=CARTESIAN_POINT('Vertex',(-21.7735026919,2.22044604925E-15,3.)) ;
#719=CARTESIAN_POINT('Line Origine',(-20.3301270189,2.5,3.)) ;
#733=CARTESIAN_POINT('Axis2P3D Location',(18.8867513459,5.,3.)) ;
#739=CARTESIAN_POINT('Line Origine',(-13.1132486541,5.,4.)) ;
#744=CARTESIAN_POINT('Line Origine',(-18.8867513459,5.,4.)) ;
#756=CARTESIAN_POINT('Axis2P3D Location',(-13.1132486541,5.,3.)) ;
#762=CARTESIAN_POINT('Line Origine',(-10.2264973081,1.7763568394E-15,4.)) ;
#774=CARTESIAN_POINT('Axis2P3D Location',(-10.2264973081,8.881784197E-16,3.)) ;
#780=CARTESIAN_POINT('Line Origine',(-13.1132486541,-5.,4.)) ;
#792=CARTESIAN_POINT('Axis2P3D Location',(-21.7735026919,4.4408920985E-16,3.)) ;
#798=CARTESIAN_POINT('Line Origine',(-21.7735026919,4.4408920985E-16,4.)) ;
#810=CARTESIAN_POINT('Axis2P3D Location',(13.1132486541,-5.,3.)) ;
#816=CARTESIAN_POINT('Line Origine',(-18.8867513459,-5.,4.)) ;
#828=CARTESIAN_POINT('Axis2P3D Location',(-18.8867513459,-5.,3.)) ;
#841=CARTESIAN_POINT('Axis2P3D Location',(10.2264973081,1.33226762955E-15,3.)) ;
#847=CARTESIAN_POINT('Line Origine',(10.2264973081,1.33226762955E-15,4.)) ;
#852=CARTESIAN_POINT('Line Origine',(13.1132486541,-5.,4.)) ;
#864=CARTESIAN_POINT('Axis2P3D Location',(13.1132486541,5.,3.)) ;
#870=CARTESIAN_POINT('Line Origine',(13.1132486541,5.,4.)) ;
#882=CARTESIAN_POINT('Line Origine',(18.8867513459,-5.,4.)) ;
#894=CARTESIAN_POINT('Line Origine',(18.8867513459,5.,4.)) ;
#906=CARTESIAN_POINT('Axis2P3D Location',(18.8867513459,-5.,3.)) ;
#912=CARTESIAN_POINT('Line Origine',(21.7735026919,2.6645352591E-15,4.)) ;
#924=CARTESIAN_POINT('Axis2P3D Location',(21.7735026919,1.7763568394E-15,3.)) ;
#33=DIRECTION('Axis2P3D Direction',(0.,0.,1.)) ;
#34=DIRECTION('Axis2P3D XDirection',(1.,0.,0.)) ;
#38=DIRECTION('Vector Direction',(0.,0.,1.)) ;
#47=DIRECTION('Axis2P3D Direction',(0.,0.,1.)) ;
#54=DIRECTION('Vector Direction',(0.,0.,1.)) ;
#61=DIRECTION('Axis2P3D Direction',(0.,0.,1.)) ;
#73=DIRECTION('Axis2P3D Direction',(0.,0.,1.)) ;
#78=DIRECTION('Axis2P3D Direction',(0.,0.,1.)) ;
#90=DIRECTION('Axis2P3D Direction',(0.,0.,1.)) ;
#91=DIRECTION('Axis2P3D XDirection',(1.,0.,0.)) ;
#101=DIRECTION('Axis2P3D Direction',(0.,0.,1.)) ;
#102=DIRECTION('Axis2P3D XDirection',(-1.,1.22464679915E-16,0.)) ;
#106=DIRECTION('Vector Direction',(0.,0.,1.)) ;
#115=DIRECTION('Axis2P3D Direction',(0.,0.,1.)) ;
#122=DIRECTION('Vector Direction',(0.,0.,1.)) ;
#129=DIRECTION('Axis2P3D Direction',(0.,0.,1.)) ;
#141=DIRECTION('Axis2P3D Direction',(0.,0.,1.)) ;
#146=DIRECTION('Axis2P3D Direction',(0.,0.,1.)) ;
#163=DIRECTION('Axis2P3D Direction',(0.,0.,1.)) ;
#164=DIRECTION('Axis2P3D XDirection',(1.,0.,0.)) ;
#169=DIRECTION('Vector Direction',(-0.5,0.866025403784,0.)) ;
#178=DIRECTION('Vector Direction',(-1.,-6.15348059643E-16,0.)) ;
#185=DIRECTION('Vector Direction',(-0.5,-0.866025403784,0.)) ;
#192=DIRECTION('Vector Direction',(0.5,-0.866025403784,0.)) ;
#199=DIRECTION('Vector Direction',(1.,0.,0.)) ;
#206=DIRECTION('Vector Direction',(0.5,0.866025403784,0.)) ;
#224=DIRECTION('Vector Direction',(-0.5,0.866025403784,0.)) ;
#233=DIRECTION('Vector Direction',(-1.,3.07674029821E-16,0.)) ;
#240=DIRECTION('Vector Direction',(-0.5,-0.866025403784,0.)) ;
#247=DIRECTION('Vector Direction',(0.5,-0.866025403784,0.)) ;
#254=DIRECTION('Vector Direction',(1.,0.,0.)) ;
#261=DIRECTION('Vector Direction',(0.5,0.866025403784,0.)) ;
#279=DIRECTION('Axis2P3D Direction',(0.,0.,1.)) ;
#280=DIRECTION('Axis2P3D XDirection',(1.,0.,0.)) ;
#284=DIRECTION('Vector Direction',(0.,0.,1.)) ;
#293=DIRECTION('Axis2P3D Direction',(0.,0.,1.)) ;
#300=DIRECTION('Vector Direction',(0.,0.,1.)) ;
#307=DIRECTION('Axis2P3D Direction',(0.,0.,1.)) ;
#319=DIRECTION('Axis2P3D Direction',(0.,0.,1.)) ;
#324=DIRECTION('Axis2P3D Direction',(0.,0.,1.)) ;
#336=DIRECTION('Axis2P3D Direction',(0.,0.,1.)) ;
#337=DIRECTION('Axis2P3D XDirection',(-1.,1.22464679915E-16,0.)) ;
#341=DIRECTION('Vector Direction',(0.,0.,1.)) ;
#350=DIRECTION('Axis2P3D Direction',(0.,0.,1.)) ;
#357=DIRECTION('Vector Direction',(0.,0.,1.)) ;
#364=DIRECTION('Axis2P3D Direction',(0.,0.,1.)) ;
#376=DIRECTION('Axis2P3D Direction',(0.,0.,1.)) ;
#381=DIRECTION('Axis2P3D Direction',(0.,0.,1.)) ;
#393=DIRECTION('Axis2P3D Direction',(0.,0.,1.)) ;
#394=DIRECTION('Axis2P3D XDirection',(1.,0.,0.)) ;
#399=DIRECTION('Axis2P3D Direction',(0.,0.,1.)) ;
#408=DIRECTION('Axis2P3D Direction',(0.,0.,1.)) ;
#422=DIRECTION('Axis2P3D Direction',(0.,0.,1.)) ;
#431=DIRECTION('Axis2P3D Direction',(0.,0.,1.)) ;
#445=DIRECTION('Axis2P3D Direction',(0.,0.,1.)) ;
#446=DIRECTION('Axis2P3D XDirection',(1.,0.,0.)) ;
#450=DIRECTION('Axis2P3D Direction',(0.,0.,1.)) ;
#459=DIRECTION('Vector Direction',(0.,0.,1.)) ;
#466=DIRECTION('Axis2P3D Direction',(0.,0.,1.)) ;
#473=DIRECTION('Vector Direction',(0.,0.,1.)) ;
#485=DIRECTION('Axis2P3D Direction',(0.,0.,1.)) ;
#490=DIRECTION('Axis2P3D Direction',(0.,0.,1.)) ;
#502=DIRECTION('Axis2P3D Direction',(0.,0.,1.)) ;
#503=DIRECTION('Axis2P3D XDirection',(1.,0.,0.)) ;
#513=DIRECTION('Axis2P3D Direction',(0.,0.,1.)) ;
#514=DIRECTION('Axis2P3D XDirection',(1.,0.,0.)) ;
#523=DIRECTION('Axis2P3D Direction',(0.,0.,1.)) ;
#532=DIRECTION('Axis2P3D Direction',(0.,0.,1.)) ;
#541=DIRECTION('Axis2P3D Direction',(0.,0.,1.)) ;
#550=DIRECTION('Axis2P3D Direction',(0.,0.,1.)) ;
#560=DIRECTION('Axis2P3D Direction',(0.,0.,1.)) ;
#561=DIRECTION('Axis2P3D XDirection',(-1.,1.22464679915E-16,0.)) ;
#565=DIRECTION('Vector Direction',(0.,0.,1.)) ;
#570=DIRECTION('Vector Direction',(0.,0.,1.)) ;
#589=DIRECTION('Axis2P3D Direction',(0.,0.,1.)) ;
#590=DIRECTION('Axis2P3D XDirection',(1.,0.,0.)) ;
#594=DIRECTION('Vector Direction',(0.,0.,1.)) ;
#599=DIRECTION('Vector Direction',(0.,0.,1.)) ;
#618=DIRECTION('Axis2P3D Direction',(0.,0.,1.)) ;
#619=DIRECTION('Axis2P3D XDirection',(1.,0.,0.)) ;
#628=DIRECTION('Vector Direction',(1.,0.,0.)) ;
#637=DIRECTION('Vector Direction',(0.5,-0.866025403784,0.)) ;
#644=DIRECTION('Vector Direction',(-0.5,-0.866025403784,0.)) ;
#651=DIRECTION('Vector Direction',(-1.,3.07674029821E-16,0.)) ;
#658=DIRECTION('Vector Direction',(-0.5,0.866025403784,0.)) ;
#665=DIRECTION('Vector Direction',(0.5,0.866025403784,0.)) ;
#683=DIRECTION('Vector Direction',(1.,0.,0.)) ;
#692=DIRECTION('Vector Direction',(0.5,-0.866025403784,0.)) ;
#699=DIRECTION('Vector Direction',(-0.5,-0.866025403784,0.)) ;
#706=DIRECTION('Vector Direction',(-1.,-6.15348059643E-16,0.)) ;
#713=DIRECTION('Vector Direction',(-0.5,0.866025403784,0.)) ;
#720=DIRECTION('Vector Direction',(0.5,0.866025403784,0.)) ;
#734=DIRECTION('Axis2P3D Direction',(3.07674029821E-16,1.,-0.)) ;
#735=DIRECTION('Axis2P3D XDirection',(-1.,3.07674029821E-16,0.)) ;
#740=DIRECTION('Vector Direction',(0.,0.,1.)) ;
#745=DIRECTION('Vector Direction',(0.,0.,1.)) ;
#757=DIRECTION('Axis2P3D Direction',(-0.866025403784,-0.5,0.)) ;
#758=DIRECTION('Axis2P3D XDirection',(0.5,-0.866025403784,0.)) ;
#763=DIRECTION('Vector Direction',(0.,0.,1.)) ;
#775=DIRECTION('Axis2P3D Direction',(-0.866025403784,0.5,0.)) ;
#776=DIRECTION('Axis2P3D XDirection',(-0.5,-0.866025403784,0.)) ;
#781=DIRECTION('Vector Direction',(0.,0.,1.)) ;
#793=DIRECTION('Axis2P3D Direction',(0.866025403784,-0.5,0.)) ;
#794=DIRECTION('Axis2P3D XDirection',(0.5,0.866025403784,0.)) ;
#799=DIRECTION('Vector Direction',(0.,0.,1.)) ;
#811=DIRECTION('Axis2P3D Direction',(0.,-1.,0.)) ;
#812=DIRECTION('Axis2P3D XDirection',(1.,0.,0.)) ;
#817=DIRECTION('Vector Direction',(0.,0.,1.)) ;
#829=DIRECTION('Axis2P3D Direction',(0.866025403784,0.5,-0.)) ;
#830=DIRECTION('Axis2P3D XDirection',(-0.5,0.866025403784,0.)) ;
#842=DIRECTION('Axis2P3D Direction',(-0.866025403784,-0.5,0.)) ;
#843=DIRECTION('Axis2P3D XDirection',(0.5,-0.866025403784,0.)) ;
#848=DIRECTION('Vector Direction',(0.,0.,1.)) ;
#853=DIRECTION('Vector Direction',(0.,0.,1.)) ;
#865=DIRECTION('Axis2P3D Direction',(-0.866025403784,0.5,0.)) ;
#866=DIRECTION('Axis2P3D XDirection',(-0.5,-0.866025403784,0.)) ;
#871=DIRECTION('Vector Direction',(0.,0.,1.)) ;
#883=DIRECTION('Vector Direction',(0.,0.,1.)) ;
#895=DIRECTION('Vector Direction',(0.,0.,1.)) ;
#907=DIRECTION('Axis2P3D Direction',(0.866025403784,-0.5,0.)) ;
#908=DIRECTION('Axis2P3D XDirection',(0.5,0.866025403784,0.)) ;
#913=DIRECTION('Vector Direction',(0.,0.,1.)) ;
#925=DIRECTION('Axis2P3D Direction',(0.866025403784,0.5,-0.)) ;
#926=DIRECTION('Axis2P3D XDirection',(-0.5,0.866025403784,0.)) ;
#8=PRODUCT_RELATED_PRODUCT_CATEGORY('part',$,(#5)) ;
#7=PRODUCT_CATEGORY('part','specification') ;
#29=STYLED_ITEM(' ',(#28),#21) ;
#28=PRESENTATION_STYLE_ASSIGNMENT((#27)) ;
#27=SURFACE_STYLE_USAGE(.BOTH.,#26) ;
#26=SURFACE_SIDE_STYLE(' ',(#25)) ;
#25=SURFACE_STYLE_FILL_AREA(#24) ;
#24=FILL_AREA_STYLE(' ',(#23)) ;
#23=FILL_AREA_STYLE_COLOUR(' ',#22) ;
#39=VECTOR('Line Direction',#38,1.) ;
#55=VECTOR('Line Direction',#54,1.) ;
#107=VECTOR('Line Direction',#106,1.) ;
#123=VECTOR('Line Direction',#122,1.) ;
#170=VECTOR('Line Direction',#169,1.) ;
#179=VECTOR('Line Direction',#178,1.) ;
#186=VECTOR('Line Direction',#185,1.) ;
#193=VECTOR('Line Direction',#192,1.) ;
#200=VECTOR('Line Direction',#199,1.) ;
#207=VECTOR('Line Direction',#206,1.) ;
#225=VECTOR('Line Direction',#224,1.) ;
#234=VECTOR('Line Direction',#233,1.) ;
#241=VECTOR('Line Direction',#240,1.) ;
#248=VECTOR('Line Direction',#247,1.) ;
#255=VECTOR('Line Direction',#254,1.) ;
#262=VECTOR('Line Direction',#261,1.) ;
#285=VECTOR('Line Direction',#284,1.) ;
#301=VECTOR('Line Direction',#300,1.) ;
#342=VECTOR('Line Direction',#341,1.) ;
#358=VECTOR('Line Direction',#357,1.) ;
#460=VECTOR('Line Direction',#459,1.) ;
#474=VECTOR('Line Direction',#473,1.) ;
#566=VECTOR('Line Direction',#565,1.) ;
#571=VECTOR('Line Direction',#570,1.) ;
#595=VECTOR('Line Direction',#594,1.) ;
#600=VECTOR('Line Direction',#599,1.) ;
#629=VECTOR('Line Direction',#628,1.) ;
#638=VECTOR('Line Direction',#637,1.) ;
#645=VECTOR('Line Direction',#644,1.) ;
#652=VECTOR('Line Direction',#651,1.) ;
#659=VECTOR('Line Direction',#658,1.) ;
#666=VECTOR('Line Direction',#665,1.) ;
#684=VECTOR('Line Direction',#683,1.) ;
#693=VECTOR('Line Direction',#692,1.) ;
#700=VECTOR('Line Direction',#699,1.) ;
#707=VECTOR('Line Direction',#706,1.) ;
#714=VECTOR('Line Direction',#713,1.) ;
#721=VECTOR('Line Direction',#720,1.) ;
#741=VECTOR('Line Direction',#740,1.) ;
#746=VECTOR('Line Direction',#745,1.) ;
#764=VECTOR('Line Direction',#763,1.) ;
#782=VECTOR('Line Direction',#781,1.) ;
#800=VECTOR('Line Direction',#799,1.) ;
#818=VECTOR('Line Direction',#817,1.) ;
#849=VECTOR('Line Direction',#848,1.) ;
#854=VECTOR('Line Direction',#853,1.) ;
#872=VECTOR('Line Direction',#871,1.) ;
#884=VECTOR('Line Direction',#883,1.) ;
#896=VECTOR('Line Direction',#895,1.) ;
#914=VECTOR('Line Direction',#913,1.) ;
#15=UNCERTAINTY_MEASURE_WITH_UNIT(LENGTH_MEASURE(0.005),#12,'distance_accuracy_value','CONFUSED CURVE UNCERTAINTY') ;
#938=SHAPE_REPRESENTATION_RELATIONSHIP(' ',' ',#19,#937) ;
#66=ORIENTED_EDGE('',*,*,#45,.F.) ;
#67=ORIENTED_EDGE('',*,*,#52,.T.) ;
#68=ORIENTED_EDGE('',*,*,#59,.T.) ;
#69=ORIENTED_EDGE('',*,*,#64,.F.) ;
#83=ORIENTED_EDGE('',*,*,#59,.F.) ;
#84=ORIENTED_EDGE('',*,*,#76,.T.) ;
#85=ORIENTED_EDGE('',*,*,#45,.T.) ;
#86=ORIENTED_EDGE('',*,*,#81,.F.) ;
#96=ORIENTED_EDGE('',*,*,#64,.T.) ;
#97=ORIENTED_EDGE('',*,*,#81,.T.) ;
#134=ORIENTED_EDGE('',*,*,#113,.F.) ;
#135=ORIENTED_EDGE('',*,*,#120,.T.) ;
#136=ORIENTED_EDGE('',*,*,#127,.T.) ;
#137=ORIENTED_EDGE('',*,*,#132,.F.) ;
#151=ORIENTED_EDGE('',*,*,#127,.F.) ;
#152=ORIENTED_EDGE('',*,*,#144,.T.) ;
#153=ORIENTED_EDGE('',*,*,#113,.T.) ;
#154=ORIENTED_EDGE('',*,*,#149,.F.) ;
#158=ORIENTED_EDGE('',*,*,#132,.T.) ;
#159=ORIENTED_EDGE('',*,*,#149,.T.) ;
#211=ORIENTED_EDGE('',*,*,#176,.T.) ;
#212=ORIENTED_EDGE('',*,*,#183,.T.) ;
#213=ORIENTED_EDGE('',*,*,#190,.T.) ;
#214=ORIENTED_EDGE('',*,*,#197,.T.) ;
#215=ORIENTED_EDGE('',*,*,#204,.T.) ;
#216=ORIENTED_EDGE('',*,*,#209,.T.) ;
#219=ORIENTED_EDGE('',*,*,#120,.F.) ;
#220=ORIENTED_EDGE('',*,*,#144,.F.) ;
#266=ORIENTED_EDGE('',*,*,#231,.T.) ;
#267=ORIENTED_EDGE('',*,*,#238,.T.) ;
#268=ORIENTED_EDGE('',*,*,#245,.T.) ;
#269=ORIENTED_EDGE('',*,*,#252,.T.) ;
#270=ORIENTED_EDGE('',*,*,#259,.T.) ;
#271=ORIENTED_EDGE('',*,*,#264,.T.) ;
#274=ORIENTED_EDGE('',*,*,#52,.F.) ;
#275=ORIENTED_EDGE('',*,*,#76,.F.) ;
#312=ORIENTED_EDGE('',*,*,#291,.F.) ;
#313=ORIENTED_EDGE('',*,*,#298,.T.) ;
#314=ORIENTED_EDGE('',*,*,#305,.T.) ;
#315=ORIENTED_EDGE('',*,*,#310,.F.) ;
#329=ORIENTED_EDGE('',*,*,#305,.F.) ;
#330=ORIENTED_EDGE('',*,*,#322,.T.) ;
#331=ORIENTED_EDGE('',*,*,#291,.T.) ;
#332=ORIENTED_EDGE('',*,*,#327,.F.) ;
#369=ORIENTED_EDGE('',*,*,#348,.F.) ;
#370=ORIENTED_EDGE('',*,*,#355,.T.) ;
#371=ORIENTED_EDGE('',*,*,#362,.T.) ;
#372=ORIENTED_EDGE('',*,*,#367,.F.) ;
#386=ORIENTED_EDGE('',*,*,#362,.F.) ;
#387=ORIENTED_EDGE('',*,*,#379,.T.) ;
#388=ORIENTED_EDGE('',*,*,#348,.T.) ;
#389=ORIENTED_EDGE('',*,*,#384,.F.) ;
#413=ORIENTED_EDGE('',*,*,#406,.T.) ;
#414=ORIENTED_EDGE('',*,*,#411,.T.) ;
#417=ORIENTED_EDGE('',*,*,#355,.F.) ;
#418=ORIENTED_EDGE('',*,*,#379,.F.) ;
#436=ORIENTED_EDGE('',*,*,#429,.T.) ;
#437=ORIENTED_EDGE('',*,*,#434,.T.) ;
#440=ORIENTED_EDGE('',*,*,#298,.F.) ;
#441=ORIENTED_EDGE('',*,*,#322,.F.) ;
#478=ORIENTED_EDGE('',*,*,#457,.T.) ;
#479=ORIENTED_EDGE('',*,*,#464,.F.) ;
#480=ORIENTED_EDGE('',*,*,#471,.F.) ;
#481=ORIENTED_EDGE('',*,*,#476,.T.) ;
#495=ORIENTED_EDGE('',*,*,#488,.T.) ;
#496=ORIENTED_EDGE('',*,*,#476,.F.) ;
#497=ORIENTED_EDGE('',*,*,#493,.F.) ;
#498=ORIENTED_EDGE('',*,*,#464,.T.) ;
#508=ORIENTED_EDGE('',*,*,#488,.F.) ;
#509=ORIENTED_EDGE('',*,*,#457,.F.) ;
#519=ORIENTED_EDGE('',*,*,#471,.T.) ;
#520=ORIENTED_EDGE('',*,*,#493,.T.) ;
#537=ORIENTED_EDGE('',*,*,#530,.F.) ;
#538=ORIENTED_EDGE('',*,*,#535,.F.) ;
#555=ORIENTED_EDGE('',*,*,#548,.F.) ;
#556=ORIENTED_EDGE('',*,*,#553,.F.) ;
#575=ORIENTED_EDGE('',*,*,#568,.F.) ;
#576=ORIENTED_EDGE('',*,*,#553,.T.) ;
#577=ORIENTED_EDGE('',*,*,#573,.T.) ;
#578=ORIENTED_EDGE('',*,*,#411,.F.) ;
#582=ORIENTED_EDGE('',*,*,#573,.F.) ;
#583=ORIENTED_EDGE('',*,*,#548,.T.) ;
#584=ORIENTED_EDGE('',*,*,#568,.T.) ;
#585=ORIENTED_EDGE('',*,*,#406,.F.) ;
#604=ORIENTED_EDGE('',*,*,#597,.F.) ;
#605=ORIENTED_EDGE('',*,*,#535,.T.) ;
#606=ORIENTED_EDGE('',*,*,#602,.T.) ;
#607=ORIENTED_EDGE('',*,*,#434,.F.) ;
#611=ORIENTED_EDGE('',*,*,#602,.F.) ;
#612=ORIENTED_EDGE('',*,*,#530,.T.) ;
#613=ORIENTED_EDGE('',*,*,#597,.T.) ;
#614=ORIENTED_EDGE('',*,*,#429,.F.) ;
#624=ORIENTED_EDGE('',*,*,#310,.T.) ;
#625=ORIENTED_EDGE('',*,*,#327,.T.) ;
#670=ORIENTED_EDGE('',*,*,#635,.F.) ;
#671=ORIENTED_EDGE('',*,*,#642,.F.) ;
#672=ORIENTED_EDGE('',*,*,#649,.F.) ;
#673=ORIENTED_EDGE('',*,*,#656,.F.) ;
#674=ORIENTED_EDGE('',*,*,#663,.F.) ;
#675=ORIENTED_EDGE('',*,*,#668,.F.) ;
#679=ORIENTED_EDGE('',*,*,#367,.T.) ;
#680=ORIENTED_EDGE('',*,*,#384,.T.) ;
#725=ORIENTED_EDGE('',*,*,#690,.F.) ;
#726=ORIENTED_EDGE('',*,*,#697,.F.) ;
#727=ORIENTED_EDGE('',*,*,#704,.F.) ;
#728=ORIENTED_EDGE('',*,*,#711,.F.) ;
#729=ORIENTED_EDGE('',*,*,#718,.F.) ;
#730=ORIENTED_EDGE('',*,*,#723,.F.) ;
#750=ORIENTED_EDGE('',*,*,#743,.F.) ;
#751=ORIENTED_EDGE('',*,*,#690,.T.) ;
#752=ORIENTED_EDGE('',*,*,#748,.T.) ;
#753=ORIENTED_EDGE('',*,*,#204,.F.) ;
#768=ORIENTED_EDGE('',*,*,#766,.F.) ;
#769=ORIENTED_EDGE('',*,*,#697,.T.) ;
#770=ORIENTED_EDGE('',*,*,#743,.T.) ;
#771=ORIENTED_EDGE('',*,*,#197,.F.) ;
#786=ORIENTED_EDGE('',*,*,#784,.F.) ;
#787=ORIENTED_EDGE('',*,*,#704,.T.) ;
#788=ORIENTED_EDGE('',*,*,#766,.T.) ;
#789=ORIENTED_EDGE('',*,*,#190,.F.) ;
#804=ORIENTED_EDGE('',*,*,#748,.F.) ;
#805=ORIENTED_EDGE('',*,*,#723,.T.) ;
#806=ORIENTED_EDGE('',*,*,#802,.T.) ;
#807=ORIENTED_EDGE('',*,*,#209,.F.) ;
#822=ORIENTED_EDGE('',*,*,#820,.F.) ;
#823=ORIENTED_EDGE('',*,*,#711,.T.) ;
#824=ORIENTED_EDGE('',*,*,#784,.T.) ;
#825=ORIENTED_EDGE('',*,*,#183,.F.) ;
#835=ORIENTED_EDGE('',*,*,#802,.F.) ;
#836=ORIENTED_EDGE('',*,*,#718,.T.) ;
#837=ORIENTED_EDGE('',*,*,#820,.T.) ;
#838=ORIENTED_EDGE('',*,*,#176,.F.) ;
#858=ORIENTED_EDGE('',*,*,#851,.F.) ;
#859=ORIENTED_EDGE('',*,*,#642,.T.) ;
#860=ORIENTED_EDGE('',*,*,#856,.T.) ;
#861=ORIENTED_EDGE('',*,*,#252,.F.) ;
#876=ORIENTED_EDGE('',*,*,#874,.F.) ;
#877=ORIENTED_EDGE('',*,*,#649,.T.) ;
#878=ORIENTED_EDGE('',*,*,#851,.T.) ;
#879=ORIENTED_EDGE('',*,*,#245,.F.) ;
#888=ORIENTED_EDGE('',*,*,#856,.F.) ;
#889=ORIENTED_EDGE('',*,*,#635,.T.) ;
#890=ORIENTED_EDGE('',*,*,#886,.T.) ;
#891=ORIENTED_EDGE('',*,*,#259,.F.) ;
#900=ORIENTED_EDGE('',*,*,#898,.F.) ;
#901=ORIENTED_EDGE('',*,*,#656,.T.) ;
#902=ORIENTED_EDGE('',*,*,#874,.T.) ;
#903=ORIENTED_EDGE('',*,*,#238,.F.) ;
#918=ORIENTED_EDGE('',*,*,#886,.F.) ;
#919=ORIENTED_EDGE('',*,*,#668,.T.) ;
#920=ORIENTED_EDGE('',*,*,#916,.T.) ;
#921=ORIENTED_EDGE('',*,*,#264,.F.) ;
#931=ORIENTED_EDGE('',*,*,#916,.F.) ;
#932=ORIENTED_EDGE('',*,*,#663,.T.) ;
#933=ORIENTED_EDGE('',*,*,#898,.T.) ;
#934=ORIENTED_EDGE('',*,*,#231,.F.) ;
#221=FACE_BOUND('',#218,.T.) ;
#276=FACE_BOUND('',#273,.T.) ;
#419=FACE_BOUND('',#416,.T.) ;
#442=FACE_BOUND('',#439,.T.) ;
#539=FACE_BOUND('',#536,.T.) ;
#557=FACE_BOUND('',#554,.T.) ;
#676=FACE_BOUND('',#669,.T.) ;
#731=FACE_BOUND('',#724,.T.) ;
#31=CLOSED_SHELL('Closed Shell',(#71,#88,#99,#139,#156,#161,#222,#277,#317,#334,#374,#391,#420,#443,#483,#500,#511,#558,#580,#587,#609,#616,#677,#732,#755,#773,#791,#809,#827,#840,#863,#881,#893,#905,#923,#936)) ;
#937=ADVANCED_BREP_SHAPE_REPRESENTATION('NONE',(#21),#16) ;
#71=ADVANCED_FACE('\X2\04220435043B043E\X0\ \X2\0434043504420430043B0438\X0\',(#70),#36,.T.) ;
#88=ADVANCED_FACE('\X2\04220435043B043E\X0\ \X2\0434043504420430043B0438\X0\',(#87),#36,.T.) ;
#99=ADVANCED_FACE('\X2\04220435043B043E\X0\ \X2\0434043504420430043B0438\X0\',(#98),#93,.T.) ;
#139=ADVANCED_FACE('\X2\04220435043B043E\X0\ \X2\0434043504420430043B0438\X0\',(#138),#104,.T.) ;
#156=ADVANCED_FACE('\X2\04220435043B043E\X0\ \X2\0434043504420430043B0438\X0\',(#155),#104,.T.) ;
#161=ADVANCED_FACE('\X2\04220435043B043E\X0\ \X2\0434043504420430043B0438\X0\',(#160),#93,.T.) ;
#222=ADVANCED_FACE('\X2\04220435043B043E\X0\ \X2\0434043504420430043B0438\X0\',(#217,#221),#166,.T.) ;
#277=ADVANCED_FACE('\X2\04220435043B043E\X0\ \X2\0434043504420430043B0438\X0\',(#272,#276),#166,.T.) ;
#317=ADVANCED_FACE('\X2\04220435043B043E\X0\ \X2\0434043504420430043B0438\X0\',(#316),#282,.T.) ;
#334=ADVANCED_FACE('\X2\04220435043B043E\X0\ \X2\0434043504420430043B0438\X0\',(#333),#282,.T.) ;
#374=ADVANCED_FACE('\X2\04220435043B043E\X0\ \X2\0434043504420430043B0438\X0\',(#373),#339,.T.) ;
#391=ADVANCED_FACE('\X2\04220435043B043E\X0\ \X2\0434043504420430043B0438\X0\',(#390),#339,.T.) ;
#420=ADVANCED_FACE('\X2\04220435043B043E\X0\ \X2\0434043504420430043B0438\X0\',(#415,#419),#396,.T.) ;
#443=ADVANCED_FACE('\X2\04220435043B043E\X0\ \X2\0434043504420430043B0438\X0\',(#438,#442),#396,.T.) ;
#483=ADVANCED_FACE('\X2\04220435043B043E\X0\ \X2\0434043504420430043B0438\X0\',(#482),#448,.T.) ;
#500=ADVANCED_FACE('\X2\04220435043B043E\X0\ \X2\0434043504420430043B0438\X0\',(#499),#448,.T.) ;
#511=ADVANCED_FACE('\X2\04220435043B043E\X0\ \X2\0434043504420430043B0438\X0\',(#510),#505,.F.) ;
#558=ADVANCED_FACE('\X2\04220435043B043E\X0\ \X2\0434043504420430043B0438\X0\',(#521,#539,#557),#516,.T.) ;
#580=ADVANCED_FACE('\X2\04220435043B043E\X0\ \X2\0434043504420430043B0438\X0\',(#579),#563,.T.) ;
#587=ADVANCED_FACE('\X2\04220435043B043E\X0\ \X2\0434043504420430043B0438\X0\',(#586),#563,.T.) ;
#609=ADVANCED_FACE('\X2\04220435043B043E\X0\ \X2\0434043504420430043B0438\X0\',(#608),#592,.T.) ;
#616=ADVANCED_FACE('\X2\04220435043B043E\X0\ \X2\0434043504420430043B0438\X0\',(#615),#592,.T.) ;
#677=ADVANCED_FACE('\X2\04220435043B043E\X0\ \X2\0434043504420430043B0438\X0\',(#626,#676),#621,.T.) ;
#732=ADVANCED_FACE('\X2\04220435043B043E\X0\ \X2\0434043504420430043B0438\X0\',(#681,#731),#621,.T.) ;
#755=ADVANCED_FACE('\X2\04220435043B043E\X0\ \X2\0434043504420430043B0438\X0\',(#754),#737,.T.) ;
#773=ADVANCED_FACE('\X2\04220435043B043E\X0\ \X2\0434043504420430043B0438\X0\',(#772),#760,.F.) ;
#791=ADVANCED_FACE('\X2\04220435043B043E\X0\ \X2\0434043504420430043B0438\X0\',(#790),#778,.F.) ;
#809=ADVANCED_FACE('\X2\04220435043B043E\X0\ \X2\0434043504420430043B0438\X0\',(#808),#796,.F.) ;
#827=ADVANCED_FACE('\X2\04220435043B043E\X0\ \X2\0434043504420430043B0438\X0\',(#826),#814,.T.) ;
#840=ADVANCED_FACE('\X2\04220435043B043E\X0\ \X2\0434043504420430043B0438\X0\',(#839),#832,.F.) ;
#863=ADVANCED_FACE('\X2\04220435043B043E\X0\ \X2\0434043504420430043B0438\X0\',(#862),#845,.T.) ;
#881=ADVANCED_FACE('\X2\04220435043B043E\X0\ \X2\0434043504420430043B0438\X0\',(#880),#868,.T.) ;
#893=ADVANCED_FACE('\X2\04220435043B043E\X0\ \X2\0434043504420430043B0438\X0\',(#892),#814,.T.) ;
#905=ADVANCED_FACE('\X2\04220435043B043E\X0\ \X2\0434043504420430043B0438\X0\',(#904),#737,.T.) ;
#923=ADVANCED_FACE('\X2\04220435043B043E\X0\ \X2\0434043504420430043B0438\X0\',(#922),#910,.T.) ;
#936=ADVANCED_FACE('\X2\04220435043B043E\X0\ \X2\0434043504420430043B0438\X0\',(#935),#928,.T.) ;
#4=APPLICATION_PROTOCOL_DEFINITION('international standard','automotive_design',2001,#1) ;
#21=MANIFOLD_SOLID_BREP('\X2\04220435043B043E\X0\ \X2\0434043504420430043B0438\X0\',#31) ;
#49=CIRCLE('generated circle',#48,3.) ;
#63=CIRCLE('generated circle',#62,3.) ;
#75=CIRCLE('generated circle',#74,3.) ;
#80=CIRCLE('generated circle',#79,3.) ;
#117=CIRCLE('generated circle',#116,3.) ;
#131=CIRCLE('generated circle',#130,3.) ;
#143=CIRCLE('generated circle',#142,3.) ;
#148=CIRCLE('generated circle',#147,3.) ;
#295=CIRCLE('generated circle',#294,8.3) ;
#309=CIRCLE('generated circle',#308,8.3) ;
#321=CIRCLE('generated circle',#320,8.3) ;
#326=CIRCLE('generated circle',#325,8.3) ;
#352=CIRCLE('generated circle',#351,8.3) ;
#366=CIRCLE('generated circle',#365,8.3) ;
#378=CIRCLE('generated circle',#377,8.3) ;
#383=CIRCLE('generated circle',#382,8.3) ;
#401=CIRCLE('generated circle',#400,8.9) ;
#410=CIRCLE('generated circle',#409,8.9) ;
#424=CIRCLE('generated circle',#423,8.9) ;
#433=CIRCLE('generated circle',#432,8.9) ;
#452=CIRCLE('generated circle',#451,30.1) ;
#468=CIRCLE('generated circle',#467,30.1) ;
#487=CIRCLE('generated circle',#486,30.1) ;
#492=CIRCLE('generated circle',#491,30.1) ;
#525=CIRCLE('generated circle',#524,8.9) ;
#534=CIRCLE('generated circle',#533,8.9) ;
#543=CIRCLE('generated circle',#542,8.9) ;
#552=CIRCLE('generated circle',#551,8.9) ;
#22=COLOUR_RGB('Colour',0.823529411765,0.823529411765,1.) ;
#36=CYLINDRICAL_SURFACE('generated cylinder',#35,3.) ;
#104=CYLINDRICAL_SURFACE('generated cylinder',#103,3.) ;
#282=CYLINDRICAL_SURFACE('generated cylinder',#281,8.3) ;
#339=CYLINDRICAL_SURFACE('generated cylinder',#338,8.3) ;
#448=CYLINDRICAL_SURFACE('generated cylinder',#447,30.1) ;
#563=CYLINDRICAL_SURFACE('generated cylinder',#562,8.9) ;
#592=CYLINDRICAL_SURFACE('generated cylinder',#591,8.9) ;
#45=EDGE_CURVE('',#42,#44,#40,.T.) ;
#52=EDGE_CURVE('',#42,#51,#49,.T.) ;
#59=EDGE_CURVE('',#51,#58,#56,.T.) ;
#64=EDGE_CURVE('',#44,#58,#63,.T.) ;
#76=EDGE_CURVE('',#51,#42,#75,.T.) ;
#81=EDGE_CURVE('',#58,#44,#80,.T.) ;
#113=EDGE_CURVE('',#110,#112,#108,.T.) ;
#120=EDGE_CURVE('',#110,#119,#117,.T.) ;
#127=EDGE_CURVE('',#119,#126,#124,.T.) ;
#132=EDGE_CURVE('',#112,#126,#131,.T.) ;
#144=EDGE_CURVE('',#119,#110,#143,.T.) ;
#149=EDGE_CURVE('',#126,#112,#148,.T.) ;
#176=EDGE_CURVE('',#173,#175,#171,.F.) ;
#183=EDGE_CURVE('',#175,#182,#180,.F.) ;
#190=EDGE_CURVE('',#182,#189,#187,.F.) ;
#197=EDGE_CURVE('',#189,#196,#194,.F.) ;
#204=EDGE_CURVE('',#196,#203,#201,.F.) ;
#209=EDGE_CURVE('',#203,#173,#208,.F.) ;
#231=EDGE_CURVE('',#228,#230,#226,.T.) ;
#238=EDGE_CURVE('',#230,#237,#235,.T.) ;
#245=EDGE_CURVE('',#237,#244,#242,.T.) ;
#252=EDGE_CURVE('',#244,#251,#249,.T.) ;
#259=EDGE_CURVE('',#251,#258,#256,.T.) ;
#264=EDGE_CURVE('',#258,#228,#263,.T.) ;
#291=EDGE_CURVE('',#288,#290,#286,.T.) ;
#298=EDGE_CURVE('',#288,#297,#295,.T.) ;
#305=EDGE_CURVE('',#297,#304,#302,.T.) ;
#310=EDGE_CURVE('',#290,#304,#309,.T.) ;
#322=EDGE_CURVE('',#297,#288,#321,.T.) ;
#327=EDGE_CURVE('',#304,#290,#326,.T.) ;
#348=EDGE_CURVE('',#345,#347,#343,.T.) ;
#355=EDGE_CURVE('',#345,#354,#352,.T.) ;
#362=EDGE_CURVE('',#354,#361,#359,.T.) ;
#367=EDGE_CURVE('',#347,#361,#366,.T.) ;
#379=EDGE_CURVE('',#354,#345,#378,.T.) ;
#384=EDGE_CURVE('',#361,#347,#383,.T.) ;
#406=EDGE_CURVE('',#403,#405,#401,.T.) ;
#411=EDGE_CURVE('',#405,#403,#410,.T.) ;
#429=EDGE_CURVE('',#426,#428,#424,.T.) ;
#434=EDGE_CURVE('',#428,#426,#433,.T.) ;
#457=EDGE_CURVE('',#454,#456,#452,.T.) ;
#464=EDGE_CURVE('',#463,#456,#461,.F.) ;
#471=EDGE_CURVE('',#470,#463,#468,.T.) ;
#476=EDGE_CURVE('',#470,#454,#475,.F.) ;
#488=EDGE_CURVE('',#456,#454,#487,.T.) ;
#493=EDGE_CURVE('',#463,#470,#492,.T.) ;
#530=EDGE_CURVE('',#527,#529,#525,.T.) ;
#535=EDGE_CURVE('',#529,#527,#534,.T.) ;
#548=EDGE_CURVE('',#545,#547,#543,.T.) ;
#553=EDGE_CURVE('',#547,#545,#552,.T.) ;
#568=EDGE_CURVE('',#547,#405,#567,.T.) ;
#573=EDGE_CURVE('',#545,#403,#572,.T.) ;
#597=EDGE_CURVE('',#529,#428,#596,.T.) ;
#602=EDGE_CURVE('',#527,#426,#601,.T.) ;
#635=EDGE_CURVE('',#632,#634,#630,.T.) ;
#642=EDGE_CURVE('',#641,#632,#639,.T.) ;
#649=EDGE_CURVE('',#648,#641,#646,.T.) ;
#656=EDGE_CURVE('',#655,#648,#653,.T.) ;
#663=EDGE_CURVE('',#662,#655,#660,.T.) ;
#668=EDGE_CURVE('',#634,#662,#667,.T.) ;
#690=EDGE_CURVE('',#687,#689,#685,.F.) ;
#697=EDGE_CURVE('',#696,#687,#694,.F.) ;
#704=EDGE_CURVE('',#703,#696,#701,.F.) ;
#711=EDGE_CURVE('',#710,#703,#708,.F.) ;
#718=EDGE_CURVE('',#717,#710,#715,.F.) ;
#723=EDGE_CURVE('',#689,#717,#722,.F.) ;
#743=EDGE_CURVE('',#687,#196,#742,.T.) ;
#748=EDGE_CURVE('',#689,#203,#747,.T.) ;
#766=EDGE_CURVE('',#696,#189,#765,.T.) ;
#784=EDGE_CURVE('',#703,#182,#783,.T.) ;
#802=EDGE_CURVE('',#717,#173,#801,.T.) ;
#820=EDGE_CURVE('',#710,#175,#819,.T.) ;
#851=EDGE_CURVE('',#641,#244,#850,.T.) ;
#856=EDGE_CURVE('',#632,#251,#855,.T.) ;
#874=EDGE_CURVE('',#648,#237,#873,.T.) ;
#886=EDGE_CURVE('',#634,#258,#885,.T.) ;
#898=EDGE_CURVE('',#655,#230,#897,.T.) ;
#916=EDGE_CURVE('',#662,#228,#915,.T.) ;
#65=EDGE_LOOP('',(#66,#67,#68,#69)) ;
#82=EDGE_LOOP('',(#83,#84,#85,#86)) ;
#95=EDGE_LOOP('',(#96,#97)) ;
#133=EDGE_LOOP('',(#134,#135,#136,#137)) ;
#150=EDGE_LOOP('',(#151,#152,#153,#154)) ;
#157=EDGE_LOOP('',(#158,#159)) ;
#210=EDGE_LOOP('',(#211,#212,#213,#214,#215,#216)) ;
#218=EDGE_LOOP('',(#219,#220)) ;
#265=EDGE_LOOP('',(#266,#267,#268,#269,#270,#271)) ;
#273=EDGE_LOOP('',(#274,#275)) ;
#311=EDGE_LOOP('',(#312,#313,#314,#315)) ;
#328=EDGE_LOOP('',(#329,#330,#331,#332)) ;
#368=EDGE_LOOP('',(#369,#370,#371,#372)) ;
#385=EDGE_LOOP('',(#386,#387,#388,#389)) ;
#412=EDGE_LOOP('',(#413,#414)) ;
#416=EDGE_LOOP('',(#417,#418)) ;
#435=EDGE_LOOP('',(#436,#437)) ;
#439=EDGE_LOOP('',(#440,#441)) ;
#477=EDGE_LOOP('',(#478,#479,#480,#481)) ;
#494=EDGE_LOOP('',(#495,#496,#497,#498)) ;
#507=EDGE_LOOP('',(#508,#509)) ;
#518=EDGE_LOOP('',(#519,#520)) ;
#536=EDGE_LOOP('',(#537,#538)) ;
#554=EDGE_LOOP('',(#555,#556)) ;
#574=EDGE_LOOP('',(#575,#576,#577,#578)) ;
#581=EDGE_LOOP('',(#582,#583,#584,#585)) ;
#603=EDGE_LOOP('',(#604,#605,#606,#607)) ;
#610=EDGE_LOOP('',(#611,#612,#613,#614)) ;
#623=EDGE_LOOP('',(#624,#625)) ;
#669=EDGE_LOOP('',(#670,#671,#672,#673,#674,#675)) ;
#678=EDGE_LOOP('',(#679,#680)) ;
#724=EDGE_LOOP('',(#725,#726,#727,#728,#729,#730)) ;
#749=EDGE_LOOP('',(#750,#751,#752,#753)) ;
#767=EDGE_LOOP('',(#768,#769,#770,#771)) ;
#785=EDGE_LOOP('',(#786,#787,#788,#789)) ;
#803=EDGE_LOOP('',(#804,#805,#806,#807)) ;
#821=EDGE_LOOP('',(#822,#823,#824,#825)) ;
#834=EDGE_LOOP('',(#835,#836,#837,#838)) ;
#857=EDGE_LOOP('',(#858,#859,#860,#861)) ;
#875=EDGE_LOOP('',(#876,#877,#878,#879)) ;
#887=EDGE_LOOP('',(#888,#889,#890,#891)) ;
#899=EDGE_LOOP('',(#900,#901,#902,#903)) ;
#917=EDGE_LOOP('',(#918,#919,#920,#921)) ;
#930=EDGE_LOOP('',(#931,#932,#933,#934)) ;
#70=FACE_OUTER_BOUND('',#65,.T.) ;
#87=FACE_OUTER_BOUND('',#82,.T.) ;
#98=FACE_OUTER_BOUND('',#95,.T.) ;
#138=FACE_OUTER_BOUND('',#133,.T.) ;
#155=FACE_OUTER_BOUND('',#150,.T.) ;
#160=FACE_OUTER_BOUND('',#157,.T.) ;
#217=FACE_OUTER_BOUND('',#210,.T.) ;
#272=FACE_OUTER_BOUND('',#265,.T.) ;
#316=FACE_OUTER_BOUND('',#311,.T.) ;
#333=FACE_OUTER_BOUND('',#328,.T.) ;
#373=FACE_OUTER_BOUND('',#368,.T.) ;
#390=FACE_OUTER_BOUND('',#385,.T.) ;
#415=FACE_OUTER_BOUND('',#412,.T.) ;
#438=FACE_OUTER_BOUND('',#435,.T.) ;
#482=FACE_OUTER_BOUND('',#477,.T.) ;
#499=FACE_OUTER_BOUND('',#494,.T.) ;
#510=FACE_OUTER_BOUND('',#507,.T.) ;
#521=FACE_OUTER_BOUND('',#518,.T.) ;
#579=FACE_OUTER_BOUND('',#574,.T.) ;
#586=FACE_OUTER_BOUND('',#581,.T.) ;
#608=FACE_OUTER_BOUND('',#603,.T.) ;
#615=FACE_OUTER_BOUND('',#610,.T.) ;
#626=FACE_OUTER_BOUND('',#623,.T.) ;
#681=FACE_OUTER_BOUND('',#678,.T.) ;
#754=FACE_OUTER_BOUND('',#749,.T.) ;
#772=FACE_OUTER_BOUND('',#767,.T.) ;
#790=FACE_OUTER_BOUND('',#785,.T.) ;
#808=FACE_OUTER_BOUND('',#803,.T.) ;
#826=FACE_OUTER_BOUND('',#821,.T.) ;
#839=FACE_OUTER_BOUND('',#834,.T.) ;
#862=FACE_OUTER_BOUND('',#857,.T.) ;
#880=FACE_OUTER_BOUND('',#875,.T.) ;
#892=FACE_OUTER_BOUND('',#887,.T.) ;
#904=FACE_OUTER_BOUND('',#899,.T.) ;
#922=FACE_OUTER_BOUND('',#917,.T.) ;
#935=FACE_OUTER_BOUND('',#930,.T.) ;
#40=LINE('Line',#37,#39) ;
#56=LINE('Line',#53,#55) ;
#108=LINE('Line',#105,#107) ;
#124=LINE('Line',#121,#123) ;
#171=LINE('Line',#168,#170) ;
#180=LINE('Line',#177,#179) ;
#187=LINE('Line',#184,#186) ;
#194=LINE('Line',#191,#193) ;
#201=LINE('Line',#198,#200) ;
#208=LINE('Line',#205,#207) ;
#226=LINE('Line',#223,#225) ;
#235=LINE('Line',#232,#234) ;
#242=LINE('Line',#239,#241) ;
#249=LINE('Line',#246,#248) ;
#256=LINE('Line',#253,#255) ;
#263=LINE('Line',#260,#262) ;
#286=LINE('Line',#283,#285) ;
#302=LINE('Line',#299,#301) ;
#343=LINE('Line',#340,#342) ;
#359=LINE('Line',#356,#358) ;
#461=LINE('Line',#458,#460) ;
#475=LINE('Line',#472,#474) ;
#567=LINE('Line',#564,#566) ;
#572=LINE('Line',#569,#571) ;
#596=LINE('Line',#593,#595) ;
#601=LINE('Line',#598,#600) ;
#630=LINE('Line',#627,#629) ;
#639=LINE('Line',#636,#638) ;
#646=LINE('Line',#643,#645) ;
#653=LINE('Line',#650,#652) ;
#660=LINE('Line',#657,#659) ;
#667=LINE('Line',#664,#666) ;
#685=LINE('Line',#682,#684) ;
#694=LINE('Line',#691,#693) ;
#701=LINE('Line',#698,#700) ;
#708=LINE('Line',#705,#707) ;
#715=LINE('Line',#712,#714) ;
#722=LINE('Line',#719,#721) ;
#742=LINE('Line',#739,#741) ;
#747=LINE('Line',#744,#746) ;
#765=LINE('Line',#762,#764) ;
#783=LINE('Line',#780,#782) ;
#801=LINE('Line',#798,#800) ;
#819=LINE('Line',#816,#818) ;
#850=LINE('Line',#847,#849) ;
#855=LINE('Line',#852,#854) ;
#873=LINE('Line',#870,#872) ;
#885=LINE('Line',#882,#884) ;
#897=LINE('Line',#894,#896) ;
#915=LINE('Line',#912,#914) ;
#93=PLANE('',#92) ;
#166=PLANE('',#165) ;
#396=PLANE('',#395) ;
#505=PLANE('',#504) ;
#516=PLANE('',#515) ;
#621=PLANE('',#620) ;
#737=PLANE('',#736) ;
#760=PLANE('',#759) ;
#778=PLANE('',#777) ;
#796=PLANE('',#795) ;
#814=PLANE('',#813) ;
#832=PLANE('',#831) ;
#845=PLANE('',#844) ;
#868=PLANE('',#867) ;
#910=PLANE('',#909) ;
#928=PLANE('',#927) ;
#9=PRODUCT_CATEGORY_RELATIONSHIP(' ',' ',#7,#8) ;
#6=PRODUCT_DEFINITION_FORMATION_WITH_SPECIFIED_SOURCE('',' ',#5,.NOT_KNOWN.) ;
#20=SHAPE_DEFINITION_REPRESENTATION(#11,#19) ;
#42=VERTEX_POINT('',#41) ;
#44=VERTEX_POINT('',#43) ;
#51=VERTEX_POINT('',#50) ;
#58=VERTEX_POINT('',#57) ;
#110=VERTEX_POINT('',#109) ;
#112=VERTEX_POINT('',#111) ;
#119=VERTEX_POINT('',#118) ;
#126=VERTEX_POINT('',#125) ;
#173=VERTEX_POINT('',#172) ;
#175=VERTEX_POINT('',#174) ;
#182=VERTEX_POINT('',#181) ;
#189=VERTEX_POINT('',#188) ;
#196=VERTEX_POINT('',#195) ;
#203=VERTEX_POINT('',#202) ;
#228=VERTEX_POINT('',#227) ;
#230=VERTEX_POINT('',#229) ;
#237=VERTEX_POINT('',#236) ;
#244=VERTEX_POINT('',#243) ;
#251=VERTEX_POINT('',#250) ;
#258=VERTEX_POINT('',#257) ;
#288=VERTEX_POINT('',#287) ;
#290=VERTEX_POINT('',#289) ;
#297=VERTEX_POINT('',#296) ;
#304=VERTEX_POINT('',#303) ;
#345=VERTEX_POINT('',#344) ;
#347=VERTEX_POINT('',#346) ;
#354=VERTEX_POINT('',#353) ;
#361=VERTEX_POINT('',#360) ;
#403=VERTEX_POINT('',#402) ;
#405=VERTEX_POINT('',#404) ;
#426=VERTEX_POINT('',#425) ;
#428=VERTEX_POINT('',#427) ;
#454=VERTEX_POINT('',#453) ;
#456=VERTEX_POINT('',#455) ;
#463=VERTEX_POINT('',#462) ;
#470=VERTEX_POINT('',#469) ;
#527=VERTEX_POINT('',#526) ;
#529=VERTEX_POINT('',#528) ;
#545=VERTEX_POINT('',#544) ;
#547=VERTEX_POINT('',#546) ;
#632=VERTEX_POINT('',#631) ;
#634=VERTEX_POINT('',#633) ;
#641=VERTEX_POINT('',#640) ;
#648=VERTEX_POINT('',#647) ;
#655=VERTEX_POINT('',#654) ;
#662=VERTEX_POINT('',#661) ;
#687=VERTEX_POINT('',#686) ;
#689=VERTEX_POINT('',#688) ;
#696=VERTEX_POINT('',#695) ;
#703=VERTEX_POINT('',#702) ;
#710=VERTEX_POINT('',#709) ;
#717=VERTEX_POINT('',#716) ;
#12=(LENGTH_UNIT()NAMED_UNIT(*)SI_UNIT(.MILLI.,.METRE.)) ;
#13=(NAMED_UNIT(*)PLANE_ANGLE_UNIT()SI_UNIT($,.RADIAN.)) ;
#14=(NAMED_UNIT(*)SI_UNIT($,.STERADIAN.)SOLID_ANGLE_UNIT()) ;
#16=(GEOMETRIC_REPRESENTATION_CONTEXT(3)GLOBAL_UNCERTAINTY_ASSIGNED_CONTEXT((#15))GLOBAL_UNIT_ASSIGNED_CONTEXT((#12,#13,#14))REPRESENTATION_CONTEXT(' ',' ')) ;
ENDSEC;
END-ISO-10303-21;
